%TF.GenerationSoftware,KiCad,Pcbnew,(6.0.0-0)*%
%TF.CreationDate,2022-01-01T22:44:04+00:00*%
%TF.ProjectId,dual-digi-delay,6475616c-2d64-4696-9769-2d64656c6179,r02*%
%TF.SameCoordinates,Original*%
%TF.FileFunction,Legend,Bot*%
%TF.FilePolarity,Positive*%
%FSLAX46Y46*%
G04 Gerber Fmt 4.6, Leading zero omitted, Abs format (unit mm)*
G04 Created by KiCad (PCBNEW (6.0.0-0)) date 2022-01-01 22:44:04*
%MOMM*%
%LPD*%
G01*
G04 APERTURE LIST*
%ADD10C,0.150000*%
%ADD11C,0.120000*%
%ADD12C,0.010000*%
G04 APERTURE END LIST*
D10*
X144470380Y-47522095D02*
X143470380Y-47522095D01*
X143470380Y-47760190D01*
X143518000Y-47903047D01*
X143613238Y-47998285D01*
X143708476Y-48045904D01*
X143898952Y-48093523D01*
X144041809Y-48093523D01*
X144232285Y-48045904D01*
X144327523Y-47998285D01*
X144422761Y-47903047D01*
X144470380Y-47760190D01*
X144470380Y-47522095D01*
X144422761Y-48903047D02*
X144470380Y-48807809D01*
X144470380Y-48617333D01*
X144422761Y-48522095D01*
X144327523Y-48474476D01*
X143946571Y-48474476D01*
X143851333Y-48522095D01*
X143803714Y-48617333D01*
X143803714Y-48807809D01*
X143851333Y-48903047D01*
X143946571Y-48950666D01*
X144041809Y-48950666D01*
X144137047Y-48474476D01*
X144470380Y-49522095D02*
X144422761Y-49426857D01*
X144327523Y-49379238D01*
X143470380Y-49379238D01*
X144470380Y-50331619D02*
X143946571Y-50331619D01*
X143851333Y-50284000D01*
X143803714Y-50188761D01*
X143803714Y-49998285D01*
X143851333Y-49903047D01*
X144422761Y-50331619D02*
X144470380Y-50236380D01*
X144470380Y-49998285D01*
X144422761Y-49903047D01*
X144327523Y-49855428D01*
X144232285Y-49855428D01*
X144137047Y-49903047D01*
X144089428Y-49998285D01*
X144089428Y-50236380D01*
X144041809Y-50331619D01*
X143803714Y-50712571D02*
X144470380Y-50950666D01*
X143803714Y-51188761D02*
X144470380Y-50950666D01*
X144708476Y-50855428D01*
X144756095Y-50807809D01*
X144803714Y-50712571D01*
X144470380Y-52093523D02*
X144470380Y-51522095D01*
X144470380Y-51807809D02*
X143470380Y-51807809D01*
X143613238Y-51712571D01*
X143708476Y-51617333D01*
X143756095Y-51522095D01*
X140136619Y-133706904D02*
X141136619Y-133706904D01*
X141136619Y-133468809D01*
X141089000Y-133325952D01*
X140993761Y-133230714D01*
X140898523Y-133183095D01*
X140708047Y-133135476D01*
X140565190Y-133135476D01*
X140374714Y-133183095D01*
X140279476Y-133230714D01*
X140184238Y-133325952D01*
X140136619Y-133468809D01*
X140136619Y-133706904D01*
X140184238Y-132325952D02*
X140136619Y-132421190D01*
X140136619Y-132611666D01*
X140184238Y-132706904D01*
X140279476Y-132754523D01*
X140660428Y-132754523D01*
X140755666Y-132706904D01*
X140803285Y-132611666D01*
X140803285Y-132421190D01*
X140755666Y-132325952D01*
X140660428Y-132278333D01*
X140565190Y-132278333D01*
X140469952Y-132754523D01*
X140136619Y-131706904D02*
X140184238Y-131802142D01*
X140279476Y-131849761D01*
X141136619Y-131849761D01*
X140136619Y-130897380D02*
X140660428Y-130897380D01*
X140755666Y-130945000D01*
X140803285Y-131040238D01*
X140803285Y-131230714D01*
X140755666Y-131325952D01*
X140184238Y-130897380D02*
X140136619Y-130992619D01*
X140136619Y-131230714D01*
X140184238Y-131325952D01*
X140279476Y-131373571D01*
X140374714Y-131373571D01*
X140469952Y-131325952D01*
X140517571Y-131230714D01*
X140517571Y-130992619D01*
X140565190Y-130897380D01*
X140803285Y-130516428D02*
X140136619Y-130278333D01*
X140803285Y-130040238D02*
X140136619Y-130278333D01*
X139898523Y-130373571D01*
X139850904Y-130421190D01*
X139803285Y-130516428D01*
X141041380Y-129706904D02*
X141089000Y-129659285D01*
X141136619Y-129564047D01*
X141136619Y-129325952D01*
X141089000Y-129230714D01*
X141041380Y-129183095D01*
X140946142Y-129135476D01*
X140850904Y-129135476D01*
X140708047Y-129183095D01*
X140136619Y-129754523D01*
X140136619Y-129135476D01*
X162710476Y-34001000D02*
X162805714Y-33953380D01*
X162948571Y-33953380D01*
X163091428Y-34001000D01*
X163186666Y-34096238D01*
X163234285Y-34191476D01*
X163281904Y-34381952D01*
X163281904Y-34524809D01*
X163234285Y-34715285D01*
X163186666Y-34810523D01*
X163091428Y-34905761D01*
X162948571Y-34953380D01*
X162853333Y-34953380D01*
X162710476Y-34905761D01*
X162662857Y-34858142D01*
X162662857Y-34524809D01*
X162853333Y-34524809D01*
X161805714Y-34286714D02*
X161805714Y-34953380D01*
X162234285Y-34286714D02*
X162234285Y-34810523D01*
X162186666Y-34905761D01*
X162091428Y-34953380D01*
X161948571Y-34953380D01*
X161853333Y-34905761D01*
X161805714Y-34858142D01*
X161424761Y-34286714D02*
X161186666Y-34953380D01*
X160948571Y-34286714D02*
X161186666Y-34953380D01*
X161281904Y-35191476D01*
X161329523Y-35239095D01*
X161424761Y-35286714D01*
X159520000Y-33953380D02*
X159520000Y-34667666D01*
X159567619Y-34810523D01*
X159662857Y-34905761D01*
X159805714Y-34953380D01*
X159900952Y-34953380D01*
X158900952Y-34953380D02*
X158996190Y-34905761D01*
X159043809Y-34858142D01*
X159091428Y-34762904D01*
X159091428Y-34477190D01*
X159043809Y-34381952D01*
X158996190Y-34334333D01*
X158900952Y-34286714D01*
X158758095Y-34286714D01*
X158662857Y-34334333D01*
X158615238Y-34381952D01*
X158567619Y-34477190D01*
X158567619Y-34762904D01*
X158615238Y-34858142D01*
X158662857Y-34905761D01*
X158758095Y-34953380D01*
X158900952Y-34953380D01*
X158139047Y-34953380D02*
X158139047Y-33953380D01*
X157710476Y-34953380D02*
X157710476Y-34429571D01*
X157758095Y-34334333D01*
X157853333Y-34286714D01*
X157996190Y-34286714D01*
X158091428Y-34334333D01*
X158139047Y-34381952D01*
X157234285Y-34286714D02*
X157234285Y-34953380D01*
X157234285Y-34381952D02*
X157186666Y-34334333D01*
X157091428Y-34286714D01*
X156948571Y-34286714D01*
X156853333Y-34334333D01*
X156805714Y-34429571D01*
X156805714Y-34953380D01*
X167853333Y-35896714D02*
X168615238Y-36182428D01*
X167853333Y-36468142D01*
X166948571Y-35896714D02*
X166948571Y-36706238D01*
X166996190Y-36801476D01*
X167043809Y-36849095D01*
X167139047Y-36896714D01*
X167281904Y-36896714D01*
X167377142Y-36849095D01*
X166948571Y-36515761D02*
X167043809Y-36563380D01*
X167234285Y-36563380D01*
X167329523Y-36515761D01*
X167377142Y-36468142D01*
X167424761Y-36372904D01*
X167424761Y-36087190D01*
X167377142Y-35991952D01*
X167329523Y-35944333D01*
X167234285Y-35896714D01*
X167043809Y-35896714D01*
X166948571Y-35944333D01*
X166043809Y-35896714D02*
X166043809Y-36563380D01*
X166472380Y-35896714D02*
X166472380Y-36420523D01*
X166424761Y-36515761D01*
X166329523Y-36563380D01*
X166186666Y-36563380D01*
X166091428Y-36515761D01*
X166043809Y-36468142D01*
X165662857Y-35896714D02*
X165424761Y-36563380D01*
X165186666Y-35896714D02*
X165424761Y-36563380D01*
X165520000Y-36801476D01*
X165567619Y-36849095D01*
X165662857Y-36896714D01*
X164186666Y-36087190D02*
X164234285Y-36039571D01*
X164329523Y-35991952D01*
X164424761Y-35991952D01*
X164520000Y-36039571D01*
X164567619Y-36087190D01*
X164615238Y-36182428D01*
X164615238Y-36277666D01*
X164567619Y-36372904D01*
X164520000Y-36420523D01*
X164424761Y-36468142D01*
X164329523Y-36468142D01*
X164234285Y-36420523D01*
X164186666Y-36372904D01*
X164186666Y-35991952D02*
X164186666Y-36372904D01*
X164139047Y-36420523D01*
X164091428Y-36420523D01*
X163996190Y-36372904D01*
X163948571Y-36277666D01*
X163948571Y-36039571D01*
X164043809Y-35896714D01*
X164186666Y-35801476D01*
X164377142Y-35753857D01*
X164567619Y-35801476D01*
X164710476Y-35896714D01*
X164805714Y-36039571D01*
X164853333Y-36230047D01*
X164805714Y-36420523D01*
X164710476Y-36563380D01*
X164567619Y-36658619D01*
X164377142Y-36706238D01*
X164186666Y-36658619D01*
X164043809Y-36563380D01*
X163520000Y-36563380D02*
X163520000Y-35896714D01*
X163520000Y-36087190D02*
X163472380Y-35991952D01*
X163424761Y-35944333D01*
X163329523Y-35896714D01*
X163234285Y-35896714D01*
X162472380Y-35896714D02*
X162472380Y-36563380D01*
X162900952Y-35896714D02*
X162900952Y-36420523D01*
X162853333Y-36515761D01*
X162758095Y-36563380D01*
X162615238Y-36563380D01*
X162520000Y-36515761D01*
X162472380Y-36468142D01*
X161996190Y-36563380D02*
X161996190Y-35896714D01*
X161996190Y-35991952D02*
X161948571Y-35944333D01*
X161853333Y-35896714D01*
X161710476Y-35896714D01*
X161615238Y-35944333D01*
X161567619Y-36039571D01*
X161567619Y-36563380D01*
X161567619Y-36039571D02*
X161520000Y-35944333D01*
X161424761Y-35896714D01*
X161281904Y-35896714D01*
X161186666Y-35944333D01*
X161139047Y-36039571D01*
X161139047Y-36563380D01*
X160662857Y-36563380D02*
X160662857Y-35563380D01*
X160662857Y-35944333D02*
X160567619Y-35896714D01*
X160377142Y-35896714D01*
X160281904Y-35944333D01*
X160234285Y-35991952D01*
X160186666Y-36087190D01*
X160186666Y-36372904D01*
X160234285Y-36468142D01*
X160281904Y-36515761D01*
X160377142Y-36563380D01*
X160567619Y-36563380D01*
X160662857Y-36515761D01*
X159615238Y-36563380D02*
X159710476Y-36515761D01*
X159758095Y-36420523D01*
X159758095Y-35563380D01*
X158853333Y-36515761D02*
X158948571Y-36563380D01*
X159139047Y-36563380D01*
X159234285Y-36515761D01*
X159281904Y-36420523D01*
X159281904Y-36039571D01*
X159234285Y-35944333D01*
X159139047Y-35896714D01*
X158948571Y-35896714D01*
X158853333Y-35944333D01*
X158805714Y-36039571D01*
X158805714Y-36134809D01*
X159281904Y-36230047D01*
X158424761Y-36515761D02*
X158329523Y-36563380D01*
X158139047Y-36563380D01*
X158043809Y-36515761D01*
X157996190Y-36420523D01*
X157996190Y-36372904D01*
X158043809Y-36277666D01*
X158139047Y-36230047D01*
X158281904Y-36230047D01*
X158377142Y-36182428D01*
X158424761Y-36087190D01*
X158424761Y-36039571D01*
X158377142Y-35944333D01*
X158281904Y-35896714D01*
X158139047Y-35896714D01*
X158043809Y-35944333D01*
X157139047Y-36563380D02*
X157139047Y-36039571D01*
X157186666Y-35944333D01*
X157281904Y-35896714D01*
X157472380Y-35896714D01*
X157567619Y-35944333D01*
X157139047Y-36515761D02*
X157234285Y-36563380D01*
X157472380Y-36563380D01*
X157567619Y-36515761D01*
X157615238Y-36420523D01*
X157615238Y-36325285D01*
X157567619Y-36230047D01*
X157472380Y-36182428D01*
X157234285Y-36182428D01*
X157139047Y-36134809D01*
X156662857Y-35896714D02*
X156662857Y-36563380D01*
X156662857Y-35991952D02*
X156615238Y-35944333D01*
X156520000Y-35896714D01*
X156377142Y-35896714D01*
X156281904Y-35944333D01*
X156234285Y-36039571D01*
X156234285Y-36563380D01*
X155758095Y-36468142D02*
X155710476Y-36515761D01*
X155758095Y-36563380D01*
X155805714Y-36515761D01*
X155758095Y-36468142D01*
X155758095Y-36563380D01*
X154853333Y-36515761D02*
X154948571Y-36563380D01*
X155139047Y-36563380D01*
X155234285Y-36515761D01*
X155281904Y-36468142D01*
X155329523Y-36372904D01*
X155329523Y-36087190D01*
X155281904Y-35991952D01*
X155234285Y-35944333D01*
X155139047Y-35896714D01*
X154948571Y-35896714D01*
X154853333Y-35944333D01*
X154281904Y-36563380D02*
X154377142Y-36515761D01*
X154424761Y-36468142D01*
X154472380Y-36372904D01*
X154472380Y-36087190D01*
X154424761Y-35991952D01*
X154377142Y-35944333D01*
X154281904Y-35896714D01*
X154139047Y-35896714D01*
X154043809Y-35944333D01*
X153996190Y-35991952D01*
X153948571Y-36087190D01*
X153948571Y-36372904D01*
X153996190Y-36468142D01*
X154043809Y-36515761D01*
X154139047Y-36563380D01*
X154281904Y-36563380D01*
X153520000Y-36563380D02*
X153520000Y-35896714D01*
X153520000Y-35991952D02*
X153472380Y-35944333D01*
X153377142Y-35896714D01*
X153234285Y-35896714D01*
X153139047Y-35944333D01*
X153091428Y-36039571D01*
X153091428Y-36563380D01*
X153091428Y-36039571D02*
X153043809Y-35944333D01*
X152948571Y-35896714D01*
X152805714Y-35896714D01*
X152710476Y-35944333D01*
X152662857Y-36039571D01*
X152662857Y-36563380D01*
X152186666Y-35896714D02*
X151424761Y-36182428D01*
X152186666Y-36468142D01*
X43989523Y-167584428D02*
X43227619Y-167584428D01*
X43608571Y-167965380D02*
X43608571Y-167203476D01*
X42894285Y-166965380D02*
X42560952Y-167965380D01*
X42227619Y-166965380D01*
X168575523Y-31524380D02*
X168575523Y-30524380D01*
X168337428Y-30524380D01*
X168194571Y-30572000D01*
X168099333Y-30667238D01*
X168051714Y-30762476D01*
X168004095Y-30952952D01*
X168004095Y-31095809D01*
X168051714Y-31286285D01*
X168099333Y-31381523D01*
X168194571Y-31476761D01*
X168337428Y-31524380D01*
X168575523Y-31524380D01*
X167146952Y-30857714D02*
X167146952Y-31524380D01*
X167575523Y-30857714D02*
X167575523Y-31381523D01*
X167527904Y-31476761D01*
X167432666Y-31524380D01*
X167289809Y-31524380D01*
X167194571Y-31476761D01*
X167146952Y-31429142D01*
X166242190Y-31524380D02*
X166242190Y-31000571D01*
X166289809Y-30905333D01*
X166385047Y-30857714D01*
X166575523Y-30857714D01*
X166670761Y-30905333D01*
X166242190Y-31476761D02*
X166337428Y-31524380D01*
X166575523Y-31524380D01*
X166670761Y-31476761D01*
X166718380Y-31381523D01*
X166718380Y-31286285D01*
X166670761Y-31191047D01*
X166575523Y-31143428D01*
X166337428Y-31143428D01*
X166242190Y-31095809D01*
X165623142Y-31524380D02*
X165718380Y-31476761D01*
X165766000Y-31381523D01*
X165766000Y-30524380D01*
X164480285Y-31524380D02*
X164480285Y-30524380D01*
X164099333Y-30524380D01*
X164004095Y-30572000D01*
X163956476Y-30619619D01*
X163908857Y-30714857D01*
X163908857Y-30857714D01*
X163956476Y-30952952D01*
X164004095Y-31000571D01*
X164099333Y-31048190D01*
X164480285Y-31048190D01*
X163623142Y-30524380D02*
X163051714Y-30524380D01*
X163337428Y-31524380D02*
X163337428Y-30524380D01*
X162766000Y-30619619D02*
X162718380Y-30572000D01*
X162623142Y-30524380D01*
X162385047Y-30524380D01*
X162289809Y-30572000D01*
X162242190Y-30619619D01*
X162194571Y-30714857D01*
X162194571Y-30810095D01*
X162242190Y-30952952D01*
X162813619Y-31524380D01*
X162194571Y-31524380D01*
X161861238Y-30524380D02*
X161242190Y-30524380D01*
X161575523Y-30905333D01*
X161432666Y-30905333D01*
X161337428Y-30952952D01*
X161289809Y-31000571D01*
X161242190Y-31095809D01*
X161242190Y-31333904D01*
X161289809Y-31429142D01*
X161337428Y-31476761D01*
X161432666Y-31524380D01*
X161718380Y-31524380D01*
X161813619Y-31476761D01*
X161861238Y-31429142D01*
X160766000Y-31524380D02*
X160575523Y-31524380D01*
X160480285Y-31476761D01*
X160432666Y-31429142D01*
X160337428Y-31286285D01*
X160289809Y-31095809D01*
X160289809Y-30714857D01*
X160337428Y-30619619D01*
X160385047Y-30572000D01*
X160480285Y-30524380D01*
X160670761Y-30524380D01*
X160766000Y-30572000D01*
X160813619Y-30619619D01*
X160861238Y-30714857D01*
X160861238Y-30952952D01*
X160813619Y-31048190D01*
X160766000Y-31095809D01*
X160670761Y-31143428D01*
X160480285Y-31143428D01*
X160385047Y-31095809D01*
X160337428Y-31048190D01*
X160289809Y-30952952D01*
X159813619Y-31524380D02*
X159623142Y-31524380D01*
X159527904Y-31476761D01*
X159480285Y-31429142D01*
X159385047Y-31286285D01*
X159337428Y-31095809D01*
X159337428Y-30714857D01*
X159385047Y-30619619D01*
X159432666Y-30572000D01*
X159527904Y-30524380D01*
X159718380Y-30524380D01*
X159813619Y-30572000D01*
X159861238Y-30619619D01*
X159908857Y-30714857D01*
X159908857Y-30952952D01*
X159861238Y-31048190D01*
X159813619Y-31095809D01*
X159718380Y-31143428D01*
X159527904Y-31143428D01*
X159432666Y-31095809D01*
X159385047Y-31048190D01*
X159337428Y-30952952D01*
X158146952Y-31524380D02*
X158146952Y-30524380D01*
X157908857Y-30524380D01*
X157766000Y-30572000D01*
X157670761Y-30667238D01*
X157623142Y-30762476D01*
X157575523Y-30952952D01*
X157575523Y-31095809D01*
X157623142Y-31286285D01*
X157670761Y-31381523D01*
X157766000Y-31476761D01*
X157908857Y-31524380D01*
X158146952Y-31524380D01*
X157146952Y-31524380D02*
X157146952Y-30857714D01*
X157146952Y-30524380D02*
X157194571Y-30572000D01*
X157146952Y-30619619D01*
X157099333Y-30572000D01*
X157146952Y-30524380D01*
X157146952Y-30619619D01*
X156242190Y-30857714D02*
X156242190Y-31667238D01*
X156289809Y-31762476D01*
X156337428Y-31810095D01*
X156432666Y-31857714D01*
X156575523Y-31857714D01*
X156670761Y-31810095D01*
X156242190Y-31476761D02*
X156337428Y-31524380D01*
X156527904Y-31524380D01*
X156623142Y-31476761D01*
X156670761Y-31429142D01*
X156718380Y-31333904D01*
X156718380Y-31048190D01*
X156670761Y-30952952D01*
X156623142Y-30905333D01*
X156527904Y-30857714D01*
X156337428Y-30857714D01*
X156242190Y-30905333D01*
X155766000Y-31524380D02*
X155766000Y-30857714D01*
X155766000Y-30524380D02*
X155813619Y-30572000D01*
X155766000Y-30619619D01*
X155718380Y-30572000D01*
X155766000Y-30524380D01*
X155766000Y-30619619D01*
X154527904Y-31524380D02*
X154527904Y-30524380D01*
X154289809Y-30524380D01*
X154146952Y-30572000D01*
X154051714Y-30667238D01*
X154004095Y-30762476D01*
X153956476Y-30952952D01*
X153956476Y-31095809D01*
X154004095Y-31286285D01*
X154051714Y-31381523D01*
X154146952Y-31476761D01*
X154289809Y-31524380D01*
X154527904Y-31524380D01*
X153146952Y-31476761D02*
X153242190Y-31524380D01*
X153432666Y-31524380D01*
X153527904Y-31476761D01*
X153575523Y-31381523D01*
X153575523Y-31000571D01*
X153527904Y-30905333D01*
X153432666Y-30857714D01*
X153242190Y-30857714D01*
X153146952Y-30905333D01*
X153099333Y-31000571D01*
X153099333Y-31095809D01*
X153575523Y-31191047D01*
X152527904Y-31524380D02*
X152623142Y-31476761D01*
X152670761Y-31381523D01*
X152670761Y-30524380D01*
X151718380Y-31524380D02*
X151718380Y-31000571D01*
X151766000Y-30905333D01*
X151861238Y-30857714D01*
X152051714Y-30857714D01*
X152146952Y-30905333D01*
X151718380Y-31476761D02*
X151813619Y-31524380D01*
X152051714Y-31524380D01*
X152146952Y-31476761D01*
X152194571Y-31381523D01*
X152194571Y-31286285D01*
X152146952Y-31191047D01*
X152051714Y-31143428D01*
X151813619Y-31143428D01*
X151718380Y-31095809D01*
X151337428Y-30857714D02*
X151099333Y-31524380D01*
X150861238Y-30857714D02*
X151099333Y-31524380D01*
X151194571Y-31762476D01*
X151242190Y-31810095D01*
X151337428Y-31857714D01*
X163385047Y-33134380D02*
X163718380Y-32658190D01*
X163956476Y-33134380D02*
X163956476Y-32134380D01*
X163575523Y-32134380D01*
X163480285Y-32182000D01*
X163432666Y-32229619D01*
X163385047Y-32324857D01*
X163385047Y-32467714D01*
X163432666Y-32562952D01*
X163480285Y-32610571D01*
X163575523Y-32658190D01*
X163956476Y-32658190D01*
X162575523Y-33086761D02*
X162670761Y-33134380D01*
X162861238Y-33134380D01*
X162956476Y-33086761D01*
X163004095Y-32991523D01*
X163004095Y-32610571D01*
X162956476Y-32515333D01*
X162861238Y-32467714D01*
X162670761Y-32467714D01*
X162575523Y-32515333D01*
X162527904Y-32610571D01*
X162527904Y-32705809D01*
X163004095Y-32801047D01*
X162194571Y-32467714D02*
X161956476Y-33134380D01*
X161718380Y-32467714D01*
X161337428Y-33134380D02*
X161337428Y-32467714D01*
X161337428Y-32134380D02*
X161385047Y-32182000D01*
X161337428Y-32229619D01*
X161289809Y-32182000D01*
X161337428Y-32134380D01*
X161337428Y-32229619D01*
X160908857Y-33086761D02*
X160813619Y-33134380D01*
X160623142Y-33134380D01*
X160527904Y-33086761D01*
X160480285Y-32991523D01*
X160480285Y-32943904D01*
X160527904Y-32848666D01*
X160623142Y-32801047D01*
X160766000Y-32801047D01*
X160861238Y-32753428D01*
X160908857Y-32658190D01*
X160908857Y-32610571D01*
X160861238Y-32515333D01*
X160766000Y-32467714D01*
X160623142Y-32467714D01*
X160527904Y-32515333D01*
X160051714Y-33134380D02*
X160051714Y-32467714D01*
X160051714Y-32134380D02*
X160099333Y-32182000D01*
X160051714Y-32229619D01*
X160004095Y-32182000D01*
X160051714Y-32134380D01*
X160051714Y-32229619D01*
X159432666Y-33134380D02*
X159527904Y-33086761D01*
X159575523Y-33039142D01*
X159623142Y-32943904D01*
X159623142Y-32658190D01*
X159575523Y-32562952D01*
X159527904Y-32515333D01*
X159432666Y-32467714D01*
X159289809Y-32467714D01*
X159194571Y-32515333D01*
X159146952Y-32562952D01*
X159099333Y-32658190D01*
X159099333Y-32943904D01*
X159146952Y-33039142D01*
X159194571Y-33086761D01*
X159289809Y-33134380D01*
X159432666Y-33134380D01*
X158670761Y-32467714D02*
X158670761Y-33134380D01*
X158670761Y-32562952D02*
X158623142Y-32515333D01*
X158527904Y-32467714D01*
X158385047Y-32467714D01*
X158289809Y-32515333D01*
X158242190Y-32610571D01*
X158242190Y-33134380D01*
X156813619Y-32134380D02*
X156718380Y-32134380D01*
X156623142Y-32182000D01*
X156575523Y-32229619D01*
X156527904Y-32324857D01*
X156480285Y-32515333D01*
X156480285Y-32753428D01*
X156527904Y-32943904D01*
X156575523Y-33039142D01*
X156623142Y-33086761D01*
X156718380Y-33134380D01*
X156813619Y-33134380D01*
X156908857Y-33086761D01*
X156956476Y-33039142D01*
X157004095Y-32943904D01*
X157051714Y-32753428D01*
X157051714Y-32515333D01*
X157004095Y-32324857D01*
X156956476Y-32229619D01*
X156908857Y-32182000D01*
X156813619Y-32134380D01*
X156099333Y-32229619D02*
X156051714Y-32182000D01*
X155956476Y-32134380D01*
X155718380Y-32134380D01*
X155623142Y-32182000D01*
X155575523Y-32229619D01*
X155527904Y-32324857D01*
X155527904Y-32420095D01*
X155575523Y-32562952D01*
X156146952Y-33134380D01*
X155527904Y-33134380D01*
X155368523Y-170632428D02*
X154606619Y-170632428D01*
X154987571Y-171013380D02*
X154987571Y-170251476D01*
X154273285Y-170013380D02*
X153939952Y-171013380D01*
X153606619Y-170013380D01*
X164004523Y-170632428D02*
X163242619Y-170632428D01*
X162909285Y-170013380D02*
X162575952Y-171013380D01*
X162242619Y-170013380D01*
%TO.C,J23*%
X76247523Y-96563380D02*
X76247523Y-97277666D01*
X76295142Y-97420523D01*
X76390380Y-97515761D01*
X76533238Y-97563380D01*
X76628476Y-97563380D01*
X75818952Y-96658619D02*
X75771333Y-96611000D01*
X75676095Y-96563380D01*
X75438000Y-96563380D01*
X75342761Y-96611000D01*
X75295142Y-96658619D01*
X75247523Y-96753857D01*
X75247523Y-96849095D01*
X75295142Y-96991952D01*
X75866571Y-97563380D01*
X75247523Y-97563380D01*
X74914190Y-96563380D02*
X74295142Y-96563380D01*
X74628476Y-96944333D01*
X74485619Y-96944333D01*
X74390380Y-96991952D01*
X74342761Y-97039571D01*
X74295142Y-97134809D01*
X74295142Y-97372904D01*
X74342761Y-97468142D01*
X74390380Y-97515761D01*
X74485619Y-97563380D01*
X74771333Y-97563380D01*
X74866571Y-97515761D01*
X74914190Y-97468142D01*
%TO.C,J30*%
X47545523Y-166838380D02*
X47545523Y-167552666D01*
X47593142Y-167695523D01*
X47688380Y-167790761D01*
X47831238Y-167838380D01*
X47926476Y-167838380D01*
X47164571Y-166838380D02*
X46545523Y-166838380D01*
X46878857Y-167219333D01*
X46736000Y-167219333D01*
X46640761Y-167266952D01*
X46593142Y-167314571D01*
X46545523Y-167409809D01*
X46545523Y-167647904D01*
X46593142Y-167743142D01*
X46640761Y-167790761D01*
X46736000Y-167838380D01*
X47021714Y-167838380D01*
X47116952Y-167790761D01*
X47164571Y-167743142D01*
X45926476Y-166838380D02*
X45831238Y-166838380D01*
X45736000Y-166886000D01*
X45688380Y-166933619D01*
X45640761Y-167028857D01*
X45593142Y-167219333D01*
X45593142Y-167457428D01*
X45640761Y-167647904D01*
X45688380Y-167743142D01*
X45736000Y-167790761D01*
X45831238Y-167838380D01*
X45926476Y-167838380D01*
X46021714Y-167790761D01*
X46069333Y-167743142D01*
X46116952Y-167647904D01*
X46164571Y-167457428D01*
X46164571Y-167219333D01*
X46116952Y-167028857D01*
X46069333Y-166933619D01*
X46021714Y-166886000D01*
X45926476Y-166838380D01*
%TO.C,J32*%
X25955523Y-77386380D02*
X25955523Y-78100666D01*
X26003142Y-78243523D01*
X26098380Y-78338761D01*
X26241238Y-78386380D01*
X26336476Y-78386380D01*
X25574571Y-77386380D02*
X24955523Y-77386380D01*
X25288857Y-77767333D01*
X25146000Y-77767333D01*
X25050761Y-77814952D01*
X25003142Y-77862571D01*
X24955523Y-77957809D01*
X24955523Y-78195904D01*
X25003142Y-78291142D01*
X25050761Y-78338761D01*
X25146000Y-78386380D01*
X25431714Y-78386380D01*
X25526952Y-78338761D01*
X25574571Y-78291142D01*
X24574571Y-77481619D02*
X24526952Y-77434000D01*
X24431714Y-77386380D01*
X24193619Y-77386380D01*
X24098380Y-77434000D01*
X24050761Y-77481619D01*
X24003142Y-77576857D01*
X24003142Y-77672095D01*
X24050761Y-77814952D01*
X24622190Y-78386380D01*
X24003142Y-78386380D01*
%TO.C,J24*%
X98091523Y-163663380D02*
X98091523Y-164377666D01*
X98139142Y-164520523D01*
X98234380Y-164615761D01*
X98377238Y-164663380D01*
X98472476Y-164663380D01*
X97662952Y-163758619D02*
X97615333Y-163711000D01*
X97520095Y-163663380D01*
X97282000Y-163663380D01*
X97186761Y-163711000D01*
X97139142Y-163758619D01*
X97091523Y-163853857D01*
X97091523Y-163949095D01*
X97139142Y-164091952D01*
X97710571Y-164663380D01*
X97091523Y-164663380D01*
X96234380Y-163996714D02*
X96234380Y-164663380D01*
X96472476Y-163615761D02*
X96710571Y-164330047D01*
X96091523Y-164330047D01*
%TO.C,J20*%
X159559523Y-178197380D02*
X159559523Y-178911666D01*
X159607142Y-179054523D01*
X159702380Y-179149761D01*
X159845238Y-179197380D01*
X159940476Y-179197380D01*
X159130952Y-178292619D02*
X159083333Y-178245000D01*
X158988095Y-178197380D01*
X158750000Y-178197380D01*
X158654761Y-178245000D01*
X158607142Y-178292619D01*
X158559523Y-178387857D01*
X158559523Y-178483095D01*
X158607142Y-178625952D01*
X159178571Y-179197380D01*
X158559523Y-179197380D01*
X157940476Y-178197380D02*
X157845238Y-178197380D01*
X157750000Y-178245000D01*
X157702380Y-178292619D01*
X157654761Y-178387857D01*
X157607142Y-178578333D01*
X157607142Y-178816428D01*
X157654761Y-179006904D01*
X157702380Y-179102142D01*
X157750000Y-179149761D01*
X157845238Y-179197380D01*
X157940476Y-179197380D01*
X158035714Y-179149761D01*
X158083333Y-179102142D01*
X158130952Y-179006904D01*
X158178571Y-178816428D01*
X158178571Y-178578333D01*
X158130952Y-178387857D01*
X158083333Y-178292619D01*
X158035714Y-178245000D01*
X157940476Y-178197380D01*
%TO.C,J25*%
X69643523Y-37508380D02*
X69643523Y-38222666D01*
X69691142Y-38365523D01*
X69786380Y-38460761D01*
X69929238Y-38508380D01*
X70024476Y-38508380D01*
X69214952Y-37603619D02*
X69167333Y-37556000D01*
X69072095Y-37508380D01*
X68834000Y-37508380D01*
X68738761Y-37556000D01*
X68691142Y-37603619D01*
X68643523Y-37698857D01*
X68643523Y-37794095D01*
X68691142Y-37936952D01*
X69262571Y-38508380D01*
X68643523Y-38508380D01*
X67738761Y-37508380D02*
X68214952Y-37508380D01*
X68262571Y-37984571D01*
X68214952Y-37936952D01*
X68119714Y-37889333D01*
X67881619Y-37889333D01*
X67786380Y-37936952D01*
X67738761Y-37984571D01*
X67691142Y-38079809D01*
X67691142Y-38317904D01*
X67738761Y-38413142D01*
X67786380Y-38460761D01*
X67881619Y-38508380D01*
X68119714Y-38508380D01*
X68214952Y-38460761D01*
X68262571Y-38413142D01*
%TO.C,J28*%
X50042380Y-29416476D02*
X50756666Y-29416476D01*
X50899523Y-29368857D01*
X50994761Y-29273619D01*
X51042380Y-29130761D01*
X51042380Y-29035523D01*
X50137619Y-29845047D02*
X50090000Y-29892666D01*
X50042380Y-29987904D01*
X50042380Y-30226000D01*
X50090000Y-30321238D01*
X50137619Y-30368857D01*
X50232857Y-30416476D01*
X50328095Y-30416476D01*
X50470952Y-30368857D01*
X51042380Y-29797428D01*
X51042380Y-30416476D01*
X50470952Y-30987904D02*
X50423333Y-30892666D01*
X50375714Y-30845047D01*
X50280476Y-30797428D01*
X50232857Y-30797428D01*
X50137619Y-30845047D01*
X50090000Y-30892666D01*
X50042380Y-30987904D01*
X50042380Y-31178380D01*
X50090000Y-31273619D01*
X50137619Y-31321238D01*
X50232857Y-31368857D01*
X50280476Y-31368857D01*
X50375714Y-31321238D01*
X50423333Y-31273619D01*
X50470952Y-31178380D01*
X50470952Y-30987904D01*
X50518571Y-30892666D01*
X50566190Y-30845047D01*
X50661428Y-30797428D01*
X50851904Y-30797428D01*
X50947142Y-30845047D01*
X50994761Y-30892666D01*
X51042380Y-30987904D01*
X51042380Y-31178380D01*
X50994761Y-31273619D01*
X50947142Y-31321238D01*
X50851904Y-31368857D01*
X50661428Y-31368857D01*
X50566190Y-31321238D01*
X50518571Y-31273619D01*
X50470952Y-31178380D01*
%TO.C,J31*%
X25955523Y-49446380D02*
X25955523Y-50160666D01*
X26003142Y-50303523D01*
X26098380Y-50398761D01*
X26241238Y-50446380D01*
X26336476Y-50446380D01*
X25574571Y-49446380D02*
X24955523Y-49446380D01*
X25288857Y-49827333D01*
X25146000Y-49827333D01*
X25050761Y-49874952D01*
X25003142Y-49922571D01*
X24955523Y-50017809D01*
X24955523Y-50255904D01*
X25003142Y-50351142D01*
X25050761Y-50398761D01*
X25146000Y-50446380D01*
X25431714Y-50446380D01*
X25526952Y-50398761D01*
X25574571Y-50351142D01*
X24003142Y-50446380D02*
X24574571Y-50446380D01*
X24288857Y-50446380D02*
X24288857Y-49446380D01*
X24384095Y-49589238D01*
X24479333Y-49684476D01*
X24574571Y-49732095D01*
%TO.C,J21*%
X110664523Y-76668380D02*
X110664523Y-77382666D01*
X110712142Y-77525523D01*
X110807380Y-77620761D01*
X110950238Y-77668380D01*
X111045476Y-77668380D01*
X110235952Y-76763619D02*
X110188333Y-76716000D01*
X110093095Y-76668380D01*
X109855000Y-76668380D01*
X109759761Y-76716000D01*
X109712142Y-76763619D01*
X109664523Y-76858857D01*
X109664523Y-76954095D01*
X109712142Y-77096952D01*
X110283571Y-77668380D01*
X109664523Y-77668380D01*
X108712142Y-77668380D02*
X109283571Y-77668380D01*
X108997857Y-77668380D02*
X108997857Y-76668380D01*
X109093095Y-76811238D01*
X109188333Y-76906476D01*
X109283571Y-76954095D01*
%TO.C,J22*%
X105330523Y-76668380D02*
X105330523Y-77382666D01*
X105378142Y-77525523D01*
X105473380Y-77620761D01*
X105616238Y-77668380D01*
X105711476Y-77668380D01*
X104901952Y-76763619D02*
X104854333Y-76716000D01*
X104759095Y-76668380D01*
X104521000Y-76668380D01*
X104425761Y-76716000D01*
X104378142Y-76763619D01*
X104330523Y-76858857D01*
X104330523Y-76954095D01*
X104378142Y-77096952D01*
X104949571Y-77668380D01*
X104330523Y-77668380D01*
X103949571Y-76763619D02*
X103901952Y-76716000D01*
X103806714Y-76668380D01*
X103568619Y-76668380D01*
X103473380Y-76716000D01*
X103425761Y-76763619D01*
X103378142Y-76858857D01*
X103378142Y-76954095D01*
X103425761Y-77096952D01*
X103997190Y-77668380D01*
X103378142Y-77668380D01*
%TO.C,J33*%
X25955523Y-145712380D02*
X25955523Y-146426666D01*
X26003142Y-146569523D01*
X26098380Y-146664761D01*
X26241238Y-146712380D01*
X26336476Y-146712380D01*
X25574571Y-145712380D02*
X24955523Y-145712380D01*
X25288857Y-146093333D01*
X25146000Y-146093333D01*
X25050761Y-146140952D01*
X25003142Y-146188571D01*
X24955523Y-146283809D01*
X24955523Y-146521904D01*
X25003142Y-146617142D01*
X25050761Y-146664761D01*
X25146000Y-146712380D01*
X25431714Y-146712380D01*
X25526952Y-146664761D01*
X25574571Y-146617142D01*
X24622190Y-145712380D02*
X24003142Y-145712380D01*
X24336476Y-146093333D01*
X24193619Y-146093333D01*
X24098380Y-146140952D01*
X24050761Y-146188571D01*
X24003142Y-146283809D01*
X24003142Y-146521904D01*
X24050761Y-146617142D01*
X24098380Y-146664761D01*
X24193619Y-146712380D01*
X24479333Y-146712380D01*
X24574571Y-146664761D01*
X24622190Y-146617142D01*
%TO.C,J27*%
X69643523Y-145712380D02*
X69643523Y-146426666D01*
X69691142Y-146569523D01*
X69786380Y-146664761D01*
X69929238Y-146712380D01*
X70024476Y-146712380D01*
X69214952Y-145807619D02*
X69167333Y-145760000D01*
X69072095Y-145712380D01*
X68834000Y-145712380D01*
X68738761Y-145760000D01*
X68691142Y-145807619D01*
X68643523Y-145902857D01*
X68643523Y-145998095D01*
X68691142Y-146140952D01*
X69262571Y-146712380D01*
X68643523Y-146712380D01*
X68310190Y-145712380D02*
X67643523Y-145712380D01*
X68072095Y-146712380D01*
%TO.C,J26*%
X69643523Y-72433380D02*
X69643523Y-73147666D01*
X69691142Y-73290523D01*
X69786380Y-73385761D01*
X69929238Y-73433380D01*
X70024476Y-73433380D01*
X69214952Y-72528619D02*
X69167333Y-72481000D01*
X69072095Y-72433380D01*
X68834000Y-72433380D01*
X68738761Y-72481000D01*
X68691142Y-72528619D01*
X68643523Y-72623857D01*
X68643523Y-72719095D01*
X68691142Y-72861952D01*
X69262571Y-73433380D01*
X68643523Y-73433380D01*
X67786380Y-72433380D02*
X67976857Y-72433380D01*
X68072095Y-72481000D01*
X68119714Y-72528619D01*
X68214952Y-72671476D01*
X68262571Y-72861952D01*
X68262571Y-73242904D01*
X68214952Y-73338142D01*
X68167333Y-73385761D01*
X68072095Y-73433380D01*
X67881619Y-73433380D01*
X67786380Y-73385761D01*
X67738761Y-73338142D01*
X67691142Y-73242904D01*
X67691142Y-73004809D01*
X67738761Y-72909571D01*
X67786380Y-72861952D01*
X67881619Y-72814333D01*
X68072095Y-72814333D01*
X68167333Y-72861952D01*
X68214952Y-72909571D01*
X68262571Y-73004809D01*
%TO.C,J29*%
X48434523Y-73449380D02*
X48434523Y-74163666D01*
X48482142Y-74306523D01*
X48577380Y-74401761D01*
X48720238Y-74449380D01*
X48815476Y-74449380D01*
X48005952Y-73544619D02*
X47958333Y-73497000D01*
X47863095Y-73449380D01*
X47625000Y-73449380D01*
X47529761Y-73497000D01*
X47482142Y-73544619D01*
X47434523Y-73639857D01*
X47434523Y-73735095D01*
X47482142Y-73877952D01*
X48053571Y-74449380D01*
X47434523Y-74449380D01*
X46958333Y-74449380D02*
X46767857Y-74449380D01*
X46672619Y-74401761D01*
X46625000Y-74354142D01*
X46529761Y-74211285D01*
X46482142Y-74020809D01*
X46482142Y-73639857D01*
X46529761Y-73544619D01*
X46577380Y-73497000D01*
X46672619Y-73449380D01*
X46863095Y-73449380D01*
X46958333Y-73497000D01*
X47005952Y-73544619D01*
X47053571Y-73639857D01*
X47053571Y-73877952D01*
X47005952Y-73973190D01*
X46958333Y-74020809D01*
X46863095Y-74068428D01*
X46672619Y-74068428D01*
X46577380Y-74020809D01*
X46529761Y-73973190D01*
X46482142Y-73877952D01*
D11*
%TO.C,J23*%
X76768000Y-100711000D02*
X74108000Y-100711000D01*
X76768000Y-99441000D02*
X76768000Y-98111000D01*
X76768000Y-98111000D02*
X75438000Y-98111000D01*
X76768000Y-100711000D02*
X76768000Y-103311000D01*
X76768000Y-103311000D02*
X74108000Y-103311000D01*
X74108000Y-100711000D02*
X74108000Y-103311000D01*
%TO.C,J30*%
X52130000Y-168850000D02*
X52130000Y-171510000D01*
X44450000Y-168850000D02*
X44450000Y-171510000D01*
X44450000Y-168850000D02*
X52130000Y-168850000D01*
X41850000Y-168850000D02*
X41850000Y-170180000D01*
X43180000Y-168850000D02*
X41850000Y-168850000D01*
X44450000Y-171510000D02*
X52130000Y-171510000D01*
%TO.C,J32*%
X26476000Y-80264000D02*
X26476000Y-78934000D01*
X26476000Y-81534000D02*
X26476000Y-89214000D01*
X23816000Y-81534000D02*
X23816000Y-89214000D01*
X26476000Y-81534000D02*
X23816000Y-81534000D01*
X26476000Y-89214000D02*
X23816000Y-89214000D01*
X26476000Y-78934000D02*
X25146000Y-78934000D01*
%TO.C,J24*%
X93472000Y-165040000D02*
X92142000Y-165040000D01*
X102422000Y-165040000D02*
X102422000Y-167700000D01*
X94742000Y-165040000D02*
X102422000Y-165040000D01*
X94742000Y-165040000D02*
X94742000Y-167700000D01*
X94742000Y-167700000D02*
X102422000Y-167700000D01*
X92142000Y-165040000D02*
X92142000Y-166370000D01*
%TO.C,J20*%
X155190000Y-173165000D02*
X162310000Y-173165000D01*
X154940000Y-172635000D02*
X155190000Y-173165000D01*
X154940000Y-172635000D02*
X162560000Y-172635000D01*
X156680000Y-177655000D02*
X156680000Y-177055000D01*
X153560000Y-177655000D02*
X153560000Y-171635000D01*
X154940000Y-171635000D02*
X154940000Y-172635000D01*
X155190000Y-171635000D02*
X155190000Y-172635000D01*
X162310000Y-173165000D02*
X162560000Y-172635000D01*
X153560000Y-171635000D02*
X163940000Y-171635000D01*
X154140000Y-177655000D02*
X154140000Y-177055000D01*
X160820000Y-177055000D02*
X160820000Y-177655000D01*
X156680000Y-177055000D02*
X158280000Y-177055000D01*
X154140000Y-177055000D02*
X155740000Y-177055000D01*
X162560000Y-172635000D02*
X162560000Y-171635000D01*
X159220000Y-177055000D02*
X160820000Y-177055000D01*
X159220000Y-177655000D02*
X159220000Y-177055000D01*
X163360000Y-177055000D02*
X163360000Y-177655000D01*
X155740000Y-177055000D02*
X155740000Y-177655000D01*
X163940000Y-171635000D02*
X163940000Y-177655000D01*
X163940000Y-177655000D02*
X153560000Y-177655000D01*
X161760000Y-177055000D02*
X163360000Y-177055000D01*
X162310000Y-171635000D02*
X162310000Y-172635000D01*
X161760000Y-177655000D02*
X161760000Y-177055000D01*
X153270000Y-176625000D02*
X153270000Y-172625000D01*
X158280000Y-177055000D02*
X158280000Y-177655000D01*
%TO.C,J25*%
X67504000Y-41656000D02*
X67504000Y-44256000D01*
X70164000Y-40386000D02*
X70164000Y-39056000D01*
X70164000Y-44256000D02*
X67504000Y-44256000D01*
X70164000Y-41656000D02*
X67504000Y-41656000D01*
X70164000Y-39056000D02*
X68834000Y-39056000D01*
X70164000Y-41656000D02*
X70164000Y-44256000D01*
%TO.C,J28*%
X48260000Y-31556000D02*
X49590000Y-31556000D01*
X46990000Y-31556000D02*
X44390000Y-31556000D01*
X44390000Y-31556000D02*
X44390000Y-28896000D01*
X46990000Y-31556000D02*
X46990000Y-28896000D01*
X49590000Y-31556000D02*
X49590000Y-30226000D01*
X46990000Y-28896000D02*
X44390000Y-28896000D01*
%TO.C,J31*%
X26476000Y-53594000D02*
X26476000Y-56194000D01*
X26476000Y-50994000D02*
X25146000Y-50994000D01*
X23816000Y-53594000D02*
X23816000Y-56194000D01*
X26476000Y-53594000D02*
X23816000Y-53594000D01*
X26476000Y-56194000D02*
X23816000Y-56194000D01*
X26476000Y-52324000D02*
X26476000Y-50994000D01*
%TO.C,J21*%
X107890000Y-81086000D02*
X107890000Y-78426000D01*
X110490000Y-81086000D02*
X110490000Y-78426000D01*
X111760000Y-81086000D02*
X113090000Y-81086000D01*
X110490000Y-81086000D02*
X107890000Y-81086000D01*
X110490000Y-78426000D02*
X107890000Y-78426000D01*
X113090000Y-81086000D02*
X113090000Y-79756000D01*
%TO.C,J22*%
X104140000Y-81086000D02*
X104140000Y-78426000D01*
X106740000Y-81086000D02*
X106740000Y-79756000D01*
X101540000Y-81086000D02*
X101540000Y-78426000D01*
X104140000Y-78426000D02*
X101540000Y-78426000D01*
X105410000Y-81086000D02*
X106740000Y-81086000D01*
X104140000Y-81086000D02*
X101540000Y-81086000D01*
%TO.C,J33*%
X26476000Y-147260000D02*
X25146000Y-147260000D01*
X26476000Y-149860000D02*
X26476000Y-162620000D01*
X26476000Y-162620000D02*
X23816000Y-162620000D01*
X23816000Y-149860000D02*
X23816000Y-162620000D01*
X26476000Y-148590000D02*
X26476000Y-147260000D01*
X26476000Y-149860000D02*
X23816000Y-149860000D01*
%TO.C,J27*%
X70164000Y-149860000D02*
X70164000Y-162620000D01*
X70164000Y-148590000D02*
X70164000Y-147260000D01*
X67504000Y-149860000D02*
X67504000Y-162620000D01*
X70164000Y-147260000D02*
X68834000Y-147260000D01*
X70164000Y-149860000D02*
X67504000Y-149860000D01*
X70164000Y-162620000D02*
X67504000Y-162620000D01*
D12*
%TO.C,H19*%
X133079201Y-77759797D02*
X132509062Y-77873106D01*
X132509062Y-77873106D02*
X132161672Y-77974846D01*
X132161672Y-77974846D02*
X131600132Y-78195058D01*
X131600132Y-78195058D02*
X131068343Y-78473445D01*
X131068343Y-78473445D02*
X130570563Y-78805717D01*
X130570563Y-78805717D02*
X130111049Y-79187585D01*
X130111049Y-79187585D02*
X129694056Y-79614760D01*
X129694056Y-79614760D02*
X129323843Y-80082952D01*
X129323843Y-80082952D02*
X129004666Y-80587872D01*
X129004666Y-80587872D02*
X128740782Y-81125229D01*
X128740782Y-81125229D02*
X128564696Y-81599380D01*
X128564696Y-81599380D02*
X128406567Y-82204990D01*
X128406567Y-82204990D02*
X128314390Y-82819950D01*
X128314390Y-82819950D02*
X128287780Y-83439934D01*
X128287780Y-83439934D02*
X128326351Y-84060615D01*
X128326351Y-84060615D02*
X128429717Y-84677669D01*
X128429717Y-84677669D02*
X128597493Y-85286767D01*
X128597493Y-85286767D02*
X128829293Y-85883585D01*
X128829293Y-85883585D02*
X128973547Y-86184792D01*
X128973547Y-86184792D02*
X129304007Y-86759105D01*
X129304007Y-86759105D02*
X129685502Y-87291309D01*
X129685502Y-87291309D02*
X130114432Y-87778669D01*
X130114432Y-87778669D02*
X130587198Y-88218449D01*
X130587198Y-88218449D02*
X131100201Y-88607913D01*
X131100201Y-88607913D02*
X131649840Y-88944326D01*
X131649840Y-88944326D02*
X132232515Y-89224954D01*
X132232515Y-89224954D02*
X132844628Y-89447060D01*
X132844628Y-89447060D02*
X133476629Y-89606721D01*
X133476629Y-89606721D02*
X133714762Y-89651242D01*
X133714762Y-89651242D02*
X133931191Y-89685760D01*
X133931191Y-89685760D02*
X134116619Y-89709246D01*
X134116619Y-89709246D02*
X134261747Y-89720669D01*
X134261747Y-89720669D02*
X134357280Y-89718998D01*
X134357280Y-89718998D02*
X134391230Y-89708103D01*
X134391230Y-89708103D02*
X134396232Y-89670104D01*
X134396232Y-89670104D02*
X134400909Y-89570944D01*
X134400909Y-89570944D02*
X134405163Y-89417195D01*
X134405163Y-89417195D02*
X134408897Y-89215429D01*
X134408897Y-89215429D02*
X134412012Y-88972218D01*
X134412012Y-88972218D02*
X134414409Y-88694133D01*
X134414409Y-88694133D02*
X134415992Y-88387748D01*
X134415992Y-88387748D02*
X134416662Y-88059634D01*
X134416662Y-88059634D02*
X134416678Y-88003002D01*
X134416678Y-88003002D02*
X134416726Y-86323780D01*
X134416726Y-86323780D02*
X134899278Y-86319638D01*
X134899278Y-86319638D02*
X135270825Y-86302497D01*
X135270825Y-86302497D02*
X135603225Y-86254387D01*
X135603225Y-86254387D02*
X135920015Y-86169995D01*
X135920015Y-86169995D02*
X136244731Y-86044012D01*
X136244731Y-86044012D02*
X136364891Y-85988977D01*
X136364891Y-85988977D02*
X136718381Y-85794184D01*
X136718381Y-85794184D02*
X136279297Y-85794184D01*
X136279297Y-85794184D02*
X136248343Y-85826546D01*
X136248343Y-85826546D02*
X136163759Y-85869674D01*
X136163759Y-85869674D02*
X136037960Y-85919309D01*
X136037960Y-85919309D02*
X135883360Y-85971189D01*
X135883360Y-85971189D02*
X135712375Y-86021054D01*
X135712375Y-86021054D02*
X135537420Y-86064644D01*
X135537420Y-86064644D02*
X135420431Y-86088919D01*
X135420431Y-86088919D02*
X135307701Y-86104182D01*
X135307701Y-86104182D02*
X135161986Y-86115675D01*
X135161986Y-86115675D02*
X134998274Y-86123222D01*
X134998274Y-86123222D02*
X134831550Y-86126648D01*
X134831550Y-86126648D02*
X134676800Y-86125777D01*
X134676800Y-86125777D02*
X134549012Y-86120434D01*
X134549012Y-86120434D02*
X134463170Y-86110443D01*
X134463170Y-86110443D02*
X134435927Y-86100453D01*
X134435927Y-86100453D02*
X134431864Y-86063366D01*
X134431864Y-86063366D02*
X134428488Y-85965660D01*
X134428488Y-85965660D02*
X134425854Y-85814446D01*
X134425854Y-85814446D02*
X134424017Y-85616835D01*
X134424017Y-85616835D02*
X134423032Y-85379938D01*
X134423032Y-85379938D02*
X134423010Y-85303808D01*
X134423010Y-85303808D02*
X132427788Y-85303808D01*
X132427788Y-85303808D02*
X132393795Y-85354566D01*
X132393795Y-85354566D02*
X132326207Y-85450435D01*
X132326207Y-85450435D02*
X132229796Y-85584923D01*
X132229796Y-85584923D02*
X132109332Y-85751541D01*
X132109332Y-85751541D02*
X131969588Y-85943797D01*
X131969588Y-85943797D02*
X131815336Y-86155201D01*
X131815336Y-86155201D02*
X131651346Y-86379263D01*
X131651346Y-86379263D02*
X131482390Y-86609492D01*
X131482390Y-86609492D02*
X131313241Y-86839397D01*
X131313241Y-86839397D02*
X131148668Y-87062489D01*
X131148668Y-87062489D02*
X130993445Y-87272276D01*
X130993445Y-87272276D02*
X130852343Y-87462269D01*
X130852343Y-87462269D02*
X130730133Y-87625976D01*
X130730133Y-87625976D02*
X130631586Y-87756907D01*
X130631586Y-87756907D02*
X130561475Y-87848572D01*
X130561475Y-87848572D02*
X130524571Y-87894480D01*
X130524571Y-87894480D02*
X130520210Y-87898580D01*
X130520210Y-87898580D02*
X130488497Y-87875507D01*
X130488497Y-87875507D02*
X130421551Y-87813237D01*
X130421551Y-87813237D02*
X130330243Y-87722191D01*
X130330243Y-87722191D02*
X130257333Y-87646581D01*
X130257333Y-87646581D02*
X129825413Y-87147052D01*
X129825413Y-87147052D02*
X129450237Y-86618747D01*
X129450237Y-86618747D02*
X129134438Y-86066158D01*
X129134438Y-86066158D02*
X128880649Y-85493778D01*
X128880649Y-85493778D02*
X128727178Y-85035586D01*
X128727178Y-85035586D02*
X128668199Y-84831126D01*
X128668199Y-84831126D02*
X130222122Y-84327716D01*
X130222122Y-84327716D02*
X130532038Y-84227662D01*
X130532038Y-84227662D02*
X130821829Y-84134777D01*
X130821829Y-84134777D02*
X131085231Y-84051020D01*
X131085231Y-84051020D02*
X131315978Y-83978351D01*
X131315978Y-83978351D02*
X131507805Y-83918732D01*
X131507805Y-83918732D02*
X131654449Y-83874122D01*
X131654449Y-83874122D02*
X131749643Y-83846482D01*
X131749643Y-83846482D02*
X131787123Y-83837772D01*
X131787123Y-83837772D02*
X131787414Y-83837910D01*
X131787414Y-83837910D02*
X131800525Y-83875162D01*
X131800525Y-83875162D02*
X131824393Y-83960500D01*
X131824393Y-83960500D02*
X131854062Y-84076123D01*
X131854062Y-84076123D02*
X131856692Y-84086773D01*
X131856692Y-84086773D02*
X131957570Y-84397344D01*
X131957570Y-84397344D02*
X132106332Y-84717898D01*
X132106332Y-84717898D02*
X132292016Y-85024874D01*
X132292016Y-85024874D02*
X132295480Y-85029914D01*
X132295480Y-85029914D02*
X132378157Y-85159934D01*
X132378157Y-85159934D02*
X132423320Y-85253999D01*
X132423320Y-85253999D02*
X132427788Y-85303808D01*
X132427788Y-85303808D02*
X134423010Y-85303808D01*
X134423010Y-85303808D02*
X134422954Y-85110866D01*
X134422954Y-85110866D02*
X134423837Y-84816731D01*
X134423837Y-84816731D02*
X134424725Y-84651266D01*
X134424725Y-84651266D02*
X134433563Y-83222206D01*
X134433563Y-83222206D02*
X135356430Y-84491363D01*
X135356430Y-84491363D02*
X135544233Y-84750342D01*
X135544233Y-84750342D02*
X135719210Y-84992996D01*
X135719210Y-84992996D02*
X135877420Y-85213763D01*
X135877420Y-85213763D02*
X136014924Y-85407082D01*
X136014924Y-85407082D02*
X136127780Y-85567389D01*
X136127780Y-85567389D02*
X136212051Y-85689123D01*
X136212051Y-85689123D02*
X136263794Y-85766721D01*
X136263794Y-85766721D02*
X136279297Y-85794184D01*
X136279297Y-85794184D02*
X136718381Y-85794184D01*
X136718381Y-85794184D02*
X136822638Y-85736733D01*
X136822638Y-85736733D02*
X137233547Y-85438089D01*
X137233547Y-85438089D02*
X137595816Y-85097231D01*
X137595816Y-85097231D02*
X137907646Y-84718349D01*
X137907646Y-84718349D02*
X138167236Y-84305632D01*
X138167236Y-84305632D02*
X138372787Y-83863268D01*
X138372787Y-83863268D02*
X138522496Y-83395446D01*
X138522496Y-83395446D02*
X138614566Y-82906354D01*
X138614566Y-82906354D02*
X138647194Y-82400182D01*
X138647194Y-82400182D02*
X138642422Y-82313606D01*
X138642422Y-82313606D02*
X138445960Y-82313606D01*
X138445960Y-82313606D02*
X138441712Y-82516717D01*
X138441712Y-82516717D02*
X138429644Y-82720850D01*
X138429644Y-82720850D02*
X138409452Y-82914932D01*
X138409452Y-82914932D02*
X138396197Y-83004847D01*
X138396197Y-83004847D02*
X138358355Y-83202690D01*
X138358355Y-83202690D02*
X138311548Y-83399236D01*
X138311548Y-83399236D02*
X138259335Y-83583977D01*
X138259335Y-83583977D02*
X138205275Y-83746402D01*
X138205275Y-83746402D02*
X138152927Y-83876002D01*
X138152927Y-83876002D02*
X138105849Y-83962270D01*
X138105849Y-83962270D02*
X138067600Y-83994694D01*
X138067600Y-83994694D02*
X138061319Y-83993792D01*
X138061319Y-83993792D02*
X138022482Y-83980867D01*
X138022482Y-83980867D02*
X137925544Y-83949119D01*
X137925544Y-83949119D02*
X137776838Y-83900609D01*
X137776838Y-83900609D02*
X137582695Y-83837398D01*
X137582695Y-83837398D02*
X137349449Y-83761545D01*
X137349449Y-83761545D02*
X137083432Y-83675111D01*
X137083432Y-83675111D02*
X136790977Y-83580157D01*
X136790977Y-83580157D02*
X136478416Y-83478741D01*
X136478416Y-83478741D02*
X136431697Y-83463588D01*
X136431697Y-83463588D02*
X136117630Y-83361537D01*
X136117630Y-83361537D02*
X135823522Y-83265606D01*
X135823522Y-83265606D02*
X135555591Y-83177848D01*
X135555591Y-83177848D02*
X135320054Y-83100318D01*
X135320054Y-83100318D02*
X135314224Y-83098386D01*
X135314224Y-83098386D02*
X134035366Y-83098386D01*
X134035366Y-83098386D02*
X133322661Y-84076948D01*
X133322661Y-84076948D02*
X133157411Y-84302176D01*
X133157411Y-84302176D02*
X133003722Y-84508463D01*
X133003722Y-84508463D02*
X132866299Y-84689735D01*
X132866299Y-84689735D02*
X132749848Y-84839918D01*
X132749848Y-84839918D02*
X132659074Y-84952937D01*
X132659074Y-84952937D02*
X132598683Y-85022721D01*
X132598683Y-85022721D02*
X132573829Y-85043469D01*
X132573829Y-85043469D02*
X132538750Y-85011181D01*
X132538750Y-85011181D02*
X132478992Y-84936809D01*
X132478992Y-84936809D02*
X132406415Y-84835300D01*
X132406415Y-84835300D02*
X132393436Y-84816093D01*
X132393436Y-84816093D02*
X132288647Y-84638580D01*
X132288647Y-84638580D02*
X132190076Y-84433847D01*
X132190076Y-84433847D02*
X132106600Y-84223709D01*
X132106600Y-84223709D02*
X132047095Y-84029981D01*
X132047095Y-84029981D02*
X132023274Y-83906385D01*
X132023274Y-83906385D02*
X132004817Y-83749914D01*
X132004817Y-83749914D02*
X132677323Y-83533305D01*
X132677323Y-83533305D02*
X132906954Y-83459407D01*
X132906954Y-83459407D02*
X133140402Y-83384393D01*
X133140402Y-83384393D02*
X133360588Y-83313744D01*
X133360588Y-83313744D02*
X133550433Y-83252939D01*
X133550433Y-83252939D02*
X133692598Y-83207541D01*
X133692598Y-83207541D02*
X134035366Y-83098386D01*
X134035366Y-83098386D02*
X135314224Y-83098386D01*
X135314224Y-83098386D02*
X135123127Y-83035067D01*
X135123127Y-83035067D02*
X134971028Y-82984151D01*
X134971028Y-82984151D02*
X134869973Y-82949623D01*
X134869973Y-82949623D02*
X134826181Y-82933537D01*
X134826181Y-82933537D02*
X134824912Y-82932820D01*
X134824912Y-82932820D02*
X134819817Y-82912269D01*
X134819817Y-82912269D02*
X134844205Y-82885427D01*
X134844205Y-82885427D02*
X134901934Y-82850828D01*
X134901934Y-82850828D02*
X134996864Y-82807004D01*
X134996864Y-82807004D02*
X135132855Y-82752489D01*
X135132855Y-82752489D02*
X135313767Y-82685816D01*
X135313767Y-82685816D02*
X135382567Y-82661764D01*
X135382567Y-82661764D02*
X134010230Y-82661764D01*
X134010230Y-82661764D02*
X133979816Y-82655074D01*
X133979816Y-82655074D02*
X133895623Y-82630633D01*
X133895623Y-82630633D02*
X133768223Y-82591823D01*
X133768223Y-82591823D02*
X133608189Y-82542026D01*
X133608189Y-82542026D02*
X133426095Y-82484625D01*
X133426095Y-82484625D02*
X133232513Y-82423000D01*
X133232513Y-82423000D02*
X133038017Y-82360535D01*
X133038017Y-82360535D02*
X132853178Y-82300611D01*
X132853178Y-82300611D02*
X132688571Y-82246609D01*
X132688571Y-82246609D02*
X132554767Y-82201913D01*
X132554767Y-82201913D02*
X132462340Y-82169903D01*
X132462340Y-82169903D02*
X132421863Y-82153962D01*
X132421863Y-82153962D02*
X132421186Y-82153481D01*
X132421186Y-82153481D02*
X132429047Y-82120207D01*
X132429047Y-82120207D02*
X132482600Y-82059218D01*
X132482600Y-82059218D02*
X132570534Y-81979382D01*
X132570534Y-81979382D02*
X132681536Y-81889566D01*
X132681536Y-81889566D02*
X132804294Y-81798640D01*
X132804294Y-81798640D02*
X132927496Y-81715470D01*
X132927496Y-81715470D02*
X133039830Y-81648925D01*
X133039830Y-81648925D02*
X133105115Y-81617327D01*
X133105115Y-81617327D02*
X133224417Y-81567479D01*
X133224417Y-81567479D02*
X133617324Y-82108394D01*
X133617324Y-82108394D02*
X133737673Y-82274680D01*
X133737673Y-82274680D02*
X133843119Y-82421524D01*
X133843119Y-82421524D02*
X133927634Y-82540437D01*
X133927634Y-82540437D02*
X133985191Y-82622929D01*
X133985191Y-82622929D02*
X134009762Y-82660510D01*
X134009762Y-82660510D02*
X134010230Y-82661764D01*
X134010230Y-82661764D02*
X135382567Y-82661764D01*
X135382567Y-82661764D02*
X135543458Y-82605518D01*
X135543458Y-82605518D02*
X135825788Y-82510127D01*
X135825788Y-82510127D02*
X136164618Y-82398178D01*
X136164618Y-82398178D02*
X136563806Y-82268203D01*
X136563806Y-82268203D02*
X136629546Y-82246926D01*
X136629546Y-82246926D02*
X136954193Y-82142184D01*
X136954193Y-82142184D02*
X137108411Y-82092679D01*
X137108411Y-82092679D02*
X134764315Y-82092679D01*
X134764315Y-82092679D02*
X134599337Y-82320163D01*
X134599337Y-82320163D02*
X134522833Y-82424287D01*
X134522833Y-82424287D02*
X134462855Y-82503356D01*
X134462855Y-82503356D02*
X134429200Y-82544548D01*
X134429200Y-82544548D02*
X134425494Y-82547647D01*
X134425494Y-82547647D02*
X134422205Y-82515871D01*
X134422205Y-82515871D02*
X134419468Y-82428905D01*
X134419468Y-82428905D02*
X134417535Y-82299290D01*
X134417535Y-82299290D02*
X134416657Y-82139570D01*
X134416657Y-82139570D02*
X134416630Y-82105074D01*
X134416630Y-82105074D02*
X134416630Y-81662501D01*
X134416630Y-81662501D02*
X134512633Y-81730861D01*
X134512633Y-81730861D02*
X134587847Y-81803673D01*
X134587847Y-81803673D02*
X134663015Y-81905585D01*
X134663015Y-81905585D02*
X134686475Y-81945950D01*
X134686475Y-81945950D02*
X134764315Y-82092679D01*
X134764315Y-82092679D02*
X137108411Y-82092679D01*
X137108411Y-82092679D02*
X137259935Y-82044039D01*
X137259935Y-82044039D02*
X137540611Y-81954437D01*
X137540611Y-81954437D02*
X137790063Y-81875318D01*
X137790063Y-81875318D02*
X138002130Y-81808626D01*
X138002130Y-81808626D02*
X138170654Y-81756303D01*
X138170654Y-81756303D02*
X138289474Y-81720293D01*
X138289474Y-81720293D02*
X138352431Y-81702537D01*
X138352431Y-81702537D02*
X138360495Y-81700980D01*
X138360495Y-81700980D02*
X138390804Y-81732868D01*
X138390804Y-81732868D02*
X138414808Y-81821149D01*
X138414808Y-81821149D02*
X138432204Y-81954748D01*
X138432204Y-81954748D02*
X138442689Y-82122592D01*
X138442689Y-82122592D02*
X138445960Y-82313606D01*
X138445960Y-82313606D02*
X138642422Y-82313606D01*
X138642422Y-82313606D02*
X138618581Y-81881116D01*
X138618581Y-81881116D02*
X138526926Y-81353348D01*
X138526926Y-81353348D02*
X138462841Y-81107911D01*
X138462841Y-81107911D02*
X138292454Y-80634189D01*
X138292454Y-80634189D02*
X138061264Y-80171467D01*
X138061264Y-80171467D02*
X137776168Y-79728604D01*
X137776168Y-79728604D02*
X137444064Y-79314458D01*
X137444064Y-79314458D02*
X137231064Y-79098966D01*
X137231064Y-79098966D02*
X136922764Y-79098966D01*
X136922764Y-79098966D02*
X136903670Y-79129525D01*
X136903670Y-79129525D02*
X136849418Y-79208436D01*
X136849418Y-79208436D02*
X136764556Y-79329383D01*
X136764556Y-79329383D02*
X136653627Y-79486051D01*
X136653627Y-79486051D02*
X136521178Y-79672124D01*
X136521178Y-79672124D02*
X136371755Y-79881287D01*
X136371755Y-79881287D02*
X136209904Y-80107225D01*
X136209904Y-80107225D02*
X136040169Y-80343623D01*
X136040169Y-80343623D02*
X135867097Y-80584164D01*
X135867097Y-80584164D02*
X135695234Y-80822535D01*
X135695234Y-80822535D02*
X135529126Y-81052419D01*
X135529126Y-81052419D02*
X135373317Y-81267501D01*
X135373317Y-81267501D02*
X135232354Y-81461466D01*
X135232354Y-81461466D02*
X135110783Y-81627998D01*
X135110783Y-81627998D02*
X135013149Y-81760782D01*
X135013149Y-81760782D02*
X134943998Y-81853503D01*
X134943998Y-81853503D02*
X134907876Y-81899845D01*
X134907876Y-81899845D02*
X134903731Y-81903984D01*
X134903731Y-81903984D02*
X134884593Y-81878703D01*
X134884593Y-81878703D02*
X134840493Y-81814288D01*
X134840493Y-81814288D02*
X134812335Y-81772066D01*
X134812335Y-81772066D02*
X134731126Y-81672933D01*
X134731126Y-81672933D02*
X134624224Y-81571247D01*
X134624224Y-81571247D02*
X134570768Y-81529258D01*
X134570768Y-81529258D02*
X134416630Y-81418565D01*
X134416630Y-81418565D02*
X134416630Y-81390255D01*
X134416630Y-81390255D02*
X133096000Y-81390255D01*
X133096000Y-81390255D02*
X132872266Y-81515375D01*
X132872266Y-81515375D02*
X132738550Y-81601002D01*
X132738550Y-81601002D02*
X132587356Y-81714273D01*
X132587356Y-81714273D02*
X132447466Y-81833354D01*
X132447466Y-81833354D02*
X132423448Y-81855877D01*
X132423448Y-81855877D02*
X132321728Y-81950562D01*
X132321728Y-81950562D02*
X132237242Y-82024301D01*
X132237242Y-82024301D02*
X132182429Y-82066467D01*
X132182429Y-82066467D02*
X132170072Y-82072387D01*
X132170072Y-82072387D02*
X132133150Y-82062445D01*
X132133150Y-82062445D02*
X132038182Y-82033504D01*
X132038182Y-82033504D02*
X131891513Y-81987586D01*
X131891513Y-81987586D02*
X131699487Y-81926709D01*
X131699487Y-81926709D02*
X131468447Y-81852896D01*
X131468447Y-81852896D02*
X131204739Y-81768165D01*
X131204739Y-81768165D02*
X130914705Y-81674537D01*
X130914705Y-81674537D02*
X130604690Y-81574033D01*
X130604690Y-81574033D02*
X130582456Y-81566809D01*
X130582456Y-81566809D02*
X130271713Y-81465631D01*
X130271713Y-81465631D02*
X129980987Y-81370583D01*
X129980987Y-81370583D02*
X129716557Y-81283744D01*
X129716557Y-81283744D02*
X129484704Y-81207196D01*
X129484704Y-81207196D02*
X129291709Y-81143019D01*
X129291709Y-81143019D02*
X129143852Y-81093294D01*
X129143852Y-81093294D02*
X129047413Y-81060103D01*
X129047413Y-81060103D02*
X129008672Y-81045525D01*
X129008672Y-81045525D02*
X129008271Y-81045243D01*
X129008271Y-81045243D02*
X129013325Y-81006121D01*
X129013325Y-81006121D02*
X129049733Y-80920714D01*
X129049733Y-80920714D02*
X129111914Y-80799514D01*
X129111914Y-80799514D02*
X129194288Y-80653015D01*
X129194288Y-80653015D02*
X129291276Y-80491709D01*
X129291276Y-80491709D02*
X129361912Y-80380180D01*
X129361912Y-80380180D02*
X129597369Y-80046980D01*
X129597369Y-80046980D02*
X129865380Y-79719856D01*
X129865380Y-79719856D02*
X130145279Y-79423299D01*
X130145279Y-79423299D02*
X130262312Y-79312935D01*
X130262312Y-79312935D02*
X130397025Y-79195804D01*
X130397025Y-79195804D02*
X130544302Y-79075806D01*
X130544302Y-79075806D02*
X130693775Y-78960465D01*
X130693775Y-78960465D02*
X130835074Y-78857307D01*
X130835074Y-78857307D02*
X130957833Y-78773854D01*
X130957833Y-78773854D02*
X131051682Y-78717632D01*
X131051682Y-78717632D02*
X131106254Y-78696164D01*
X131106254Y-78696164D02*
X131111492Y-78696687D01*
X131111492Y-78696687D02*
X131137179Y-78725168D01*
X131137179Y-78725168D02*
X131198015Y-78802199D01*
X131198015Y-78802199D02*
X131289369Y-78921507D01*
X131289369Y-78921507D02*
X131406606Y-79076824D01*
X131406606Y-79076824D02*
X131545093Y-79261879D01*
X131545093Y-79261879D02*
X131700196Y-79470402D01*
X131700196Y-79470402D02*
X131867283Y-79696123D01*
X131867283Y-79696123D02*
X132041720Y-79932771D01*
X132041720Y-79932771D02*
X132218873Y-80174077D01*
X132218873Y-80174077D02*
X132394109Y-80413771D01*
X132394109Y-80413771D02*
X132562795Y-80645581D01*
X132562795Y-80645581D02*
X132720297Y-80863239D01*
X132720297Y-80863239D02*
X132861983Y-81060474D01*
X132861983Y-81060474D02*
X132960220Y-81198484D01*
X132960220Y-81198484D02*
X133096000Y-81390255D01*
X133096000Y-81390255D02*
X134416630Y-81390255D01*
X134416630Y-81390255D02*
X134416630Y-79680172D01*
X134416630Y-79680172D02*
X134417241Y-79238000D01*
X134417241Y-79238000D02*
X134419089Y-78862497D01*
X134419089Y-78862497D02*
X134422196Y-78552608D01*
X134422196Y-78552608D02*
X134426581Y-78307279D01*
X134426581Y-78307279D02*
X134432268Y-78125458D01*
X134432268Y-78125458D02*
X134439277Y-78006089D01*
X134439277Y-78006089D02*
X134447629Y-77948119D01*
X134447629Y-77948119D02*
X134451925Y-77941780D01*
X134451925Y-77941780D02*
X134500093Y-77948093D01*
X134500093Y-77948093D02*
X134595781Y-77964811D01*
X134595781Y-77964811D02*
X134720184Y-77988610D01*
X134720184Y-77988610D02*
X134748258Y-77994208D01*
X134748258Y-77994208D02*
X135244790Y-78123852D01*
X135244790Y-78123852D02*
X135733135Y-78308923D01*
X135733135Y-78308923D02*
X136193104Y-78541210D01*
X136193104Y-78541210D02*
X136389612Y-78661663D01*
X136389612Y-78661663D02*
X136567255Y-78782135D01*
X136567255Y-78782135D02*
X136717273Y-78893063D01*
X136717273Y-78893063D02*
X136831716Y-78987928D01*
X136831716Y-78987928D02*
X136902637Y-79060211D01*
X136902637Y-79060211D02*
X136922764Y-79098966D01*
X136922764Y-79098966D02*
X137231064Y-79098966D01*
X137231064Y-79098966D02*
X137071848Y-78937888D01*
X137071848Y-78937888D02*
X136666418Y-78607754D01*
X136666418Y-78607754D02*
X136357311Y-78403481D01*
X136357311Y-78403481D02*
X135854935Y-78141393D01*
X135854935Y-78141393D02*
X135327772Y-77940492D01*
X135327772Y-77940492D02*
X134781221Y-77801331D01*
X134781221Y-77801331D02*
X134220677Y-77724460D01*
X134220677Y-77724460D02*
X133651538Y-77710432D01*
X133651538Y-77710432D02*
X133079201Y-77759797D01*
X133079201Y-77759797D02*
X133079201Y-77759797D01*
G36*
X138614566Y-82906354D02*
G01*
X138522496Y-83395446D01*
X138372787Y-83863268D01*
X138167236Y-84305632D01*
X137907646Y-84718349D01*
X137595816Y-85097231D01*
X137233547Y-85438089D01*
X136822638Y-85736733D01*
X136718381Y-85794184D01*
X136364891Y-85988977D01*
X136244731Y-86044012D01*
X135920015Y-86169995D01*
X135603225Y-86254387D01*
X135270825Y-86302497D01*
X134899278Y-86319638D01*
X134416726Y-86323780D01*
X134416678Y-88003002D01*
X134416662Y-88059634D01*
X134415992Y-88387748D01*
X134414409Y-88694133D01*
X134412012Y-88972218D01*
X134408897Y-89215429D01*
X134405163Y-89417195D01*
X134400909Y-89570944D01*
X134396232Y-89670104D01*
X134391230Y-89708103D01*
X134357280Y-89718998D01*
X134261747Y-89720669D01*
X134116619Y-89709246D01*
X133931191Y-89685760D01*
X133714762Y-89651242D01*
X133476629Y-89606721D01*
X132844628Y-89447060D01*
X132232515Y-89224954D01*
X131649840Y-88944326D01*
X131100201Y-88607913D01*
X130587198Y-88218449D01*
X130114432Y-87778669D01*
X129685502Y-87291309D01*
X129304007Y-86759105D01*
X128973547Y-86184792D01*
X128829293Y-85883585D01*
X128597493Y-85286767D01*
X128471987Y-84831126D01*
X128668199Y-84831126D01*
X128727178Y-85035586D01*
X128880649Y-85493778D01*
X129134438Y-86066158D01*
X129450237Y-86618747D01*
X129825413Y-87147052D01*
X130257333Y-87646581D01*
X130330243Y-87722191D01*
X130421551Y-87813237D01*
X130488497Y-87875507D01*
X130520210Y-87898580D01*
X130524571Y-87894480D01*
X130561475Y-87848572D01*
X130631586Y-87756907D01*
X130730133Y-87625976D01*
X130852343Y-87462269D01*
X130993445Y-87272276D01*
X131148668Y-87062489D01*
X131313241Y-86839397D01*
X131482390Y-86609492D01*
X131651346Y-86379263D01*
X131815336Y-86155201D01*
X131969588Y-85943797D01*
X132109332Y-85751541D01*
X132229796Y-85584923D01*
X132326207Y-85450435D01*
X132393795Y-85354566D01*
X132427788Y-85303808D01*
X132423320Y-85253999D01*
X132378157Y-85159934D01*
X132346956Y-85110866D01*
X134422954Y-85110866D01*
X134423010Y-85303808D01*
X134423032Y-85379938D01*
X134424017Y-85616835D01*
X134425854Y-85814446D01*
X134428488Y-85965660D01*
X134431864Y-86063366D01*
X134435927Y-86100453D01*
X134463170Y-86110443D01*
X134549012Y-86120434D01*
X134676800Y-86125777D01*
X134831550Y-86126648D01*
X134998274Y-86123222D01*
X135161986Y-86115675D01*
X135307701Y-86104182D01*
X135420431Y-86088919D01*
X135537420Y-86064644D01*
X135712375Y-86021054D01*
X135883360Y-85971189D01*
X136037960Y-85919309D01*
X136163759Y-85869674D01*
X136248343Y-85826546D01*
X136279297Y-85794184D01*
X136263794Y-85766721D01*
X136212051Y-85689123D01*
X136127780Y-85567389D01*
X136014924Y-85407082D01*
X135877420Y-85213763D01*
X135719210Y-84992996D01*
X135544233Y-84750342D01*
X135356430Y-84491363D01*
X134433563Y-83222206D01*
X134424725Y-84651266D01*
X134423837Y-84816731D01*
X134422954Y-85110866D01*
X132346956Y-85110866D01*
X132295480Y-85029914D01*
X132292016Y-85024874D01*
X132106332Y-84717898D01*
X131957570Y-84397344D01*
X131856692Y-84086773D01*
X131854062Y-84076123D01*
X131824393Y-83960500D01*
X131800525Y-83875162D01*
X131787414Y-83837910D01*
X131787123Y-83837772D01*
X131749643Y-83846482D01*
X131654449Y-83874122D01*
X131507805Y-83918732D01*
X131315978Y-83978351D01*
X131085231Y-84051020D01*
X130821829Y-84134777D01*
X130532038Y-84227662D01*
X130222122Y-84327716D01*
X128668199Y-84831126D01*
X128471987Y-84831126D01*
X128429717Y-84677669D01*
X128326351Y-84060615D01*
X128307043Y-83749914D01*
X132004817Y-83749914D01*
X132023274Y-83906385D01*
X132047095Y-84029981D01*
X132106600Y-84223709D01*
X132190076Y-84433847D01*
X132288647Y-84638580D01*
X132393436Y-84816093D01*
X132406415Y-84835300D01*
X132478992Y-84936809D01*
X132538750Y-85011181D01*
X132573829Y-85043469D01*
X132598683Y-85022721D01*
X132659074Y-84952937D01*
X132749848Y-84839918D01*
X132866299Y-84689735D01*
X133003722Y-84508463D01*
X133157411Y-84302176D01*
X133322661Y-84076948D01*
X134035366Y-83098386D01*
X133692598Y-83207541D01*
X133550433Y-83252939D01*
X133360588Y-83313744D01*
X133140402Y-83384393D01*
X132906954Y-83459407D01*
X132677323Y-83533305D01*
X132004817Y-83749914D01*
X128307043Y-83749914D01*
X128287780Y-83439934D01*
X128310428Y-82912269D01*
X134819817Y-82912269D01*
X134824912Y-82932820D01*
X134826181Y-82933537D01*
X134869973Y-82949623D01*
X134971028Y-82984151D01*
X135123127Y-83035067D01*
X135314224Y-83098386D01*
X135320054Y-83100318D01*
X135555591Y-83177848D01*
X135823522Y-83265606D01*
X136117630Y-83361537D01*
X136431697Y-83463588D01*
X136478416Y-83478741D01*
X136790977Y-83580157D01*
X137083432Y-83675111D01*
X137349449Y-83761545D01*
X137582695Y-83837398D01*
X137776838Y-83900609D01*
X137925544Y-83949119D01*
X138022482Y-83980867D01*
X138061319Y-83993792D01*
X138067600Y-83994694D01*
X138105849Y-83962270D01*
X138152927Y-83876002D01*
X138205275Y-83746402D01*
X138259335Y-83583977D01*
X138311548Y-83399236D01*
X138358355Y-83202690D01*
X138396197Y-83004847D01*
X138409452Y-82914932D01*
X138429644Y-82720850D01*
X138441712Y-82516717D01*
X138445960Y-82313606D01*
X138442689Y-82122592D01*
X138432204Y-81954748D01*
X138414808Y-81821149D01*
X138390804Y-81732868D01*
X138360495Y-81700980D01*
X138352431Y-81702537D01*
X138289474Y-81720293D01*
X138170654Y-81756303D01*
X138002130Y-81808626D01*
X137790063Y-81875318D01*
X137540611Y-81954437D01*
X137259935Y-82044039D01*
X137108411Y-82092679D01*
X136954193Y-82142184D01*
X136629546Y-82246926D01*
X136563806Y-82268203D01*
X136164618Y-82398178D01*
X135825788Y-82510127D01*
X135543458Y-82605518D01*
X135382567Y-82661764D01*
X135313767Y-82685816D01*
X135132855Y-82752489D01*
X134996864Y-82807004D01*
X134901934Y-82850828D01*
X134844205Y-82885427D01*
X134819817Y-82912269D01*
X128310428Y-82912269D01*
X128314390Y-82819950D01*
X128406567Y-82204990D01*
X128420016Y-82153481D01*
X132421186Y-82153481D01*
X132421863Y-82153962D01*
X132462340Y-82169903D01*
X132554767Y-82201913D01*
X132688571Y-82246609D01*
X132853178Y-82300611D01*
X133038017Y-82360535D01*
X133232513Y-82423000D01*
X133426095Y-82484625D01*
X133608189Y-82542026D01*
X133768223Y-82591823D01*
X133895623Y-82630633D01*
X133979816Y-82655074D01*
X134010230Y-82661764D01*
X134009762Y-82660510D01*
X133985191Y-82622929D01*
X133927634Y-82540437D01*
X133843119Y-82421524D01*
X133737673Y-82274680D01*
X133617324Y-82108394D01*
X133614912Y-82105074D01*
X134416630Y-82105074D01*
X134416657Y-82139570D01*
X134417535Y-82299290D01*
X134419468Y-82428905D01*
X134422205Y-82515871D01*
X134425494Y-82547647D01*
X134429200Y-82544548D01*
X134462855Y-82503356D01*
X134522833Y-82424287D01*
X134599337Y-82320163D01*
X134764315Y-82092679D01*
X134686475Y-81945950D01*
X134663015Y-81905585D01*
X134587847Y-81803673D01*
X134512633Y-81730861D01*
X134416630Y-81662501D01*
X134416630Y-82105074D01*
X133614912Y-82105074D01*
X133224417Y-81567479D01*
X133105115Y-81617327D01*
X133039830Y-81648925D01*
X132927496Y-81715470D01*
X132804294Y-81798640D01*
X132681536Y-81889566D01*
X132570534Y-81979382D01*
X132482600Y-82059218D01*
X132429047Y-82120207D01*
X132421186Y-82153481D01*
X128420016Y-82153481D01*
X128564696Y-81599380D01*
X128740782Y-81125229D01*
X128780061Y-81045243D01*
X129008271Y-81045243D01*
X129008672Y-81045525D01*
X129047413Y-81060103D01*
X129143852Y-81093294D01*
X129291709Y-81143019D01*
X129484704Y-81207196D01*
X129716557Y-81283744D01*
X129980987Y-81370583D01*
X130271713Y-81465631D01*
X130582456Y-81566809D01*
X130604690Y-81574033D01*
X130914705Y-81674537D01*
X131204739Y-81768165D01*
X131468447Y-81852896D01*
X131699487Y-81926709D01*
X131891513Y-81987586D01*
X132038182Y-82033504D01*
X132133150Y-82062445D01*
X132170072Y-82072387D01*
X132182429Y-82066467D01*
X132237242Y-82024301D01*
X132321728Y-81950562D01*
X132423448Y-81855877D01*
X132447466Y-81833354D01*
X132587356Y-81714273D01*
X132738550Y-81601002D01*
X132872266Y-81515375D01*
X133045377Y-81418565D01*
X134416630Y-81418565D01*
X134570768Y-81529258D01*
X134624224Y-81571247D01*
X134731126Y-81672933D01*
X134812335Y-81772066D01*
X134840493Y-81814288D01*
X134884593Y-81878703D01*
X134903731Y-81903984D01*
X134907876Y-81899845D01*
X134943998Y-81853503D01*
X135013149Y-81760782D01*
X135110783Y-81627998D01*
X135232354Y-81461466D01*
X135373317Y-81267501D01*
X135529126Y-81052419D01*
X135695234Y-80822535D01*
X135867097Y-80584164D01*
X136040169Y-80343623D01*
X136209904Y-80107225D01*
X136371755Y-79881287D01*
X136521178Y-79672124D01*
X136653627Y-79486051D01*
X136764556Y-79329383D01*
X136849418Y-79208436D01*
X136903670Y-79129525D01*
X136922764Y-79098966D01*
X136902637Y-79060211D01*
X136831716Y-78987928D01*
X136717273Y-78893063D01*
X136567255Y-78782135D01*
X136389612Y-78661663D01*
X136193104Y-78541210D01*
X135733135Y-78308923D01*
X135244790Y-78123852D01*
X134748258Y-77994208D01*
X134720184Y-77988610D01*
X134595781Y-77964811D01*
X134500093Y-77948093D01*
X134451925Y-77941780D01*
X134447629Y-77948119D01*
X134439277Y-78006089D01*
X134432268Y-78125458D01*
X134426581Y-78307279D01*
X134422196Y-78552608D01*
X134419089Y-78862497D01*
X134417241Y-79238000D01*
X134416630Y-79680172D01*
X134416630Y-81418565D01*
X133045377Y-81418565D01*
X133096000Y-81390255D01*
X132960220Y-81198484D01*
X132861983Y-81060474D01*
X132720297Y-80863239D01*
X132562795Y-80645581D01*
X132394109Y-80413771D01*
X132218873Y-80174077D01*
X132041720Y-79932771D01*
X131867283Y-79696123D01*
X131700196Y-79470402D01*
X131545093Y-79261879D01*
X131406606Y-79076824D01*
X131289369Y-78921507D01*
X131198015Y-78802199D01*
X131137179Y-78725168D01*
X131111492Y-78696687D01*
X131106254Y-78696164D01*
X131051682Y-78717632D01*
X130957833Y-78773854D01*
X130835074Y-78857307D01*
X130693775Y-78960465D01*
X130544302Y-79075806D01*
X130397025Y-79195804D01*
X130262312Y-79312935D01*
X130145279Y-79423299D01*
X129865380Y-79719856D01*
X129597369Y-80046980D01*
X129361912Y-80380180D01*
X129291276Y-80491709D01*
X129194288Y-80653015D01*
X129111914Y-80799514D01*
X129049733Y-80920714D01*
X129013325Y-81006121D01*
X129008271Y-81045243D01*
X128780061Y-81045243D01*
X129004666Y-80587872D01*
X129323843Y-80082952D01*
X129694056Y-79614760D01*
X130111049Y-79187585D01*
X130570563Y-78805717D01*
X131068343Y-78473445D01*
X131600132Y-78195058D01*
X132161672Y-77974846D01*
X132509062Y-77873106D01*
X133079201Y-77759797D01*
X133651538Y-77710432D01*
X134220677Y-77724460D01*
X134781221Y-77801331D01*
X135327772Y-77940492D01*
X135854935Y-78141393D01*
X136357311Y-78403481D01*
X136666418Y-78607754D01*
X137071848Y-78937888D01*
X137231064Y-79098966D01*
X137444064Y-79314458D01*
X137776168Y-79728604D01*
X138061264Y-80171467D01*
X138292454Y-80634189D01*
X138462841Y-81107911D01*
X138526926Y-81353348D01*
X138618581Y-81881116D01*
X138642422Y-82313606D01*
X138647194Y-82400182D01*
X138614566Y-82906354D01*
G37*
X138614566Y-82906354D02*
X138522496Y-83395446D01*
X138372787Y-83863268D01*
X138167236Y-84305632D01*
X137907646Y-84718349D01*
X137595816Y-85097231D01*
X137233547Y-85438089D01*
X136822638Y-85736733D01*
X136718381Y-85794184D01*
X136364891Y-85988977D01*
X136244731Y-86044012D01*
X135920015Y-86169995D01*
X135603225Y-86254387D01*
X135270825Y-86302497D01*
X134899278Y-86319638D01*
X134416726Y-86323780D01*
X134416678Y-88003002D01*
X134416662Y-88059634D01*
X134415992Y-88387748D01*
X134414409Y-88694133D01*
X134412012Y-88972218D01*
X134408897Y-89215429D01*
X134405163Y-89417195D01*
X134400909Y-89570944D01*
X134396232Y-89670104D01*
X134391230Y-89708103D01*
X134357280Y-89718998D01*
X134261747Y-89720669D01*
X134116619Y-89709246D01*
X133931191Y-89685760D01*
X133714762Y-89651242D01*
X133476629Y-89606721D01*
X132844628Y-89447060D01*
X132232515Y-89224954D01*
X131649840Y-88944326D01*
X131100201Y-88607913D01*
X130587198Y-88218449D01*
X130114432Y-87778669D01*
X129685502Y-87291309D01*
X129304007Y-86759105D01*
X128973547Y-86184792D01*
X128829293Y-85883585D01*
X128597493Y-85286767D01*
X128471987Y-84831126D01*
X128668199Y-84831126D01*
X128727178Y-85035586D01*
X128880649Y-85493778D01*
X129134438Y-86066158D01*
X129450237Y-86618747D01*
X129825413Y-87147052D01*
X130257333Y-87646581D01*
X130330243Y-87722191D01*
X130421551Y-87813237D01*
X130488497Y-87875507D01*
X130520210Y-87898580D01*
X130524571Y-87894480D01*
X130561475Y-87848572D01*
X130631586Y-87756907D01*
X130730133Y-87625976D01*
X130852343Y-87462269D01*
X130993445Y-87272276D01*
X131148668Y-87062489D01*
X131313241Y-86839397D01*
X131482390Y-86609492D01*
X131651346Y-86379263D01*
X131815336Y-86155201D01*
X131969588Y-85943797D01*
X132109332Y-85751541D01*
X132229796Y-85584923D01*
X132326207Y-85450435D01*
X132393795Y-85354566D01*
X132427788Y-85303808D01*
X132423320Y-85253999D01*
X132378157Y-85159934D01*
X132346956Y-85110866D01*
X134422954Y-85110866D01*
X134423010Y-85303808D01*
X134423032Y-85379938D01*
X134424017Y-85616835D01*
X134425854Y-85814446D01*
X134428488Y-85965660D01*
X134431864Y-86063366D01*
X134435927Y-86100453D01*
X134463170Y-86110443D01*
X134549012Y-86120434D01*
X134676800Y-86125777D01*
X134831550Y-86126648D01*
X134998274Y-86123222D01*
X135161986Y-86115675D01*
X135307701Y-86104182D01*
X135420431Y-86088919D01*
X135537420Y-86064644D01*
X135712375Y-86021054D01*
X135883360Y-85971189D01*
X136037960Y-85919309D01*
X136163759Y-85869674D01*
X136248343Y-85826546D01*
X136279297Y-85794184D01*
X136263794Y-85766721D01*
X136212051Y-85689123D01*
X136127780Y-85567389D01*
X136014924Y-85407082D01*
X135877420Y-85213763D01*
X135719210Y-84992996D01*
X135544233Y-84750342D01*
X135356430Y-84491363D01*
X134433563Y-83222206D01*
X134424725Y-84651266D01*
X134423837Y-84816731D01*
X134422954Y-85110866D01*
X132346956Y-85110866D01*
X132295480Y-85029914D01*
X132292016Y-85024874D01*
X132106332Y-84717898D01*
X131957570Y-84397344D01*
X131856692Y-84086773D01*
X131854062Y-84076123D01*
X131824393Y-83960500D01*
X131800525Y-83875162D01*
X131787414Y-83837910D01*
X131787123Y-83837772D01*
X131749643Y-83846482D01*
X131654449Y-83874122D01*
X131507805Y-83918732D01*
X131315978Y-83978351D01*
X131085231Y-84051020D01*
X130821829Y-84134777D01*
X130532038Y-84227662D01*
X130222122Y-84327716D01*
X128668199Y-84831126D01*
X128471987Y-84831126D01*
X128429717Y-84677669D01*
X128326351Y-84060615D01*
X128307043Y-83749914D01*
X132004817Y-83749914D01*
X132023274Y-83906385D01*
X132047095Y-84029981D01*
X132106600Y-84223709D01*
X132190076Y-84433847D01*
X132288647Y-84638580D01*
X132393436Y-84816093D01*
X132406415Y-84835300D01*
X132478992Y-84936809D01*
X132538750Y-85011181D01*
X132573829Y-85043469D01*
X132598683Y-85022721D01*
X132659074Y-84952937D01*
X132749848Y-84839918D01*
X132866299Y-84689735D01*
X133003722Y-84508463D01*
X133157411Y-84302176D01*
X133322661Y-84076948D01*
X134035366Y-83098386D01*
X133692598Y-83207541D01*
X133550433Y-83252939D01*
X133360588Y-83313744D01*
X133140402Y-83384393D01*
X132906954Y-83459407D01*
X132677323Y-83533305D01*
X132004817Y-83749914D01*
X128307043Y-83749914D01*
X128287780Y-83439934D01*
X128310428Y-82912269D01*
X134819817Y-82912269D01*
X134824912Y-82932820D01*
X134826181Y-82933537D01*
X134869973Y-82949623D01*
X134971028Y-82984151D01*
X135123127Y-83035067D01*
X135314224Y-83098386D01*
X135320054Y-83100318D01*
X135555591Y-83177848D01*
X135823522Y-83265606D01*
X136117630Y-83361537D01*
X136431697Y-83463588D01*
X136478416Y-83478741D01*
X136790977Y-83580157D01*
X137083432Y-83675111D01*
X137349449Y-83761545D01*
X137582695Y-83837398D01*
X137776838Y-83900609D01*
X137925544Y-83949119D01*
X138022482Y-83980867D01*
X138061319Y-83993792D01*
X138067600Y-83994694D01*
X138105849Y-83962270D01*
X138152927Y-83876002D01*
X138205275Y-83746402D01*
X138259335Y-83583977D01*
X138311548Y-83399236D01*
X138358355Y-83202690D01*
X138396197Y-83004847D01*
X138409452Y-82914932D01*
X138429644Y-82720850D01*
X138441712Y-82516717D01*
X138445960Y-82313606D01*
X138442689Y-82122592D01*
X138432204Y-81954748D01*
X138414808Y-81821149D01*
X138390804Y-81732868D01*
X138360495Y-81700980D01*
X138352431Y-81702537D01*
X138289474Y-81720293D01*
X138170654Y-81756303D01*
X138002130Y-81808626D01*
X137790063Y-81875318D01*
X137540611Y-81954437D01*
X137259935Y-82044039D01*
X137108411Y-82092679D01*
X136954193Y-82142184D01*
X136629546Y-82246926D01*
X136563806Y-82268203D01*
X136164618Y-82398178D01*
X135825788Y-82510127D01*
X135543458Y-82605518D01*
X135382567Y-82661764D01*
X135313767Y-82685816D01*
X135132855Y-82752489D01*
X134996864Y-82807004D01*
X134901934Y-82850828D01*
X134844205Y-82885427D01*
X134819817Y-82912269D01*
X128310428Y-82912269D01*
X128314390Y-82819950D01*
X128406567Y-82204990D01*
X128420016Y-82153481D01*
X132421186Y-82153481D01*
X132421863Y-82153962D01*
X132462340Y-82169903D01*
X132554767Y-82201913D01*
X132688571Y-82246609D01*
X132853178Y-82300611D01*
X133038017Y-82360535D01*
X133232513Y-82423000D01*
X133426095Y-82484625D01*
X133608189Y-82542026D01*
X133768223Y-82591823D01*
X133895623Y-82630633D01*
X133979816Y-82655074D01*
X134010230Y-82661764D01*
X134009762Y-82660510D01*
X133985191Y-82622929D01*
X133927634Y-82540437D01*
X133843119Y-82421524D01*
X133737673Y-82274680D01*
X133617324Y-82108394D01*
X133614912Y-82105074D01*
X134416630Y-82105074D01*
X134416657Y-82139570D01*
X134417535Y-82299290D01*
X134419468Y-82428905D01*
X134422205Y-82515871D01*
X134425494Y-82547647D01*
X134429200Y-82544548D01*
X134462855Y-82503356D01*
X134522833Y-82424287D01*
X134599337Y-82320163D01*
X134764315Y-82092679D01*
X134686475Y-81945950D01*
X134663015Y-81905585D01*
X134587847Y-81803673D01*
X134512633Y-81730861D01*
X134416630Y-81662501D01*
X134416630Y-82105074D01*
X133614912Y-82105074D01*
X133224417Y-81567479D01*
X133105115Y-81617327D01*
X133039830Y-81648925D01*
X132927496Y-81715470D01*
X132804294Y-81798640D01*
X132681536Y-81889566D01*
X132570534Y-81979382D01*
X132482600Y-82059218D01*
X132429047Y-82120207D01*
X132421186Y-82153481D01*
X128420016Y-82153481D01*
X128564696Y-81599380D01*
X128740782Y-81125229D01*
X128780061Y-81045243D01*
X129008271Y-81045243D01*
X129008672Y-81045525D01*
X129047413Y-81060103D01*
X129143852Y-81093294D01*
X129291709Y-81143019D01*
X129484704Y-81207196D01*
X129716557Y-81283744D01*
X129980987Y-81370583D01*
X130271713Y-81465631D01*
X130582456Y-81566809D01*
X130604690Y-81574033D01*
X130914705Y-81674537D01*
X131204739Y-81768165D01*
X131468447Y-81852896D01*
X131699487Y-81926709D01*
X131891513Y-81987586D01*
X132038182Y-82033504D01*
X132133150Y-82062445D01*
X132170072Y-82072387D01*
X132182429Y-82066467D01*
X132237242Y-82024301D01*
X132321728Y-81950562D01*
X132423448Y-81855877D01*
X132447466Y-81833354D01*
X132587356Y-81714273D01*
X132738550Y-81601002D01*
X132872266Y-81515375D01*
X133045377Y-81418565D01*
X134416630Y-81418565D01*
X134570768Y-81529258D01*
X134624224Y-81571247D01*
X134731126Y-81672933D01*
X134812335Y-81772066D01*
X134840493Y-81814288D01*
X134884593Y-81878703D01*
X134903731Y-81903984D01*
X134907876Y-81899845D01*
X134943998Y-81853503D01*
X135013149Y-81760782D01*
X135110783Y-81627998D01*
X135232354Y-81461466D01*
X135373317Y-81267501D01*
X135529126Y-81052419D01*
X135695234Y-80822535D01*
X135867097Y-80584164D01*
X136040169Y-80343623D01*
X136209904Y-80107225D01*
X136371755Y-79881287D01*
X136521178Y-79672124D01*
X136653627Y-79486051D01*
X136764556Y-79329383D01*
X136849418Y-79208436D01*
X136903670Y-79129525D01*
X136922764Y-79098966D01*
X136902637Y-79060211D01*
X136831716Y-78987928D01*
X136717273Y-78893063D01*
X136567255Y-78782135D01*
X136389612Y-78661663D01*
X136193104Y-78541210D01*
X135733135Y-78308923D01*
X135244790Y-78123852D01*
X134748258Y-77994208D01*
X134720184Y-77988610D01*
X134595781Y-77964811D01*
X134500093Y-77948093D01*
X134451925Y-77941780D01*
X134447629Y-77948119D01*
X134439277Y-78006089D01*
X134432268Y-78125458D01*
X134426581Y-78307279D01*
X134422196Y-78552608D01*
X134419089Y-78862497D01*
X134417241Y-79238000D01*
X134416630Y-79680172D01*
X134416630Y-81418565D01*
X133045377Y-81418565D01*
X133096000Y-81390255D01*
X132960220Y-81198484D01*
X132861983Y-81060474D01*
X132720297Y-80863239D01*
X132562795Y-80645581D01*
X132394109Y-80413771D01*
X132218873Y-80174077D01*
X132041720Y-79932771D01*
X131867283Y-79696123D01*
X131700196Y-79470402D01*
X131545093Y-79261879D01*
X131406606Y-79076824D01*
X131289369Y-78921507D01*
X131198015Y-78802199D01*
X131137179Y-78725168D01*
X131111492Y-78696687D01*
X131106254Y-78696164D01*
X131051682Y-78717632D01*
X130957833Y-78773854D01*
X130835074Y-78857307D01*
X130693775Y-78960465D01*
X130544302Y-79075806D01*
X130397025Y-79195804D01*
X130262312Y-79312935D01*
X130145279Y-79423299D01*
X129865380Y-79719856D01*
X129597369Y-80046980D01*
X129361912Y-80380180D01*
X129291276Y-80491709D01*
X129194288Y-80653015D01*
X129111914Y-80799514D01*
X129049733Y-80920714D01*
X129013325Y-81006121D01*
X129008271Y-81045243D01*
X128780061Y-81045243D01*
X129004666Y-80587872D01*
X129323843Y-80082952D01*
X129694056Y-79614760D01*
X130111049Y-79187585D01*
X130570563Y-78805717D01*
X131068343Y-78473445D01*
X131600132Y-78195058D01*
X132161672Y-77974846D01*
X132509062Y-77873106D01*
X133079201Y-77759797D01*
X133651538Y-77710432D01*
X134220677Y-77724460D01*
X134781221Y-77801331D01*
X135327772Y-77940492D01*
X135854935Y-78141393D01*
X136357311Y-78403481D01*
X136666418Y-78607754D01*
X137071848Y-78937888D01*
X137231064Y-79098966D01*
X137444064Y-79314458D01*
X137776168Y-79728604D01*
X138061264Y-80171467D01*
X138292454Y-80634189D01*
X138462841Y-81107911D01*
X138526926Y-81353348D01*
X138618581Y-81881116D01*
X138642422Y-82313606D01*
X138647194Y-82400182D01*
X138614566Y-82906354D01*
D11*
%TO.C,J26*%
X70164000Y-76581000D02*
X70164000Y-84261000D01*
X67504000Y-76581000D02*
X67504000Y-84261000D01*
X70164000Y-84261000D02*
X67504000Y-84261000D01*
X70164000Y-73981000D02*
X68834000Y-73981000D01*
X70164000Y-75311000D02*
X70164000Y-73981000D01*
X70164000Y-76581000D02*
X67504000Y-76581000D01*
%TO.C,J29*%
X48955000Y-76327000D02*
X48955000Y-74997000D01*
X46295000Y-77597000D02*
X46295000Y-82737000D01*
X48955000Y-82737000D02*
X46295000Y-82737000D01*
X48955000Y-77597000D02*
X48955000Y-82737000D01*
X48955000Y-77597000D02*
X46295000Y-77597000D01*
X48955000Y-74997000D02*
X47625000Y-74997000D01*
%TD*%
M02*
