%TF.GenerationSoftware,KiCad,Pcbnew,(6.0.0-0)*%
%TF.CreationDate,2022-01-01T22:44:04+00:00*%
%TF.ProjectId,dual-digi-delay,6475616c-2d64-4696-9769-2d64656c6179,r02*%
%TF.SameCoordinates,Original*%
%TF.FileFunction,Profile,NP*%
%FSLAX46Y46*%
G04 Gerber Fmt 4.6, Leading zero omitted, Abs format (unit mm)*
G04 Created by KiCad (PCBNEW (6.0.0-0)) date 2022-01-01 22:44:04*
%MOMM*%
%LPD*%
G01*
G04 APERTURE LIST*
%TA.AperFunction,Profile*%
%ADD10C,0.050000*%
%TD*%
G04 APERTURE END LIST*
D10*
X22860000Y-179832000D02*
X22860000Y-28956000D01*
X74168000Y-27940000D02*
X120396000Y-27940000D01*
X121412000Y-28956000D02*
G75*
G03*
X120396000Y-27940000I-1016002J-2D01*
G01*
X73152000Y-179832000D02*
G75*
G03*
X74168000Y-180848000I1016002J2D01*
G01*
X120396000Y-180848000D02*
X74168000Y-180848000D01*
X74168000Y-27940000D02*
G75*
G03*
X73152000Y-28956000I2J-1016002D01*
G01*
X120396000Y-180848000D02*
G75*
G03*
X121412000Y-179832000I-2J1016002D01*
G01*
X170688000Y-180848000D02*
X124460000Y-180848000D01*
X124460000Y-27940000D02*
X170688000Y-27940000D01*
X171704000Y-28956000D02*
X171704000Y-179832000D01*
X170688000Y-180848000D02*
G75*
G03*
X171704000Y-179832000I-2J1016002D01*
G01*
X124460000Y-27940000D02*
G75*
G03*
X123444000Y-28956000I2J-1016002D01*
G01*
X123444000Y-179832000D02*
G75*
G03*
X124460000Y-180848000I1016002J2D01*
G01*
X171704000Y-28956000D02*
G75*
G03*
X170688000Y-27940000I-1016002J-2D01*
G01*
X73152000Y-38608000D02*
X73152000Y-28956000D01*
X123444000Y-38608000D02*
X123444000Y-28956000D01*
X73152000Y-169672000D02*
X73152000Y-179832000D01*
X71120000Y-169672000D02*
X71120000Y-179832000D01*
X121412000Y-169672000D02*
X121412000Y-179832000D01*
X121412000Y-114808000D02*
G75*
G03*
X123444000Y-114808000I1016000J0D01*
G01*
X73152000Y-68072000D02*
X73152000Y-89408000D01*
X123444000Y-42672000D02*
G75*
G03*
X121412000Y-42672000I-1016000J0D01*
G01*
X71120000Y-114808000D02*
X71120000Y-93472000D01*
X71120000Y-28956000D02*
X71120000Y-38608000D01*
X123444000Y-144272000D02*
X123444000Y-165608000D01*
X71120000Y-140462000D02*
G75*
G03*
X73152000Y-140462000I1016000J0D01*
G01*
X70104000Y-180848000D02*
X23876000Y-180848000D01*
X71120000Y-114808000D02*
G75*
G03*
X73152000Y-114808000I1016000J0D01*
G01*
X73152000Y-144526000D02*
X73152000Y-165608000D01*
X121412000Y-42672000D02*
X121412000Y-64008000D01*
X121412000Y-114808000D02*
X121412000Y-93472000D01*
X123444000Y-144272000D02*
G75*
G03*
X121412000Y-144272000I-1016000J0D01*
G01*
X73152000Y-118872000D02*
X73152000Y-140462000D01*
X121412000Y-89408000D02*
G75*
G03*
X123444000Y-89408000I1016000J0D01*
G01*
X23876000Y-27940000D02*
X70104000Y-27940000D01*
X73152000Y-42672000D02*
G75*
G03*
X71120000Y-42672000I-1016000J0D01*
G01*
X71120000Y-28956000D02*
G75*
G03*
X70104000Y-27940000I-1016002J-2D01*
G01*
X71120000Y-165608000D02*
X71120000Y-144526000D01*
X70104000Y-180848000D02*
G75*
G03*
X71120000Y-179832000I-2J1016002D01*
G01*
X73152000Y-93472000D02*
G75*
G03*
X71120000Y-93472000I-1016000J0D01*
G01*
X123444000Y-68072000D02*
G75*
G03*
X121412000Y-68072000I-1016000J0D01*
G01*
X73152000Y-169672000D02*
G75*
G03*
X71120000Y-169672000I-1016000J0D01*
G01*
X123444000Y-118872000D02*
G75*
G03*
X121412000Y-118872000I-1016000J0D01*
G01*
X23876000Y-27940000D02*
G75*
G03*
X22860000Y-28956000I2J-1016002D01*
G01*
X71120000Y-68072000D02*
X71120000Y-89408000D01*
X121412000Y-165608000D02*
G75*
G03*
X123444000Y-165608000I1016000J0D01*
G01*
X123444000Y-42672000D02*
X123444000Y-64008000D01*
X121412000Y-28956000D02*
X121412000Y-38608000D01*
X121412000Y-68072000D02*
X121412000Y-89408000D01*
X73152000Y-118872000D02*
G75*
G03*
X71120000Y-118872000I-1016000J0D01*
G01*
X71120000Y-165608000D02*
G75*
G03*
X73152000Y-165608000I1016000J0D01*
G01*
X73152000Y-93472000D02*
X73152000Y-114808000D01*
X121412000Y-140208000D02*
G75*
G03*
X123444000Y-140208000I1016000J0D01*
G01*
X73152000Y-144526000D02*
G75*
G03*
X71120000Y-144526000I-1016000J0D01*
G01*
X123444000Y-179832000D02*
X123444000Y-169672000D01*
X71120000Y-38608000D02*
G75*
G03*
X73152000Y-38608000I1016000J0D01*
G01*
X121412000Y-165608000D02*
X121412000Y-144272000D01*
X22860000Y-179832000D02*
G75*
G03*
X23876000Y-180848000I1016002J2D01*
G01*
X73152000Y-68072000D02*
G75*
G03*
X71120000Y-68072000I-1016000J0D01*
G01*
X71120000Y-42672000D02*
X71120000Y-64008000D01*
X121412000Y-118872000D02*
X121412000Y-140208000D01*
X73152000Y-42672000D02*
X73152000Y-64008000D01*
X71120000Y-64008000D02*
G75*
G03*
X73152000Y-64008000I1016000J0D01*
G01*
X123444000Y-118872000D02*
X123444000Y-140208000D01*
X71120000Y-89408000D02*
G75*
G03*
X73152000Y-89408000I1016000J0D01*
G01*
X123444000Y-93472000D02*
X123444000Y-114808000D01*
X123444000Y-93472000D02*
G75*
G03*
X121412000Y-93472000I-1016000J0D01*
G01*
X123444000Y-89408000D02*
X123444000Y-68072000D01*
X121412000Y-38608000D02*
G75*
G03*
X123444000Y-38608000I1016000J0D01*
G01*
X121412000Y-64008000D02*
G75*
G03*
X123444000Y-64008000I1016000J0D01*
G01*
X123444000Y-169672000D02*
G75*
G03*
X121412000Y-169672000I-1016000J0D01*
G01*
X71120000Y-140462000D02*
X71120000Y-118872000D01*
M02*
