M48
; DRILL file {KiCad (6.0.0-0)} date Saturday, 01 January 2022 at 22:44:28
; FORMAT={-:-/ absolute / metric / decimal}
; #@! TF.CreationDate,2022-01-01T22:44:28+00:00
; #@! TF.GenerationSoftware,Kicad,Pcbnew,(6.0.0-0)
; #@! TF.FileFunction,MixedPlating,1,2
FMAT,2
METRIC
; #@! TA.AperFunction,Plated,PTH,ViaDrill
T1C0.381
; #@! TA.AperFunction,Plated,PTH,ComponentDrill
T2C0.800
; #@! TA.AperFunction,Plated,PTH,ComponentDrill
T3C0.900
; #@! TA.AperFunction,Plated,PTH,ComponentDrill
T4C1.000
; #@! TA.AperFunction,Plated,PTH,ComponentDrill
T5C1.100
; #@! TA.AperFunction,Plated,PTH,ComponentDrill
T6C1.190
; #@! TA.AperFunction,Plated,PTH,ComponentDrill
T7C1.800
; #@! TA.AperFunction,Plated,PTH,ComponentDrill
T8C1.850
; #@! TA.AperFunction,Plated,PTH,ComponentDrill
T9C3.200
; #@! TA.AperFunction,Plated,PTH,ComponentDrill
T10C5.100
; #@! TA.AperFunction,NonPlated,NPTH,ComponentDrill
T11C0.500
; #@! TA.AperFunction,NonPlated,NPTH,ComponentDrill
T12C3.500
%
G90
G05
T1
X37.338Y-47.244
X59.563Y-45.339
X60.579Y-67.564
X62.357Y-98.679
X63.754Y-163.83
X64.897Y-157.353
X68.072Y-172.847
X78.994Y-119.634
X81.153Y-105.664
X81.28Y-56.134
X81.915Y-71.755
X82.931Y-167.64
X83.439Y-87.63
X85.598Y-144.145
X90.551Y-55.753
X91.948Y-142.24
X93.345Y-136.652
X96.774Y-107.823
X96.901Y-154.051
X97.663Y-126.746
X99.441Y-92.583
X99.949Y-141.224
X106.934Y-120.269
X111.252Y-133.223
X117.348Y-130.81
X118.237Y-66.929
X126.492Y-176.784
X127.254Y-133.858
X127.889Y-164.084
X127.889Y-167.64
X127.889Y-171.196
X129.032Y-41.402
X132.969Y-164.084
X132.969Y-167.64
X132.969Y-171.196
X134.366Y-176.784
X148.971Y-73.025
X150.241Y-155.194
X152.781Y-107.823
X153.289Y-34.163
X153.67Y-44.704
X157.226Y-83.82
T2
X37.338Y-35.052
X37.338Y-111.252
X37.338Y-130.302
X62.738Y-54.102
X62.738Y-35.052
X62.738Y-130.302
X75.184Y-140.97
X75.692Y-128.143
X75.692Y-138.303
X76.073Y-123.571
X76.2Y-38.354
X76.2Y-48.514
X76.2Y-167.64
X76.2Y-177.8
X76.454Y-59.309
X77.089Y-109.347
X77.089Y-112.014
X77.089Y-114.554
X77.089Y-117.094
X78.613Y-123.571
X78.74Y-128.143
X78.74Y-138.303
X79.248Y-144.018
X79.248Y-147.066
X79.248Y-150.114
X79.248Y-157.226
X79.248Y-160.274
X79.248Y-167.64
X79.248Y-177.8
X80.391Y-45.593
X80.391Y-50.593
X80.518Y-117.094
X81.153Y-123.571
X81.454Y-59.309
X81.661Y-97.282
X81.661Y-100.33
X81.788Y-128.143
X81.788Y-138.303
X82.296Y-113.919
X82.55Y-29.972
X82.55Y-33.02
X82.55Y-36.068
X84.074Y-55.626
X84.328Y-44.45
X84.328Y-52.07
X84.408Y-153.67
X84.408Y-163.957
X84.662Y-120.65
X84.836Y-128.143
X84.836Y-138.303
X85.344Y-140.97
X86.567Y-104.013
X86.868Y-44.45
X86.868Y-52.07
X87.249Y-109.347
X88.472Y-140.335
X88.646Y-124.286
X88.646Y-129.286
X88.646Y-131.906
X88.646Y-136.906
X89.408Y-44.45
X89.408Y-52.07
X89.408Y-144.018
X89.408Y-147.066
X89.408Y-150.114
X89.408Y-153.67
X89.408Y-157.226
X89.408Y-160.274
X89.408Y-163.957
X89.408Y-167.64
X89.408Y-177.8
X89.662Y-120.65
X90.25Y-40.513
X90.678Y-117.094
X90.805Y-89.361
X90.805Y-94.361
X91.567Y-104.013
X91.821Y-97.282
X91.821Y-100.33
X91.948Y-44.45
X91.948Y-52.07
X92.456Y-107.823
X92.456Y-113.919
X92.71Y-29.972
X92.71Y-33.02
X92.71Y-36.068
X93.472Y-118.872
X93.472Y-121.412
X93.472Y-123.952
X93.472Y-126.492
X93.472Y-129.032
X93.472Y-131.572
X93.472Y-134.112
X93.472Y-140.335
X93.472Y-146.558
X93.472Y-149.098
X93.472Y-151.638
X93.472Y-154.178
X93.472Y-156.718
X93.472Y-159.258
X93.472Y-161.798
X93.599Y-66.167
X93.599Y-69.215
X94.107Y-88.9
X94.107Y-91.948
X94.234Y-55.626
X94.615Y-96.774
X94.615Y-99.314
X94.615Y-101.854
X94.615Y-104.394
X94.615Y-110.871
X94.615Y-113.919
X95.25Y-40.513
X95.758Y-47.244
X95.758Y-52.244
X98.806Y-39.37
X98.806Y-44.37
X101.092Y-118.872
X101.092Y-121.412
X101.092Y-123.952
X101.092Y-126.492
X101.092Y-129.032
X101.092Y-131.572
X101.092Y-134.112
X101.092Y-146.558
X101.092Y-149.098
X101.092Y-151.638
X101.092Y-154.178
X101.092Y-156.718
X101.092Y-159.258
X101.092Y-161.798
X101.553Y-137.795
X102.108Y-30.988
X102.108Y-34.036
X102.108Y-37.084
X102.108Y-59.436
X102.108Y-62.484
X102.235Y-96.774
X102.235Y-99.314
X102.235Y-101.854
X102.235Y-104.394
X102.616Y-44.45
X102.616Y-52.07
X102.616Y-55.88
X102.616Y-107.823
X102.696Y-40.64
X103.759Y-66.167
X103.759Y-69.215
X104.267Y-88.9
X104.267Y-91.948
X104.775Y-110.871
X104.775Y-113.919
X104.902Y-117.729
X104.902Y-121.285
X104.902Y-125.349
X105.156Y-44.45
X105.156Y-52.07
X105.156Y-104.394
X105.156Y-141.351
X105.156Y-144.399
X105.156Y-147.447
X105.156Y-150.495
X105.156Y-154.051
X105.156Y-157.607
X105.156Y-160.655
X105.156Y-164.338
X105.156Y-168.021
X105.156Y-177.8
X105.41Y-96.774
X105.41Y-100.838
X105.918Y-128.731
X105.918Y-133.731
X106.553Y-137.795
X107.616Y-55.88
X107.696Y-40.64
X107.696Y-44.45
X107.696Y-52.07
X109.728Y-128.524
X109.728Y-138.684
X109.902Y-121.285
X109.902Y-125.349
X109.982Y-113.411
X110.156Y-154.051
X110.156Y-164.338
X110.236Y-44.45
X110.236Y-52.07
X110.41Y-96.774
X110.41Y-100.838
X112.268Y-30.988
X112.268Y-34.036
X112.268Y-37.084
X112.268Y-59.436
X112.268Y-62.484
X112.522Y-113.411
X112.776Y-128.524
X112.776Y-138.684
X113.284Y-123.698
X114.046Y-47.07
X114.046Y-52.07
X115.062Y-113.411
X115.062Y-117.729
X115.316Y-104.394
X115.316Y-141.351
X115.316Y-144.399
X115.316Y-147.447
X115.316Y-150.495
X115.316Y-157.607
X115.316Y-160.655
X115.316Y-168.021
X115.316Y-177.8
X115.824Y-123.698
X115.824Y-128.524
X115.824Y-138.684
X118.364Y-123.698
X118.364Y-167.64
X118.364Y-177.8
X118.872Y-47.752
X118.872Y-57.912
X119.126Y-135.001
X119.126Y-145.161
X127.127Y-150.194
X127.127Y-155.194
X127.437Y-130.429
X128.35Y-142.748
X128.35Y-146.812
X128.524Y-138.43
X129.032Y-99.187
X129.032Y-102.235
X130.509Y-150.876
X130.937Y-130.429
X131.064Y-138.43
X131.191Y-58.547
X131.445Y-62.611
X131.445Y-67.611
X131.628Y-51.181
X133.35Y-142.748
X133.35Y-146.812
X133.604Y-138.43
X133.731Y-58.547
X135.128Y-51.181
X135.509Y-62.611
X135.509Y-67.611
X135.509Y-150.876
X136.271Y-58.547
X136.779Y-117.896
X136.779Y-120.396
X136.779Y-124.206
X136.779Y-127.889
X136.779Y-130.429
X136.779Y-132.969
X136.779Y-135.509
X136.779Y-138.049
X136.779Y-140.589
X136.779Y-143.129
X136.779Y-145.669
X138.938Y-157.433
X138.938Y-162.433
X139.192Y-99.187
X139.192Y-102.235
X140.081Y-35.6
X140.081Y-38.1
X140.081Y-42.037
X140.081Y-45.847
X140.081Y-48.387
X140.081Y-50.927
X140.081Y-53.467
X140.081Y-56.007
X140.081Y-58.547
X140.081Y-61.087
X140.081Y-63.627
X140.081Y-66.802
X140.081Y-71.802
X141.478Y-111.546
X141.478Y-114.046
X141.779Y-124.206
X144.399Y-127.889
X144.399Y-130.429
X144.399Y-132.969
X144.399Y-135.509
X144.399Y-138.049
X144.399Y-140.589
X144.399Y-143.129
X144.399Y-145.669
X144.653Y-159.171
X144.653Y-161.671
X145.081Y-42.037
X147.701Y-45.847
X147.701Y-48.387
X147.701Y-50.927
X147.701Y-53.467
X147.701Y-56.007
X147.701Y-58.547
X147.701Y-61.087
X147.701Y-63.627
X148.082Y-144.018
X148.082Y-148.082
X148.59Y-125.429
X148.59Y-130.429
X148.59Y-133.049
X148.59Y-138.049
X150.622Y-89.535
X150.622Y-94.535
X152.019Y-83.566
X152.146Y-122.174
X152.146Y-125.222
X152.146Y-128.27
X152.146Y-131.318
X152.146Y-134.366
X152.146Y-137.414
X152.146Y-140.462
X152.273Y-101.727
X153.082Y-144.018
X153.082Y-148.082
X153.543Y-59.055
X153.543Y-63.119
X153.877Y-118.491
X154.051Y-41.863
X154.051Y-46.863
X154.051Y-49.991
X154.051Y-54.991
X154.559Y-86.741
X154.559Y-94.361
X156.337Y-67.056
X156.337Y-70.779
X156.337Y-73.279
X157.099Y-86.741
X157.099Y-94.361
X157.179Y-98.044
X157.306Y-144.018
X157.607Y-40.259
X157.607Y-43.307
X157.607Y-46.355
X157.607Y-49.403
X157.607Y-52.451
X157.607Y-55.499
X158.543Y-59.055
X158.543Y-63.119
X158.877Y-118.491
X159.639Y-86.741
X159.639Y-94.361
X161.37Y-70.739
X161.497Y-59.055
X161.497Y-63.119
X161.925Y-152.654
X161.925Y-155.154
X162.179Y-83.566
X162.179Y-86.741
X162.179Y-94.361
X162.179Y-98.044
X162.306Y-114.253
X162.306Y-119.253
X162.306Y-122.174
X162.306Y-125.222
X162.306Y-128.27
X162.306Y-131.318
X162.306Y-134.366
X162.306Y-137.414
X162.306Y-140.462
X162.306Y-144.018
X162.433Y-101.727
X162.433Y-104.942
X162.433Y-107.442
X166.029Y-77.089
X166.37Y-70.739
X166.497Y-59.055
X166.497Y-63.119
X166.497Y-67.056
X167.767Y-40.259
X167.767Y-43.307
X167.767Y-46.355
X167.767Y-49.403
X167.767Y-52.451
X167.767Y-55.499
X168.529Y-77.089
T3
X76.454Y-62.992
X76.454Y-66.294
X79.248Y-171.196
X79.248Y-174.498
X79.883Y-84.074
X79.883Y-87.376
X79.883Y-90.678
X79.883Y-93.98
X84.074Y-62.992
X84.074Y-66.294
X86.614Y-58.928
X86.614Y-62.23
X86.868Y-171.196
X86.868Y-174.498
X87.503Y-84.074
X87.503Y-87.376
X87.503Y-90.678
X87.503Y-93.98
X94.234Y-58.928
X94.234Y-62.23
X107.696Y-171.196
X107.696Y-174.498
X115.316Y-171.196
X115.316Y-174.498
X129.032Y-96.012
X129.032Y-105.41
X136.652Y-96.012
X136.652Y-105.41
X139.954Y-166.37
X139.954Y-173.99
X155.194Y-166.37
X162.814Y-166.37
T4
X25.146Y-52.324
X25.146Y-54.864
X25.146Y-80.264
X25.146Y-82.804
X25.146Y-85.344
X25.146Y-87.884
X25.146Y-148.59
X25.146Y-151.13
X25.146Y-153.67
X25.146Y-156.21
X25.146Y-158.75
X25.146Y-161.29
X31.79Y-64.65
X31.79Y-102.75
X31.79Y-159.9
X31.79Y-178.95
X34.29Y-64.65
X34.29Y-102.75
X34.29Y-159.9
X34.29Y-178.95
X36.79Y-64.65
X36.79Y-102.75
X36.79Y-159.9
X36.79Y-178.95
X43.18Y-170.18
X45.72Y-30.226
X45.72Y-170.18
X47.625Y-76.327
X47.625Y-78.867
X47.625Y-81.407
X48.26Y-30.226
X48.26Y-170.18
X50.8Y-170.18
X57.19Y-178.95
X57.19Y-83.7
X57.19Y-102.75
X57.19Y-121.8
X57.19Y-159.9
X59.69Y-178.95
X59.69Y-83.7
X59.69Y-102.75
X59.69Y-121.8
X59.69Y-159.9
X62.19Y-178.95
X62.19Y-83.7
X62.19Y-102.75
X62.19Y-121.8
X62.19Y-159.9
X68.834Y-40.386
X68.834Y-42.926
X68.834Y-75.311
X68.834Y-77.851
X68.834Y-80.391
X68.834Y-82.931
X68.834Y-148.59
X68.834Y-151.13
X68.834Y-153.67
X68.834Y-156.21
X68.834Y-158.75
X68.834Y-161.29
X75.438Y-52.324
X75.438Y-54.864
X75.438Y-80.264
X75.438Y-82.804
X75.438Y-85.344
X75.438Y-87.884
X75.438Y-99.441
X75.438Y-101.981
X75.438Y-148.59
X75.438Y-151.13
X75.438Y-153.67
X75.438Y-156.21
X75.438Y-158.75
X75.438Y-161.29
X93.472Y-166.37
X93.472Y-170.18
X96.012Y-30.226
X96.012Y-166.37
X96.012Y-170.18
X97.917Y-76.327
X97.917Y-78.867
X97.917Y-81.407
X98.552Y-30.226
X98.552Y-166.37
X98.552Y-170.18
X101.092Y-166.37
X101.092Y-170.18
X102.87Y-79.756
X105.41Y-79.756
X109.22Y-79.756
X111.76Y-79.756
X119.126Y-40.386
X119.126Y-42.926
X119.126Y-75.311
X119.126Y-77.851
X119.126Y-80.391
X119.126Y-82.931
X119.126Y-148.59
X119.126Y-151.13
X119.126Y-153.67
X119.126Y-156.21
X119.126Y-158.75
X119.126Y-161.29
X125.73Y-99.441
X125.73Y-101.981
X143.764Y-166.37
X146.304Y-166.37
X148.844Y-166.37
X151.384Y-166.37
X153.162Y-79.756
X155.702Y-79.756
X159.512Y-79.756
X162.052Y-79.756
T5
X127.889Y-158.369
X130.429Y-158.369
X132.969Y-158.369
T6
X154.94Y-174.625
X157.48Y-174.625
X160.02Y-174.625
X162.56Y-174.625
T7
X29.49Y-57.15
X29.49Y-95.25
X29.49Y-152.4
X29.49Y-171.45
X39.09Y-57.15
X39.09Y-95.25
X39.09Y-152.4
X39.09Y-171.45
X54.89Y-171.45
X54.89Y-76.2
X54.89Y-95.25
X54.89Y-114.3
X54.89Y-152.4
X64.49Y-171.45
X64.49Y-76.2
X64.49Y-95.25
X64.49Y-114.3
X64.49Y-152.4
T8
X34.29Y-71.5
X34.29Y-76.2
X34.29Y-80.9
X46.99Y-138.175
X46.99Y-142.875
X46.99Y-147.575
T9
X26.67Y-31.75
X46.99Y-177.038
X76.962Y-31.75
X97.282Y-177.038
X127.254Y-31.75
X147.574Y-177.038
T10
X34.29Y-38.1
X34.29Y-114.3
X34.29Y-133.35
X59.69Y-57.15
X59.69Y-38.1
X59.69Y-133.35
T11
X71.386Y-39.89
X71.386Y-40.64
X71.386Y-41.39
X71.386Y-65.29
X71.386Y-66.04
X71.386Y-66.79
X71.386Y-90.69
X71.386Y-91.44
X71.386Y-92.19
X71.386Y-116.09
X71.386Y-116.84
X71.386Y-117.59
X71.386Y-141.744
X71.386Y-142.494
X71.386Y-143.244
X71.386Y-166.89
X71.386Y-167.64
X71.386Y-168.39
X72.886Y-39.89
X72.886Y-40.64
X72.886Y-41.39
X72.886Y-65.29
X72.886Y-66.04
X72.886Y-66.79
X72.886Y-90.69
X72.886Y-91.44
X72.886Y-92.19
X72.886Y-116.09
X72.886Y-116.84
X72.886Y-117.59
X72.886Y-141.744
X72.886Y-142.494
X72.886Y-143.244
X72.886Y-166.89
X72.886Y-167.64
X72.886Y-168.39
X121.678Y-39.89
X121.678Y-40.64
X121.678Y-41.39
X121.678Y-65.29
X121.678Y-66.04
X121.678Y-66.79
X121.678Y-90.69
X121.678Y-91.44
X121.678Y-92.19
X121.678Y-116.09
X121.678Y-116.84
X121.678Y-117.59
X121.678Y-141.49
X121.678Y-142.24
X121.678Y-142.99
X121.678Y-166.89
X121.678Y-167.64
X121.678Y-168.39
X123.178Y-39.89
X123.178Y-40.64
X123.178Y-41.39
X123.178Y-65.29
X123.178Y-66.04
X123.178Y-66.79
X123.178Y-90.69
X123.178Y-91.44
X123.178Y-92.19
X123.178Y-116.09
X123.178Y-116.84
X123.178Y-117.59
X123.178Y-141.49
X123.178Y-142.24
X123.178Y-142.99
X123.178Y-166.89
X123.178Y-167.64
X123.178Y-168.39
T12
X130.429Y-175.029
T0
M30
