%TF.GenerationSoftware,KiCad,Pcbnew,(5.1.8-0-10_14)*%
%TF.CreationDate,2021-10-30T15:56:04+01:00*%
%TF.ProjectId,dual-digi-delay-frontpanel,6475616c-2d64-4696-9769-2d64656c6179,rev?*%
%TF.SameCoordinates,Original*%
%TF.FileFunction,Copper,L1,Top*%
%TF.FilePolarity,Positive*%
%FSLAX46Y46*%
G04 Gerber Fmt 4.6, Leading zero omitted, Abs format (unit mm)*
G04 Created by KiCad (PCBNEW (5.1.8-0-10_14)) date 2021-10-30 15:56:04*
%MOMM*%
%LPD*%
G01*
G04 APERTURE LIST*
%TA.AperFunction,EtchedComponent*%
%ADD10C,0.010000*%
%TD*%
G04 APERTURE END LIST*
D10*
%TO.C,Ref\u002A\u002A*%
G36*
X102388823Y-146524528D02*
G01*
X102445354Y-146559657D01*
X102474520Y-146586786D01*
X102546640Y-146658906D01*
X102540702Y-158149078D01*
X102534765Y-169639250D01*
X102489410Y-169819166D01*
X102381766Y-170166457D01*
X102240904Y-170488414D01*
X102068019Y-170783819D01*
X101864304Y-171051449D01*
X101630953Y-171290084D01*
X101369159Y-171498503D01*
X101080118Y-171675485D01*
X100765021Y-171819808D01*
X100425361Y-171930174D01*
X100207417Y-171987841D01*
X97155074Y-171994136D01*
X94102731Y-172000432D01*
X94036201Y-171940987D01*
X93988064Y-171885567D01*
X93963950Y-171818873D01*
X93958480Y-171782260D01*
X93954424Y-171719460D01*
X93964775Y-171676589D01*
X93996546Y-171634430D01*
X94021945Y-171608321D01*
X94096600Y-171533666D01*
X96898008Y-171533485D01*
X97327587Y-171533384D01*
X97717030Y-171533107D01*
X98068534Y-171532605D01*
X98384297Y-171531829D01*
X98666516Y-171530731D01*
X98917388Y-171529262D01*
X99139111Y-171527374D01*
X99333881Y-171525017D01*
X99503895Y-171522144D01*
X99651352Y-171518705D01*
X99778449Y-171514653D01*
X99887381Y-171509938D01*
X99980348Y-171504511D01*
X100059546Y-171498324D01*
X100127172Y-171491329D01*
X100185424Y-171483477D01*
X100236499Y-171474719D01*
X100282594Y-171465006D01*
X100311883Y-171457916D01*
X100608465Y-171361887D01*
X100884803Y-171230751D01*
X101138441Y-171067297D01*
X101366924Y-170874314D01*
X101567798Y-170654593D01*
X101738609Y-170410924D01*
X101876901Y-170146095D01*
X101980220Y-169862897D01*
X102046111Y-169564120D01*
X102058040Y-169473422D01*
X102059893Y-169440258D01*
X102061662Y-169374514D01*
X102063346Y-169275781D01*
X102064946Y-169143653D01*
X102066464Y-168977722D01*
X102067900Y-168777582D01*
X102069254Y-168542825D01*
X102070529Y-168273044D01*
X102071723Y-167967832D01*
X102072839Y-167626783D01*
X102073877Y-167249488D01*
X102074837Y-166835542D01*
X102075722Y-166384536D01*
X102076530Y-165896063D01*
X102077264Y-165369718D01*
X102077924Y-164805091D01*
X102078511Y-164201777D01*
X102079025Y-163559369D01*
X102079468Y-162877458D01*
X102079840Y-162155639D01*
X102080142Y-161393503D01*
X102080375Y-160590644D01*
X102080539Y-159746655D01*
X102080636Y-158861129D01*
X102080667Y-157976199D01*
X102080678Y-157138807D01*
X102080713Y-156342735D01*
X102080776Y-155586970D01*
X102080868Y-154870499D01*
X102080993Y-154192310D01*
X102081152Y-153551389D01*
X102081350Y-152946723D01*
X102081588Y-152377300D01*
X102081869Y-151842105D01*
X102082195Y-151340127D01*
X102082571Y-150870352D01*
X102082997Y-150431767D01*
X102083478Y-150023359D01*
X102084015Y-149644115D01*
X102084611Y-149293023D01*
X102085270Y-148969068D01*
X102085993Y-148671238D01*
X102086783Y-148398521D01*
X102087643Y-148149902D01*
X102088576Y-147924370D01*
X102089585Y-147720910D01*
X102090672Y-147538511D01*
X102091839Y-147376158D01*
X102093090Y-147232839D01*
X102094428Y-147107541D01*
X102095854Y-146999251D01*
X102097371Y-146906956D01*
X102098983Y-146829643D01*
X102100692Y-146766299D01*
X102102501Y-146715910D01*
X102104412Y-146677465D01*
X102106428Y-146649949D01*
X102108552Y-146632349D01*
X102110786Y-146623654D01*
X102110829Y-146623569D01*
X102167010Y-146559227D01*
X102252194Y-146522531D01*
X102327196Y-146514666D01*
X102388823Y-146524528D01*
G37*
X102388823Y-146524528D02*
X102445354Y-146559657D01*
X102474520Y-146586786D01*
X102546640Y-146658906D01*
X102540702Y-158149078D01*
X102534765Y-169639250D01*
X102489410Y-169819166D01*
X102381766Y-170166457D01*
X102240904Y-170488414D01*
X102068019Y-170783819D01*
X101864304Y-171051449D01*
X101630953Y-171290084D01*
X101369159Y-171498503D01*
X101080118Y-171675485D01*
X100765021Y-171819808D01*
X100425361Y-171930174D01*
X100207417Y-171987841D01*
X97155074Y-171994136D01*
X94102731Y-172000432D01*
X94036201Y-171940987D01*
X93988064Y-171885567D01*
X93963950Y-171818873D01*
X93958480Y-171782260D01*
X93954424Y-171719460D01*
X93964775Y-171676589D01*
X93996546Y-171634430D01*
X94021945Y-171608321D01*
X94096600Y-171533666D01*
X96898008Y-171533485D01*
X97327587Y-171533384D01*
X97717030Y-171533107D01*
X98068534Y-171532605D01*
X98384297Y-171531829D01*
X98666516Y-171530731D01*
X98917388Y-171529262D01*
X99139111Y-171527374D01*
X99333881Y-171525017D01*
X99503895Y-171522144D01*
X99651352Y-171518705D01*
X99778449Y-171514653D01*
X99887381Y-171509938D01*
X99980348Y-171504511D01*
X100059546Y-171498324D01*
X100127172Y-171491329D01*
X100185424Y-171483477D01*
X100236499Y-171474719D01*
X100282594Y-171465006D01*
X100311883Y-171457916D01*
X100608465Y-171361887D01*
X100884803Y-171230751D01*
X101138441Y-171067297D01*
X101366924Y-170874314D01*
X101567798Y-170654593D01*
X101738609Y-170410924D01*
X101876901Y-170146095D01*
X101980220Y-169862897D01*
X102046111Y-169564120D01*
X102058040Y-169473422D01*
X102059893Y-169440258D01*
X102061662Y-169374514D01*
X102063346Y-169275781D01*
X102064946Y-169143653D01*
X102066464Y-168977722D01*
X102067900Y-168777582D01*
X102069254Y-168542825D01*
X102070529Y-168273044D01*
X102071723Y-167967832D01*
X102072839Y-167626783D01*
X102073877Y-167249488D01*
X102074837Y-166835542D01*
X102075722Y-166384536D01*
X102076530Y-165896063D01*
X102077264Y-165369718D01*
X102077924Y-164805091D01*
X102078511Y-164201777D01*
X102079025Y-163559369D01*
X102079468Y-162877458D01*
X102079840Y-162155639D01*
X102080142Y-161393503D01*
X102080375Y-160590644D01*
X102080539Y-159746655D01*
X102080636Y-158861129D01*
X102080667Y-157976199D01*
X102080678Y-157138807D01*
X102080713Y-156342735D01*
X102080776Y-155586970D01*
X102080868Y-154870499D01*
X102080993Y-154192310D01*
X102081152Y-153551389D01*
X102081350Y-152946723D01*
X102081588Y-152377300D01*
X102081869Y-151842105D01*
X102082195Y-151340127D01*
X102082571Y-150870352D01*
X102082997Y-150431767D01*
X102083478Y-150023359D01*
X102084015Y-149644115D01*
X102084611Y-149293023D01*
X102085270Y-148969068D01*
X102085993Y-148671238D01*
X102086783Y-148398521D01*
X102087643Y-148149902D01*
X102088576Y-147924370D01*
X102089585Y-147720910D01*
X102090672Y-147538511D01*
X102091839Y-147376158D01*
X102093090Y-147232839D01*
X102094428Y-147107541D01*
X102095854Y-146999251D01*
X102097371Y-146906956D01*
X102098983Y-146829643D01*
X102100692Y-146766299D01*
X102102501Y-146715910D01*
X102104412Y-146677465D01*
X102106428Y-146649949D01*
X102108552Y-146632349D01*
X102110786Y-146623654D01*
X102110829Y-146623569D01*
X102167010Y-146559227D01*
X102252194Y-146522531D01*
X102327196Y-146514666D01*
X102388823Y-146524528D01*
G36*
X89668851Y-156773754D02*
G01*
X89720935Y-156813955D01*
X89772250Y-156868577D01*
X89772250Y-167720256D01*
X89722808Y-167772884D01*
X89659756Y-167824057D01*
X89598105Y-167837289D01*
X89555610Y-167827433D01*
X89515098Y-167797998D01*
X89476058Y-167748177D01*
X89471733Y-167740633D01*
X89467712Y-167731963D01*
X89463979Y-167720189D01*
X89460522Y-167703757D01*
X89457328Y-167681110D01*
X89454386Y-167650692D01*
X89451681Y-167610947D01*
X89449202Y-167560318D01*
X89446935Y-167497249D01*
X89444870Y-167420184D01*
X89442992Y-167327567D01*
X89441290Y-167217842D01*
X89439750Y-167089453D01*
X89438361Y-166940842D01*
X89437109Y-166770455D01*
X89435982Y-166576735D01*
X89434968Y-166358126D01*
X89434054Y-166113071D01*
X89433227Y-165840014D01*
X89432475Y-165537400D01*
X89431786Y-165203672D01*
X89431146Y-164837273D01*
X89430543Y-164436649D01*
X89429965Y-164000241D01*
X89429398Y-163526495D01*
X89428832Y-163013854D01*
X89428252Y-162460762D01*
X89428127Y-162339621D01*
X89427553Y-161709411D01*
X89427166Y-161120973D01*
X89426967Y-160573747D01*
X89426957Y-160067173D01*
X89427139Y-159600689D01*
X89427515Y-159173737D01*
X89428086Y-158785754D01*
X89428854Y-158436181D01*
X89429820Y-158124457D01*
X89430987Y-157850021D01*
X89432356Y-157612314D01*
X89433929Y-157410774D01*
X89435708Y-157244842D01*
X89437695Y-157113956D01*
X89439890Y-157017556D01*
X89442297Y-156955082D01*
X89444916Y-156925974D01*
X89445119Y-156925129D01*
X89483113Y-156837109D01*
X89537341Y-156780817D01*
X89601391Y-156758838D01*
X89668851Y-156773754D01*
G37*
X89668851Y-156773754D02*
X89720935Y-156813955D01*
X89772250Y-156868577D01*
X89772250Y-167720256D01*
X89722808Y-167772884D01*
X89659756Y-167824057D01*
X89598105Y-167837289D01*
X89555610Y-167827433D01*
X89515098Y-167797998D01*
X89476058Y-167748177D01*
X89471733Y-167740633D01*
X89467712Y-167731963D01*
X89463979Y-167720189D01*
X89460522Y-167703757D01*
X89457328Y-167681110D01*
X89454386Y-167650692D01*
X89451681Y-167610947D01*
X89449202Y-167560318D01*
X89446935Y-167497249D01*
X89444870Y-167420184D01*
X89442992Y-167327567D01*
X89441290Y-167217842D01*
X89439750Y-167089453D01*
X89438361Y-166940842D01*
X89437109Y-166770455D01*
X89435982Y-166576735D01*
X89434968Y-166358126D01*
X89434054Y-166113071D01*
X89433227Y-165840014D01*
X89432475Y-165537400D01*
X89431786Y-165203672D01*
X89431146Y-164837273D01*
X89430543Y-164436649D01*
X89429965Y-164000241D01*
X89429398Y-163526495D01*
X89428832Y-163013854D01*
X89428252Y-162460762D01*
X89428127Y-162339621D01*
X89427553Y-161709411D01*
X89427166Y-161120973D01*
X89426967Y-160573747D01*
X89426957Y-160067173D01*
X89427139Y-159600689D01*
X89427515Y-159173737D01*
X89428086Y-158785754D01*
X89428854Y-158436181D01*
X89429820Y-158124457D01*
X89430987Y-157850021D01*
X89432356Y-157612314D01*
X89433929Y-157410774D01*
X89435708Y-157244842D01*
X89437695Y-157113956D01*
X89439890Y-157017556D01*
X89442297Y-156955082D01*
X89444916Y-156925974D01*
X89445119Y-156925129D01*
X89483113Y-156837109D01*
X89537341Y-156780817D01*
X89601391Y-156758838D01*
X89668851Y-156773754D01*
G36*
X115060101Y-156753478D02*
G01*
X115122532Y-156800445D01*
X115155357Y-156848373D01*
X115159407Y-156857130D01*
X115163165Y-156869059D01*
X115166643Y-156885732D01*
X115169855Y-156908721D01*
X115172815Y-156939596D01*
X115175534Y-156979930D01*
X115178027Y-157031294D01*
X115180307Y-157095260D01*
X115182386Y-157173398D01*
X115184279Y-157267281D01*
X115185998Y-157378480D01*
X115187556Y-157508567D01*
X115188967Y-157659113D01*
X115190244Y-157831690D01*
X115191399Y-158027868D01*
X115192447Y-158249221D01*
X115193401Y-158497318D01*
X115194273Y-158773733D01*
X115195076Y-159080035D01*
X115195825Y-159417797D01*
X115196532Y-159788590D01*
X115197211Y-160193987D01*
X115197874Y-160635557D01*
X115198535Y-161114873D01*
X115199207Y-161633507D01*
X115199845Y-162146250D01*
X115200368Y-162615777D01*
X115200771Y-163075209D01*
X115201058Y-163522669D01*
X115201231Y-163956285D01*
X115201292Y-164374182D01*
X115201244Y-164774485D01*
X115201089Y-165155322D01*
X115200830Y-165514818D01*
X115200469Y-165851098D01*
X115200008Y-166162289D01*
X115199451Y-166446517D01*
X115198799Y-166701907D01*
X115198055Y-166926585D01*
X115197221Y-167118677D01*
X115196301Y-167276310D01*
X115195296Y-167397609D01*
X115194208Y-167480700D01*
X115193041Y-167523708D01*
X115192797Y-167527351D01*
X115170858Y-167658708D01*
X115131687Y-167752652D01*
X115075627Y-167808577D01*
X115022741Y-167825204D01*
X114956008Y-167815188D01*
X114913094Y-167782360D01*
X114881092Y-167732077D01*
X114853322Y-167661492D01*
X114844560Y-167627906D01*
X114841911Y-167597931D01*
X114839479Y-167533637D01*
X114837263Y-167434517D01*
X114835261Y-167300064D01*
X114833471Y-167129774D01*
X114831892Y-166923138D01*
X114830523Y-166679652D01*
X114829362Y-166398808D01*
X114828407Y-166080100D01*
X114827657Y-165723023D01*
X114827110Y-165327069D01*
X114826764Y-164891732D01*
X114826619Y-164416507D01*
X114826673Y-163900886D01*
X114826923Y-163344364D01*
X114827368Y-162746433D01*
X114827884Y-162220333D01*
X114828495Y-161660114D01*
X114829090Y-161140668D01*
X114829679Y-160660435D01*
X114830277Y-160217855D01*
X114830896Y-159811366D01*
X114831548Y-159439410D01*
X114832246Y-159100426D01*
X114833003Y-158792853D01*
X114833831Y-158515132D01*
X114834744Y-158265701D01*
X114835754Y-158043001D01*
X114836873Y-157845472D01*
X114838116Y-157671553D01*
X114839493Y-157519684D01*
X114841018Y-157388305D01*
X114842703Y-157275856D01*
X114844562Y-157180775D01*
X114846607Y-157101504D01*
X114848850Y-157036481D01*
X114851305Y-156984147D01*
X114853984Y-156942941D01*
X114856900Y-156911303D01*
X114860065Y-156887673D01*
X114863493Y-156870490D01*
X114867195Y-156858194D01*
X114871185Y-156849225D01*
X114871643Y-156848373D01*
X114927829Y-156777442D01*
X114992924Y-156745810D01*
X115060101Y-156753478D01*
G37*
X115060101Y-156753478D02*
X115122532Y-156800445D01*
X115155357Y-156848373D01*
X115159407Y-156857130D01*
X115163165Y-156869059D01*
X115166643Y-156885732D01*
X115169855Y-156908721D01*
X115172815Y-156939596D01*
X115175534Y-156979930D01*
X115178027Y-157031294D01*
X115180307Y-157095260D01*
X115182386Y-157173398D01*
X115184279Y-157267281D01*
X115185998Y-157378480D01*
X115187556Y-157508567D01*
X115188967Y-157659113D01*
X115190244Y-157831690D01*
X115191399Y-158027868D01*
X115192447Y-158249221D01*
X115193401Y-158497318D01*
X115194273Y-158773733D01*
X115195076Y-159080035D01*
X115195825Y-159417797D01*
X115196532Y-159788590D01*
X115197211Y-160193987D01*
X115197874Y-160635557D01*
X115198535Y-161114873D01*
X115199207Y-161633507D01*
X115199845Y-162146250D01*
X115200368Y-162615777D01*
X115200771Y-163075209D01*
X115201058Y-163522669D01*
X115201231Y-163956285D01*
X115201292Y-164374182D01*
X115201244Y-164774485D01*
X115201089Y-165155322D01*
X115200830Y-165514818D01*
X115200469Y-165851098D01*
X115200008Y-166162289D01*
X115199451Y-166446517D01*
X115198799Y-166701907D01*
X115198055Y-166926585D01*
X115197221Y-167118677D01*
X115196301Y-167276310D01*
X115195296Y-167397609D01*
X115194208Y-167480700D01*
X115193041Y-167523708D01*
X115192797Y-167527351D01*
X115170858Y-167658708D01*
X115131687Y-167752652D01*
X115075627Y-167808577D01*
X115022741Y-167825204D01*
X114956008Y-167815188D01*
X114913094Y-167782360D01*
X114881092Y-167732077D01*
X114853322Y-167661492D01*
X114844560Y-167627906D01*
X114841911Y-167597931D01*
X114839479Y-167533637D01*
X114837263Y-167434517D01*
X114835261Y-167300064D01*
X114833471Y-167129774D01*
X114831892Y-166923138D01*
X114830523Y-166679652D01*
X114829362Y-166398808D01*
X114828407Y-166080100D01*
X114827657Y-165723023D01*
X114827110Y-165327069D01*
X114826764Y-164891732D01*
X114826619Y-164416507D01*
X114826673Y-163900886D01*
X114826923Y-163344364D01*
X114827368Y-162746433D01*
X114827884Y-162220333D01*
X114828495Y-161660114D01*
X114829090Y-161140668D01*
X114829679Y-160660435D01*
X114830277Y-160217855D01*
X114830896Y-159811366D01*
X114831548Y-159439410D01*
X114832246Y-159100426D01*
X114833003Y-158792853D01*
X114833831Y-158515132D01*
X114834744Y-158265701D01*
X114835754Y-158043001D01*
X114836873Y-157845472D01*
X114838116Y-157671553D01*
X114839493Y-157519684D01*
X114841018Y-157388305D01*
X114842703Y-157275856D01*
X114844562Y-157180775D01*
X114846607Y-157101504D01*
X114848850Y-157036481D01*
X114851305Y-156984147D01*
X114853984Y-156942941D01*
X114856900Y-156911303D01*
X114860065Y-156887673D01*
X114863493Y-156870490D01*
X114867195Y-156858194D01*
X114871185Y-156849225D01*
X114871643Y-156848373D01*
X114927829Y-156777442D01*
X114992924Y-156745810D01*
X115060101Y-156753478D01*
G36*
X89661537Y-138039681D02*
G01*
X89711807Y-138061144D01*
X89769937Y-138098917D01*
X89812973Y-138143139D01*
X89819396Y-138153833D01*
X89823129Y-138169761D01*
X89826521Y-138202952D01*
X89829585Y-138255097D01*
X89832336Y-138327887D01*
X89834787Y-138423015D01*
X89836952Y-138542173D01*
X89838847Y-138687052D01*
X89840485Y-138859344D01*
X89841879Y-139060742D01*
X89843045Y-139292936D01*
X89843997Y-139557619D01*
X89844747Y-139856483D01*
X89845312Y-140191219D01*
X89845704Y-140563520D01*
X89845937Y-140975077D01*
X89846021Y-141342425D01*
X89846333Y-144478100D01*
X90063292Y-144492110D01*
X90665581Y-144551168D01*
X91252160Y-144649528D01*
X91822979Y-144787171D01*
X92377983Y-144964076D01*
X92917122Y-145180223D01*
X93440343Y-145435593D01*
X93947595Y-145730164D01*
X94438824Y-146063918D01*
X94735833Y-146290926D01*
X94863202Y-146397562D01*
X95010052Y-146528798D01*
X95169215Y-146677547D01*
X95333525Y-146836716D01*
X95495815Y-146999216D01*
X95648920Y-147157957D01*
X95785672Y-147305850D01*
X95898906Y-147435802D01*
X95924737Y-147467166D01*
X96190463Y-147809898D01*
X96427129Y-148148845D01*
X96643331Y-148497404D01*
X96847665Y-148868972D01*
X96936462Y-149044083D01*
X97179626Y-149580397D01*
X97381324Y-150124510D01*
X97541736Y-150677246D01*
X97661043Y-151239429D01*
X97739425Y-151811883D01*
X97777064Y-152395434D01*
X97777586Y-152885209D01*
X97744681Y-153454565D01*
X97676237Y-154005608D01*
X97571113Y-154542879D01*
X97428166Y-155070920D01*
X97246255Y-155594273D01*
X97024239Y-156117478D01*
X96899754Y-156376596D01*
X96819617Y-156534158D01*
X96752988Y-156656788D01*
X96696763Y-156748491D01*
X96647841Y-156813273D01*
X96603120Y-156855141D01*
X96559496Y-156878100D01*
X96513867Y-156886156D01*
X96504991Y-156886333D01*
X96400771Y-156868917D01*
X96320649Y-156819637D01*
X96269293Y-156742947D01*
X96251366Y-156644297D01*
X96262316Y-156593862D01*
X96295212Y-156507938D01*
X96350129Y-156386355D01*
X96427141Y-156228942D01*
X96454636Y-156174565D01*
X96526044Y-156030686D01*
X96599813Y-155875873D01*
X96670257Y-155722487D01*
X96731688Y-155582891D01*
X96774898Y-155478428D01*
X96961638Y-154947851D01*
X97108405Y-154406044D01*
X97215024Y-153855744D01*
X97281325Y-153299690D01*
X97307134Y-152740621D01*
X97292278Y-152181274D01*
X97236585Y-151624389D01*
X97139883Y-151072704D01*
X97071021Y-150779750D01*
X96910623Y-150237638D01*
X96713008Y-149713830D01*
X96479779Y-149209752D01*
X96212545Y-148726831D01*
X95912909Y-148266494D01*
X95582479Y-147830169D01*
X95222860Y-147419282D01*
X94835657Y-147035259D01*
X94422477Y-146679529D01*
X93984925Y-146353518D01*
X93524608Y-146058652D01*
X93043131Y-145796360D01*
X92542099Y-145568067D01*
X92023119Y-145375202D01*
X91487797Y-145219190D01*
X90937738Y-145101460D01*
X90626692Y-145053163D01*
X90270231Y-145016223D01*
X89888148Y-144996603D01*
X89493385Y-144994170D01*
X89098887Y-145008788D01*
X88717598Y-145040323D01*
X88442041Y-145075913D01*
X87895614Y-145180377D01*
X87356268Y-145325573D01*
X86827255Y-145510070D01*
X86311828Y-145732441D01*
X85813239Y-145991256D01*
X85334741Y-146285086D01*
X84879588Y-146612502D01*
X84798083Y-146676738D01*
X84652719Y-146798611D01*
X84489258Y-146945268D01*
X84316091Y-147108470D01*
X84141608Y-147279978D01*
X83974198Y-147451552D01*
X83822252Y-147614953D01*
X83699330Y-147755751D01*
X83350059Y-148205513D01*
X83037064Y-148676740D01*
X82760848Y-149168260D01*
X82521917Y-149678899D01*
X82320773Y-150207485D01*
X82157921Y-150752845D01*
X82033864Y-151313806D01*
X81958769Y-151806333D01*
X81941740Y-151985683D01*
X81929610Y-152196506D01*
X81922380Y-152428225D01*
X81920051Y-152670265D01*
X81922623Y-152912048D01*
X81930098Y-153143000D01*
X81942477Y-153352542D01*
X81958621Y-153520833D01*
X82044358Y-154078064D01*
X82164605Y-154613975D01*
X82321036Y-155133961D01*
X82515326Y-155643422D01*
X82749147Y-156147753D01*
X82809888Y-156265874D01*
X82880781Y-156405116D01*
X82930389Y-156514288D01*
X82959639Y-156599355D01*
X82969459Y-156666285D01*
X82960778Y-156721045D01*
X82934524Y-156769599D01*
X82895200Y-156814366D01*
X82812967Y-156871886D01*
X82725276Y-156889069D01*
X82637924Y-156865561D01*
X82589572Y-156833033D01*
X82557214Y-156794031D01*
X82511017Y-156722084D01*
X82453976Y-156623087D01*
X82389089Y-156502935D01*
X82319351Y-156367526D01*
X82247760Y-156222754D01*
X82177311Y-156074515D01*
X82111003Y-155928704D01*
X82051830Y-155791219D01*
X82019584Y-155711583D01*
X81841508Y-155215398D01*
X81696032Y-154714122D01*
X81580884Y-154198687D01*
X81493792Y-153660024D01*
X81481325Y-153563166D01*
X81472051Y-153461010D01*
X81464551Y-153320166D01*
X81458934Y-153144247D01*
X81455312Y-152936865D01*
X81453792Y-152701632D01*
X81453750Y-152653000D01*
X81454590Y-152416061D01*
X81457612Y-152212921D01*
X81463568Y-152035070D01*
X81473208Y-151873999D01*
X81487284Y-151721198D01*
X81506548Y-151568155D01*
X81531752Y-151406363D01*
X81563646Y-151227310D01*
X81593426Y-151071350D01*
X81723982Y-150509983D01*
X81893521Y-149962833D01*
X82100587Y-149431592D01*
X82343725Y-148917953D01*
X82621479Y-148423610D01*
X82932394Y-147950255D01*
X83275013Y-147499582D01*
X83647882Y-147073283D01*
X84049544Y-146673050D01*
X84478545Y-146300578D01*
X84933428Y-145957559D01*
X85412738Y-145645686D01*
X85915020Y-145366651D01*
X86438818Y-145122148D01*
X86846358Y-144961926D01*
X87335080Y-144804270D01*
X87849437Y-144675669D01*
X88383118Y-144577403D01*
X88929813Y-144510749D01*
X89163708Y-144492362D01*
X89380667Y-144478100D01*
X89380667Y-141329404D01*
X89380672Y-140903076D01*
X89380705Y-140517041D01*
X89380795Y-140169262D01*
X89380969Y-139857699D01*
X89381254Y-139580312D01*
X89381678Y-139335063D01*
X89382269Y-139119912D01*
X89383055Y-138932820D01*
X89384063Y-138771748D01*
X89385321Y-138634656D01*
X89386856Y-138519507D01*
X89388696Y-138424260D01*
X89390870Y-138346876D01*
X89393404Y-138285316D01*
X89396326Y-138237541D01*
X89399664Y-138201511D01*
X89403445Y-138175189D01*
X89407698Y-138156533D01*
X89412449Y-138143506D01*
X89417727Y-138134068D01*
X89423559Y-138126180D01*
X89424135Y-138125447D01*
X89473919Y-138082398D01*
X89539233Y-138049014D01*
X89549068Y-138045778D01*
X89610282Y-138032706D01*
X89661537Y-138039681D01*
G37*
X89661537Y-138039681D02*
X89711807Y-138061144D01*
X89769937Y-138098917D01*
X89812973Y-138143139D01*
X89819396Y-138153833D01*
X89823129Y-138169761D01*
X89826521Y-138202952D01*
X89829585Y-138255097D01*
X89832336Y-138327887D01*
X89834787Y-138423015D01*
X89836952Y-138542173D01*
X89838847Y-138687052D01*
X89840485Y-138859344D01*
X89841879Y-139060742D01*
X89843045Y-139292936D01*
X89843997Y-139557619D01*
X89844747Y-139856483D01*
X89845312Y-140191219D01*
X89845704Y-140563520D01*
X89845937Y-140975077D01*
X89846021Y-141342425D01*
X89846333Y-144478100D01*
X90063292Y-144492110D01*
X90665581Y-144551168D01*
X91252160Y-144649528D01*
X91822979Y-144787171D01*
X92377983Y-144964076D01*
X92917122Y-145180223D01*
X93440343Y-145435593D01*
X93947595Y-145730164D01*
X94438824Y-146063918D01*
X94735833Y-146290926D01*
X94863202Y-146397562D01*
X95010052Y-146528798D01*
X95169215Y-146677547D01*
X95333525Y-146836716D01*
X95495815Y-146999216D01*
X95648920Y-147157957D01*
X95785672Y-147305850D01*
X95898906Y-147435802D01*
X95924737Y-147467166D01*
X96190463Y-147809898D01*
X96427129Y-148148845D01*
X96643331Y-148497404D01*
X96847665Y-148868972D01*
X96936462Y-149044083D01*
X97179626Y-149580397D01*
X97381324Y-150124510D01*
X97541736Y-150677246D01*
X97661043Y-151239429D01*
X97739425Y-151811883D01*
X97777064Y-152395434D01*
X97777586Y-152885209D01*
X97744681Y-153454565D01*
X97676237Y-154005608D01*
X97571113Y-154542879D01*
X97428166Y-155070920D01*
X97246255Y-155594273D01*
X97024239Y-156117478D01*
X96899754Y-156376596D01*
X96819617Y-156534158D01*
X96752988Y-156656788D01*
X96696763Y-156748491D01*
X96647841Y-156813273D01*
X96603120Y-156855141D01*
X96559496Y-156878100D01*
X96513867Y-156886156D01*
X96504991Y-156886333D01*
X96400771Y-156868917D01*
X96320649Y-156819637D01*
X96269293Y-156742947D01*
X96251366Y-156644297D01*
X96262316Y-156593862D01*
X96295212Y-156507938D01*
X96350129Y-156386355D01*
X96427141Y-156228942D01*
X96454636Y-156174565D01*
X96526044Y-156030686D01*
X96599813Y-155875873D01*
X96670257Y-155722487D01*
X96731688Y-155582891D01*
X96774898Y-155478428D01*
X96961638Y-154947851D01*
X97108405Y-154406044D01*
X97215024Y-153855744D01*
X97281325Y-153299690D01*
X97307134Y-152740621D01*
X97292278Y-152181274D01*
X97236585Y-151624389D01*
X97139883Y-151072704D01*
X97071021Y-150779750D01*
X96910623Y-150237638D01*
X96713008Y-149713830D01*
X96479779Y-149209752D01*
X96212545Y-148726831D01*
X95912909Y-148266494D01*
X95582479Y-147830169D01*
X95222860Y-147419282D01*
X94835657Y-147035259D01*
X94422477Y-146679529D01*
X93984925Y-146353518D01*
X93524608Y-146058652D01*
X93043131Y-145796360D01*
X92542099Y-145568067D01*
X92023119Y-145375202D01*
X91487797Y-145219190D01*
X90937738Y-145101460D01*
X90626692Y-145053163D01*
X90270231Y-145016223D01*
X89888148Y-144996603D01*
X89493385Y-144994170D01*
X89098887Y-145008788D01*
X88717598Y-145040323D01*
X88442041Y-145075913D01*
X87895614Y-145180377D01*
X87356268Y-145325573D01*
X86827255Y-145510070D01*
X86311828Y-145732441D01*
X85813239Y-145991256D01*
X85334741Y-146285086D01*
X84879588Y-146612502D01*
X84798083Y-146676738D01*
X84652719Y-146798611D01*
X84489258Y-146945268D01*
X84316091Y-147108470D01*
X84141608Y-147279978D01*
X83974198Y-147451552D01*
X83822252Y-147614953D01*
X83699330Y-147755751D01*
X83350059Y-148205513D01*
X83037064Y-148676740D01*
X82760848Y-149168260D01*
X82521917Y-149678899D01*
X82320773Y-150207485D01*
X82157921Y-150752845D01*
X82033864Y-151313806D01*
X81958769Y-151806333D01*
X81941740Y-151985683D01*
X81929610Y-152196506D01*
X81922380Y-152428225D01*
X81920051Y-152670265D01*
X81922623Y-152912048D01*
X81930098Y-153143000D01*
X81942477Y-153352542D01*
X81958621Y-153520833D01*
X82044358Y-154078064D01*
X82164605Y-154613975D01*
X82321036Y-155133961D01*
X82515326Y-155643422D01*
X82749147Y-156147753D01*
X82809888Y-156265874D01*
X82880781Y-156405116D01*
X82930389Y-156514288D01*
X82959639Y-156599355D01*
X82969459Y-156666285D01*
X82960778Y-156721045D01*
X82934524Y-156769599D01*
X82895200Y-156814366D01*
X82812967Y-156871886D01*
X82725276Y-156889069D01*
X82637924Y-156865561D01*
X82589572Y-156833033D01*
X82557214Y-156794031D01*
X82511017Y-156722084D01*
X82453976Y-156623087D01*
X82389089Y-156502935D01*
X82319351Y-156367526D01*
X82247760Y-156222754D01*
X82177311Y-156074515D01*
X82111003Y-155928704D01*
X82051830Y-155791219D01*
X82019584Y-155711583D01*
X81841508Y-155215398D01*
X81696032Y-154714122D01*
X81580884Y-154198687D01*
X81493792Y-153660024D01*
X81481325Y-153563166D01*
X81472051Y-153461010D01*
X81464551Y-153320166D01*
X81458934Y-153144247D01*
X81455312Y-152936865D01*
X81453792Y-152701632D01*
X81453750Y-152653000D01*
X81454590Y-152416061D01*
X81457612Y-152212921D01*
X81463568Y-152035070D01*
X81473208Y-151873999D01*
X81487284Y-151721198D01*
X81506548Y-151568155D01*
X81531752Y-151406363D01*
X81563646Y-151227310D01*
X81593426Y-151071350D01*
X81723982Y-150509983D01*
X81893521Y-149962833D01*
X82100587Y-149431592D01*
X82343725Y-148917953D01*
X82621479Y-148423610D01*
X82932394Y-147950255D01*
X83275013Y-147499582D01*
X83647882Y-147073283D01*
X84049544Y-146673050D01*
X84478545Y-146300578D01*
X84933428Y-145957559D01*
X85412738Y-145645686D01*
X85915020Y-145366651D01*
X86438818Y-145122148D01*
X86846358Y-144961926D01*
X87335080Y-144804270D01*
X87849437Y-144675669D01*
X88383118Y-144577403D01*
X88929813Y-144510749D01*
X89163708Y-144492362D01*
X89380667Y-144478100D01*
X89380667Y-141329404D01*
X89380672Y-140903076D01*
X89380705Y-140517041D01*
X89380795Y-140169262D01*
X89380969Y-139857699D01*
X89381254Y-139580312D01*
X89381678Y-139335063D01*
X89382269Y-139119912D01*
X89383055Y-138932820D01*
X89384063Y-138771748D01*
X89385321Y-138634656D01*
X89386856Y-138519507D01*
X89388696Y-138424260D01*
X89390870Y-138346876D01*
X89393404Y-138285316D01*
X89396326Y-138237541D01*
X89399664Y-138201511D01*
X89403445Y-138175189D01*
X89407698Y-138156533D01*
X89412449Y-138143506D01*
X89417727Y-138134068D01*
X89423559Y-138126180D01*
X89424135Y-138125447D01*
X89473919Y-138082398D01*
X89539233Y-138049014D01*
X89549068Y-138045778D01*
X89610282Y-138032706D01*
X89661537Y-138039681D01*
G36*
X115088311Y-138038107D02*
G01*
X115154126Y-138077819D01*
X115166624Y-138088595D01*
X115235750Y-138150357D01*
X115241246Y-141314551D01*
X115246742Y-144478746D01*
X115452913Y-144492812D01*
X116043556Y-144550652D01*
X116610992Y-144642521D01*
X117158505Y-144769425D01*
X117689376Y-144932371D01*
X118206888Y-145132366D01*
X118714322Y-145370417D01*
X119211694Y-145645583D01*
X119680323Y-145948640D01*
X120130794Y-146288112D01*
X120559934Y-146660821D01*
X120964567Y-147063589D01*
X121341520Y-147493238D01*
X121687618Y-147946590D01*
X121999686Y-148420467D01*
X122024787Y-148462000D01*
X122307505Y-148973189D01*
X122551149Y-149499671D01*
X122756010Y-150042281D01*
X122922376Y-150601853D01*
X123050536Y-151179223D01*
X123122026Y-151626416D01*
X123142520Y-151812682D01*
X123158957Y-152030009D01*
X123171050Y-152267290D01*
X123178512Y-152513422D01*
X123181057Y-152757299D01*
X123178399Y-152987817D01*
X123170252Y-153193870D01*
X123164580Y-153277416D01*
X123102527Y-153841892D01*
X123006701Y-154385441D01*
X122875451Y-154914017D01*
X122707124Y-155433578D01*
X122500070Y-155950077D01*
X122311723Y-156352431D01*
X122232058Y-156510810D01*
X122166670Y-156634774D01*
X122112281Y-156728432D01*
X122065611Y-156795890D01*
X122023380Y-156841256D01*
X121982308Y-156868636D01*
X121939117Y-156882136D01*
X121890525Y-156885866D01*
X121885751Y-156885862D01*
X121789542Y-156867153D01*
X121716488Y-156815147D01*
X121670644Y-156734328D01*
X121656018Y-156631838D01*
X121667446Y-156569741D01*
X121701414Y-156483227D01*
X121759567Y-156368247D01*
X121773631Y-156342585D01*
X122014782Y-155864181D01*
X122222310Y-155361561D01*
X122395456Y-154837194D01*
X122533464Y-154293545D01*
X122635577Y-153733082D01*
X122678862Y-153393833D01*
X122691182Y-153241053D01*
X122699451Y-153056445D01*
X122703747Y-152850313D01*
X122704147Y-152632962D01*
X122700728Y-152414695D01*
X122693568Y-152205817D01*
X122682742Y-152016631D01*
X122668329Y-151857442D01*
X122667304Y-151848666D01*
X122578171Y-151266661D01*
X122451200Y-150703475D01*
X122286489Y-150159313D01*
X122084133Y-149634377D01*
X121844229Y-149128872D01*
X121566873Y-148643001D01*
X121252162Y-148176970D01*
X120900191Y-147730982D01*
X120533560Y-147328266D01*
X120116481Y-146929455D01*
X119676102Y-146565631D01*
X119213548Y-146237438D01*
X118729943Y-145945520D01*
X118226411Y-145690524D01*
X117704077Y-145473092D01*
X117164064Y-145293871D01*
X116830414Y-145204550D01*
X116551874Y-145140959D01*
X116288420Y-145090853D01*
X116029717Y-145053076D01*
X115765428Y-145026471D01*
X115485219Y-145009882D01*
X115178752Y-145002153D01*
X115013500Y-145001250D01*
X114692522Y-145004925D01*
X114402839Y-145016732D01*
X114133989Y-145037841D01*
X113875509Y-145069424D01*
X113616938Y-145112651D01*
X113347814Y-145168694D01*
X113193167Y-145205002D01*
X112652285Y-145357875D01*
X112126446Y-145549477D01*
X111617563Y-145778295D01*
X111127550Y-146042812D01*
X110658320Y-146341512D01*
X110211785Y-146672880D01*
X109789860Y-147035401D01*
X109394457Y-147427559D01*
X109027490Y-147847838D01*
X108690872Y-148294724D01*
X108386516Y-148766699D01*
X108146255Y-149202833D01*
X107912327Y-149706231D01*
X107716754Y-150222730D01*
X107558797Y-150754836D01*
X107437720Y-151305054D01*
X107352785Y-151875888D01*
X107348675Y-151912166D01*
X107338346Y-152036136D01*
X107330592Y-152192954D01*
X107325416Y-152373215D01*
X107322823Y-152567511D01*
X107322815Y-152766436D01*
X107325396Y-152960585D01*
X107330570Y-153140549D01*
X107338340Y-153296924D01*
X107348122Y-153415000D01*
X107431716Y-153995529D01*
X107554369Y-154560063D01*
X107716418Y-155109717D01*
X107918200Y-155645607D01*
X108160052Y-156168850D01*
X108210009Y-156265874D01*
X108278491Y-156400538D01*
X108326360Y-156505731D01*
X108355240Y-156588002D01*
X108366758Y-156653901D01*
X108362541Y-156709978D01*
X108344213Y-156762782D01*
X108337004Y-156777430D01*
X108282188Y-156841650D01*
X108205775Y-156878244D01*
X108119654Y-156885488D01*
X108035710Y-156861660D01*
X107987328Y-156828125D01*
X107956060Y-156789462D01*
X107910976Y-156720839D01*
X107856949Y-156630280D01*
X107798847Y-156525809D01*
X107765652Y-156462877D01*
X107520704Y-155948410D01*
X107314037Y-155425847D01*
X107144241Y-154890627D01*
X107009906Y-154338191D01*
X106909624Y-153763978D01*
X106892377Y-153637250D01*
X106879869Y-153512723D01*
X106869627Y-153354797D01*
X106861701Y-153171419D01*
X106856138Y-152970537D01*
X106852986Y-152760098D01*
X106852294Y-152548050D01*
X106854109Y-152342339D01*
X106858481Y-152150913D01*
X106865457Y-151981720D01*
X106875086Y-151842707D01*
X106881135Y-151785166D01*
X106969599Y-151207607D01*
X107090226Y-150653587D01*
X107244389Y-150117591D01*
X107416589Y-149636750D01*
X107481960Y-149480734D01*
X107564859Y-149299049D01*
X107660144Y-149101778D01*
X107762669Y-148899002D01*
X107867291Y-148700801D01*
X107968865Y-148517259D01*
X108062248Y-148358456D01*
X108098133Y-148301023D01*
X108436656Y-147809539D01*
X108804707Y-147347296D01*
X109201097Y-146915378D01*
X109624637Y-146514864D01*
X110074136Y-146146837D01*
X110548404Y-145812379D01*
X111046252Y-145512571D01*
X111329905Y-145362730D01*
X111818953Y-145134657D01*
X112309210Y-144942775D01*
X112806430Y-144785543D01*
X113316364Y-144661417D01*
X113844763Y-144568855D01*
X114397380Y-144506315D01*
X114574087Y-144492812D01*
X114780258Y-144478746D01*
X114785754Y-141314551D01*
X114791250Y-138150357D01*
X114860375Y-138088595D01*
X114926890Y-138042866D01*
X114998485Y-138027155D01*
X115013500Y-138026833D01*
X115088311Y-138038107D01*
G37*
X115088311Y-138038107D02*
X115154126Y-138077819D01*
X115166624Y-138088595D01*
X115235750Y-138150357D01*
X115241246Y-141314551D01*
X115246742Y-144478746D01*
X115452913Y-144492812D01*
X116043556Y-144550652D01*
X116610992Y-144642521D01*
X117158505Y-144769425D01*
X117689376Y-144932371D01*
X118206888Y-145132366D01*
X118714322Y-145370417D01*
X119211694Y-145645583D01*
X119680323Y-145948640D01*
X120130794Y-146288112D01*
X120559934Y-146660821D01*
X120964567Y-147063589D01*
X121341520Y-147493238D01*
X121687618Y-147946590D01*
X121999686Y-148420467D01*
X122024787Y-148462000D01*
X122307505Y-148973189D01*
X122551149Y-149499671D01*
X122756010Y-150042281D01*
X122922376Y-150601853D01*
X123050536Y-151179223D01*
X123122026Y-151626416D01*
X123142520Y-151812682D01*
X123158957Y-152030009D01*
X123171050Y-152267290D01*
X123178512Y-152513422D01*
X123181057Y-152757299D01*
X123178399Y-152987817D01*
X123170252Y-153193870D01*
X123164580Y-153277416D01*
X123102527Y-153841892D01*
X123006701Y-154385441D01*
X122875451Y-154914017D01*
X122707124Y-155433578D01*
X122500070Y-155950077D01*
X122311723Y-156352431D01*
X122232058Y-156510810D01*
X122166670Y-156634774D01*
X122112281Y-156728432D01*
X122065611Y-156795890D01*
X122023380Y-156841256D01*
X121982308Y-156868636D01*
X121939117Y-156882136D01*
X121890525Y-156885866D01*
X121885751Y-156885862D01*
X121789542Y-156867153D01*
X121716488Y-156815147D01*
X121670644Y-156734328D01*
X121656018Y-156631838D01*
X121667446Y-156569741D01*
X121701414Y-156483227D01*
X121759567Y-156368247D01*
X121773631Y-156342585D01*
X122014782Y-155864181D01*
X122222310Y-155361561D01*
X122395456Y-154837194D01*
X122533464Y-154293545D01*
X122635577Y-153733082D01*
X122678862Y-153393833D01*
X122691182Y-153241053D01*
X122699451Y-153056445D01*
X122703747Y-152850313D01*
X122704147Y-152632962D01*
X122700728Y-152414695D01*
X122693568Y-152205817D01*
X122682742Y-152016631D01*
X122668329Y-151857442D01*
X122667304Y-151848666D01*
X122578171Y-151266661D01*
X122451200Y-150703475D01*
X122286489Y-150159313D01*
X122084133Y-149634377D01*
X121844229Y-149128872D01*
X121566873Y-148643001D01*
X121252162Y-148176970D01*
X120900191Y-147730982D01*
X120533560Y-147328266D01*
X120116481Y-146929455D01*
X119676102Y-146565631D01*
X119213548Y-146237438D01*
X118729943Y-145945520D01*
X118226411Y-145690524D01*
X117704077Y-145473092D01*
X117164064Y-145293871D01*
X116830414Y-145204550D01*
X116551874Y-145140959D01*
X116288420Y-145090853D01*
X116029717Y-145053076D01*
X115765428Y-145026471D01*
X115485219Y-145009882D01*
X115178752Y-145002153D01*
X115013500Y-145001250D01*
X114692522Y-145004925D01*
X114402839Y-145016732D01*
X114133989Y-145037841D01*
X113875509Y-145069424D01*
X113616938Y-145112651D01*
X113347814Y-145168694D01*
X113193167Y-145205002D01*
X112652285Y-145357875D01*
X112126446Y-145549477D01*
X111617563Y-145778295D01*
X111127550Y-146042812D01*
X110658320Y-146341512D01*
X110211785Y-146672880D01*
X109789860Y-147035401D01*
X109394457Y-147427559D01*
X109027490Y-147847838D01*
X108690872Y-148294724D01*
X108386516Y-148766699D01*
X108146255Y-149202833D01*
X107912327Y-149706231D01*
X107716754Y-150222730D01*
X107558797Y-150754836D01*
X107437720Y-151305054D01*
X107352785Y-151875888D01*
X107348675Y-151912166D01*
X107338346Y-152036136D01*
X107330592Y-152192954D01*
X107325416Y-152373215D01*
X107322823Y-152567511D01*
X107322815Y-152766436D01*
X107325396Y-152960585D01*
X107330570Y-153140549D01*
X107338340Y-153296924D01*
X107348122Y-153415000D01*
X107431716Y-153995529D01*
X107554369Y-154560063D01*
X107716418Y-155109717D01*
X107918200Y-155645607D01*
X108160052Y-156168850D01*
X108210009Y-156265874D01*
X108278491Y-156400538D01*
X108326360Y-156505731D01*
X108355240Y-156588002D01*
X108366758Y-156653901D01*
X108362541Y-156709978D01*
X108344213Y-156762782D01*
X108337004Y-156777430D01*
X108282188Y-156841650D01*
X108205775Y-156878244D01*
X108119654Y-156885488D01*
X108035710Y-156861660D01*
X107987328Y-156828125D01*
X107956060Y-156789462D01*
X107910976Y-156720839D01*
X107856949Y-156630280D01*
X107798847Y-156525809D01*
X107765652Y-156462877D01*
X107520704Y-155948410D01*
X107314037Y-155425847D01*
X107144241Y-154890627D01*
X107009906Y-154338191D01*
X106909624Y-153763978D01*
X106892377Y-153637250D01*
X106879869Y-153512723D01*
X106869627Y-153354797D01*
X106861701Y-153171419D01*
X106856138Y-152970537D01*
X106852986Y-152760098D01*
X106852294Y-152548050D01*
X106854109Y-152342339D01*
X106858481Y-152150913D01*
X106865457Y-151981720D01*
X106875086Y-151842707D01*
X106881135Y-151785166D01*
X106969599Y-151207607D01*
X107090226Y-150653587D01*
X107244389Y-150117591D01*
X107416589Y-149636750D01*
X107481960Y-149480734D01*
X107564859Y-149299049D01*
X107660144Y-149101778D01*
X107762669Y-148899002D01*
X107867291Y-148700801D01*
X107968865Y-148517259D01*
X108062248Y-148358456D01*
X108098133Y-148301023D01*
X108436656Y-147809539D01*
X108804707Y-147347296D01*
X109201097Y-146915378D01*
X109624637Y-146514864D01*
X110074136Y-146146837D01*
X110548404Y-145812379D01*
X111046252Y-145512571D01*
X111329905Y-145362730D01*
X111818953Y-145134657D01*
X112309210Y-144942775D01*
X112806430Y-144785543D01*
X113316364Y-144661417D01*
X113844763Y-144568855D01*
X114397380Y-144506315D01*
X114574087Y-144492812D01*
X114780258Y-144478746D01*
X114785754Y-141314551D01*
X114791250Y-138150357D01*
X114860375Y-138088595D01*
X114926890Y-138042866D01*
X114998485Y-138027155D01*
X115013500Y-138026833D01*
X115088311Y-138038107D01*
G36*
X108713286Y-133412778D02*
G01*
X109060805Y-133412871D01*
X109372141Y-133413054D01*
X109649345Y-133413352D01*
X109894468Y-133413793D01*
X110109558Y-133414405D01*
X110296667Y-133415213D01*
X110457844Y-133416245D01*
X110595141Y-133417528D01*
X110710607Y-133419089D01*
X110806293Y-133420954D01*
X110884249Y-133423150D01*
X110946524Y-133425705D01*
X110995170Y-133428645D01*
X111032237Y-133431997D01*
X111059775Y-133435789D01*
X111079834Y-133440046D01*
X111094464Y-133444796D01*
X111105717Y-133450066D01*
X111114069Y-133454922D01*
X111177718Y-133515110D01*
X111214518Y-133594400D01*
X111224436Y-133681830D01*
X111207437Y-133766442D01*
X111163489Y-133837275D01*
X111115347Y-133873483D01*
X111098714Y-133877105D01*
X111062349Y-133880443D01*
X111004703Y-133883514D01*
X110924225Y-133886332D01*
X110819367Y-133888913D01*
X110688577Y-133891270D01*
X110530306Y-133893421D01*
X110343005Y-133895378D01*
X110125123Y-133897158D01*
X109875111Y-133898776D01*
X109591418Y-133900247D01*
X109272495Y-133901585D01*
X108916792Y-133902805D01*
X108522759Y-133903924D01*
X108088847Y-133904955D01*
X107816833Y-133905523D01*
X107383236Y-133906394D01*
X106989882Y-133907219D01*
X106634681Y-133908028D01*
X106315543Y-133908852D01*
X106030377Y-133909723D01*
X105777094Y-133910670D01*
X105553602Y-133911725D01*
X105357814Y-133912919D01*
X105187637Y-133914282D01*
X105040981Y-133915845D01*
X104915758Y-133917640D01*
X104809876Y-133919697D01*
X104721245Y-133922046D01*
X104647775Y-133924719D01*
X104587376Y-133927747D01*
X104537959Y-133931160D01*
X104497431Y-133934989D01*
X104463704Y-133939265D01*
X104434688Y-133944019D01*
X104408291Y-133949282D01*
X104382425Y-133955085D01*
X104377250Y-133956285D01*
X104068369Y-134048319D01*
X103781562Y-134174746D01*
X103518939Y-134333709D01*
X103282613Y-134523352D01*
X103074696Y-134741819D01*
X102897299Y-134987255D01*
X102752534Y-135257804D01*
X102674766Y-135452437D01*
X102653439Y-135514173D01*
X102634619Y-135571748D01*
X102618146Y-135628106D01*
X102603866Y-135686190D01*
X102591621Y-135748942D01*
X102581254Y-135819305D01*
X102572610Y-135900221D01*
X102565531Y-135994635D01*
X102559860Y-136105489D01*
X102555442Y-136235725D01*
X102552119Y-136388286D01*
X102549735Y-136566116D01*
X102548133Y-136772157D01*
X102547157Y-137009353D01*
X102546650Y-137280645D01*
X102546455Y-137588977D01*
X102546418Y-137863842D01*
X102546433Y-138193121D01*
X102546400Y-138482700D01*
X102546150Y-138735216D01*
X102545518Y-138953303D01*
X102544336Y-139139595D01*
X102542436Y-139296727D01*
X102539653Y-139427333D01*
X102535819Y-139534049D01*
X102530767Y-139619509D01*
X102524330Y-139686348D01*
X102516340Y-139737200D01*
X102506632Y-139774699D01*
X102495037Y-139801482D01*
X102481389Y-139820181D01*
X102465521Y-139833432D01*
X102447266Y-139843870D01*
X102426456Y-139854129D01*
X102420026Y-139857391D01*
X102332353Y-139886490D01*
X102249744Y-139876246D01*
X102195396Y-139849590D01*
X102142688Y-139804304D01*
X102105350Y-139749777D01*
X102104599Y-139748010D01*
X102100018Y-139726998D01*
X102096055Y-139686233D01*
X102092692Y-139623663D01*
X102089909Y-139537237D01*
X102087689Y-139424901D01*
X102086011Y-139284603D01*
X102084858Y-139114292D01*
X102084211Y-138911915D01*
X102084052Y-138675419D01*
X102084361Y-138402754D01*
X102085120Y-138091865D01*
X102086309Y-137740701D01*
X102086312Y-137739965D01*
X102087559Y-137401757D01*
X102088706Y-137102966D01*
X102089916Y-136840678D01*
X102091351Y-136611976D01*
X102093172Y-136413947D01*
X102095544Y-136243673D01*
X102098626Y-136098242D01*
X102102583Y-135974736D01*
X102107575Y-135870241D01*
X102113766Y-135781843D01*
X102121317Y-135706625D01*
X102130390Y-135641672D01*
X102141149Y-135584070D01*
X102153754Y-135530902D01*
X102168369Y-135479255D01*
X102185155Y-135426212D01*
X102204274Y-135368859D01*
X102221030Y-135318902D01*
X102344928Y-135011493D01*
X102505638Y-134718126D01*
X102698710Y-134446019D01*
X102894880Y-134226842D01*
X103151125Y-133999775D01*
X103428588Y-133809250D01*
X103726511Y-133655625D01*
X104044135Y-133539261D01*
X104380699Y-133460517D01*
X104567750Y-133434020D01*
X104616624Y-133431013D01*
X104706525Y-133428203D01*
X104836144Y-133425600D01*
X105004174Y-133423212D01*
X105209309Y-133421047D01*
X105450242Y-133419113D01*
X105725664Y-133417419D01*
X106034270Y-133415974D01*
X106374751Y-133414785D01*
X106745802Y-133413860D01*
X107146114Y-133413209D01*
X107574381Y-133412840D01*
X107901500Y-133412752D01*
X108327535Y-133412748D01*
X108713286Y-133412778D01*
G37*
X108713286Y-133412778D02*
X109060805Y-133412871D01*
X109372141Y-133413054D01*
X109649345Y-133413352D01*
X109894468Y-133413793D01*
X110109558Y-133414405D01*
X110296667Y-133415213D01*
X110457844Y-133416245D01*
X110595141Y-133417528D01*
X110710607Y-133419089D01*
X110806293Y-133420954D01*
X110884249Y-133423150D01*
X110946524Y-133425705D01*
X110995170Y-133428645D01*
X111032237Y-133431997D01*
X111059775Y-133435789D01*
X111079834Y-133440046D01*
X111094464Y-133444796D01*
X111105717Y-133450066D01*
X111114069Y-133454922D01*
X111177718Y-133515110D01*
X111214518Y-133594400D01*
X111224436Y-133681830D01*
X111207437Y-133766442D01*
X111163489Y-133837275D01*
X111115347Y-133873483D01*
X111098714Y-133877105D01*
X111062349Y-133880443D01*
X111004703Y-133883514D01*
X110924225Y-133886332D01*
X110819367Y-133888913D01*
X110688577Y-133891270D01*
X110530306Y-133893421D01*
X110343005Y-133895378D01*
X110125123Y-133897158D01*
X109875111Y-133898776D01*
X109591418Y-133900247D01*
X109272495Y-133901585D01*
X108916792Y-133902805D01*
X108522759Y-133903924D01*
X108088847Y-133904955D01*
X107816833Y-133905523D01*
X107383236Y-133906394D01*
X106989882Y-133907219D01*
X106634681Y-133908028D01*
X106315543Y-133908852D01*
X106030377Y-133909723D01*
X105777094Y-133910670D01*
X105553602Y-133911725D01*
X105357814Y-133912919D01*
X105187637Y-133914282D01*
X105040981Y-133915845D01*
X104915758Y-133917640D01*
X104809876Y-133919697D01*
X104721245Y-133922046D01*
X104647775Y-133924719D01*
X104587376Y-133927747D01*
X104537959Y-133931160D01*
X104497431Y-133934989D01*
X104463704Y-133939265D01*
X104434688Y-133944019D01*
X104408291Y-133949282D01*
X104382425Y-133955085D01*
X104377250Y-133956285D01*
X104068369Y-134048319D01*
X103781562Y-134174746D01*
X103518939Y-134333709D01*
X103282613Y-134523352D01*
X103074696Y-134741819D01*
X102897299Y-134987255D01*
X102752534Y-135257804D01*
X102674766Y-135452437D01*
X102653439Y-135514173D01*
X102634619Y-135571748D01*
X102618146Y-135628106D01*
X102603866Y-135686190D01*
X102591621Y-135748942D01*
X102581254Y-135819305D01*
X102572610Y-135900221D01*
X102565531Y-135994635D01*
X102559860Y-136105489D01*
X102555442Y-136235725D01*
X102552119Y-136388286D01*
X102549735Y-136566116D01*
X102548133Y-136772157D01*
X102547157Y-137009353D01*
X102546650Y-137280645D01*
X102546455Y-137588977D01*
X102546418Y-137863842D01*
X102546433Y-138193121D01*
X102546400Y-138482700D01*
X102546150Y-138735216D01*
X102545518Y-138953303D01*
X102544336Y-139139595D01*
X102542436Y-139296727D01*
X102539653Y-139427333D01*
X102535819Y-139534049D01*
X102530767Y-139619509D01*
X102524330Y-139686348D01*
X102516340Y-139737200D01*
X102506632Y-139774699D01*
X102495037Y-139801482D01*
X102481389Y-139820181D01*
X102465521Y-139833432D01*
X102447266Y-139843870D01*
X102426456Y-139854129D01*
X102420026Y-139857391D01*
X102332353Y-139886490D01*
X102249744Y-139876246D01*
X102195396Y-139849590D01*
X102142688Y-139804304D01*
X102105350Y-139749777D01*
X102104599Y-139748010D01*
X102100018Y-139726998D01*
X102096055Y-139686233D01*
X102092692Y-139623663D01*
X102089909Y-139537237D01*
X102087689Y-139424901D01*
X102086011Y-139284603D01*
X102084858Y-139114292D01*
X102084211Y-138911915D01*
X102084052Y-138675419D01*
X102084361Y-138402754D01*
X102085120Y-138091865D01*
X102086309Y-137740701D01*
X102086312Y-137739965D01*
X102087559Y-137401757D01*
X102088706Y-137102966D01*
X102089916Y-136840678D01*
X102091351Y-136611976D01*
X102093172Y-136413947D01*
X102095544Y-136243673D01*
X102098626Y-136098242D01*
X102102583Y-135974736D01*
X102107575Y-135870241D01*
X102113766Y-135781843D01*
X102121317Y-135706625D01*
X102130390Y-135641672D01*
X102141149Y-135584070D01*
X102153754Y-135530902D01*
X102168369Y-135479255D01*
X102185155Y-135426212D01*
X102204274Y-135368859D01*
X102221030Y-135318902D01*
X102344928Y-135011493D01*
X102505638Y-134718126D01*
X102698710Y-134446019D01*
X102894880Y-134226842D01*
X103151125Y-133999775D01*
X103428588Y-133809250D01*
X103726511Y-133655625D01*
X104044135Y-133539261D01*
X104380699Y-133460517D01*
X104567750Y-133434020D01*
X104616624Y-133431013D01*
X104706525Y-133428203D01*
X104836144Y-133425600D01*
X105004174Y-133423212D01*
X105209309Y-133421047D01*
X105450242Y-133419113D01*
X105725664Y-133417419D01*
X106034270Y-133415974D01*
X106374751Y-133414785D01*
X106745802Y-133413860D01*
X107146114Y-133413209D01*
X107574381Y-133412840D01*
X107901500Y-133412752D01*
X108327535Y-133412748D01*
X108713286Y-133412778D01*
G36*
X97725000Y-80850000D02*
G01*
X95450000Y-80850000D01*
X95450000Y-80300000D01*
X97750000Y-80300000D01*
X97750000Y-80850000D01*
X97725000Y-80850000D01*
G37*
X97725000Y-80850000D02*
X95450000Y-80850000D01*
X95450000Y-80300000D01*
X97750000Y-80300000D01*
X97750000Y-80850000D01*
X97725000Y-80850000D01*
G36*
X100450000Y-80850000D02*
G01*
X98225000Y-80850000D01*
X98225000Y-80300000D01*
X100525000Y-80300000D01*
X100525000Y-80850000D01*
X100450000Y-80850000D01*
G37*
X100450000Y-80850000D02*
X98225000Y-80850000D01*
X98225000Y-80300000D01*
X100525000Y-80300000D01*
X100525000Y-80850000D01*
X100450000Y-80850000D01*
G36*
X98000000Y-72750000D02*
G01*
X99700000Y-72750000D01*
X99700000Y-73175000D01*
X97990208Y-73175000D01*
X96275000Y-73172417D01*
X96275000Y-72748582D01*
X97990208Y-72750000D01*
X98000000Y-72750000D01*
G37*
X98000000Y-72750000D02*
X99700000Y-72750000D01*
X99700000Y-73175000D01*
X97990208Y-73175000D01*
X96275000Y-73172417D01*
X96275000Y-72748582D01*
X97990208Y-72750000D01*
X98000000Y-72750000D01*
G36*
X98000000Y-71725000D02*
G01*
X99700000Y-71725000D01*
X99700000Y-72150000D01*
X96275000Y-72150000D01*
X96275000Y-71725000D01*
X97950000Y-71725000D01*
X98000000Y-71725000D01*
G37*
X98000000Y-71725000D02*
X99700000Y-71725000D01*
X99700000Y-72150000D01*
X96275000Y-72150000D01*
X96275000Y-71725000D01*
X97950000Y-71725000D01*
X98000000Y-71725000D01*
%TD*%
M02*
