%TF.GenerationSoftware,KiCad,Pcbnew,(6.0.0-0)*%
%TF.CreationDate,2022-03-07T15:07:37+00:00*%
%TF.ProjectId,dual-digi-delay-frontpanel,6475616c-2d64-4696-9769-2d64656c6179,rev?*%
%TF.SameCoordinates,Original*%
%TF.FileFunction,Copper,L1,Top*%
%TF.FilePolarity,Positive*%
%FSLAX46Y46*%
G04 Gerber Fmt 4.6, Leading zero omitted, Abs format (unit mm)*
G04 Created by KiCad (PCBNEW (6.0.0-0)) date 2022-03-07 15:07:37*
%MOMM*%
%LPD*%
G01*
G04 APERTURE LIST*
%TA.AperFunction,EtchedComponent*%
%ADD10C,0.010000*%
%TD*%
G04 APERTURE END LIST*
D10*
%TO.C,Ref\u002A\u002A*%
X115271263Y-156618092D02*
X115322773Y-156641410D01*
X115322773Y-156641410D02*
X115360061Y-156674038D01*
X115360061Y-156674038D02*
X115421933Y-156735910D01*
X115421933Y-156735910D02*
X115421933Y-167448832D01*
X115421933Y-167448832D02*
X115363725Y-167513972D01*
X115363725Y-167513972D02*
X115292541Y-167565883D01*
X115292541Y-167565883D02*
X115204377Y-167591397D01*
X115204377Y-167591397D02*
X115116380Y-167586480D01*
X115116380Y-167586480D02*
X115091482Y-167578005D01*
X115091482Y-167578005D02*
X115047082Y-167547979D01*
X115047082Y-167547979D02*
X115002238Y-167502229D01*
X115002238Y-167502229D02*
X115001523Y-167501325D01*
X115001523Y-167501325D02*
X114956267Y-167443790D01*
X114956267Y-167443790D02*
X114956267Y-162111594D01*
X114956267Y-162111594D02*
X114956287Y-161545048D01*
X114956287Y-161545048D02*
X114956355Y-161019322D01*
X114956355Y-161019322D02*
X114956479Y-160532903D01*
X114956479Y-160532903D02*
X114956669Y-160084277D01*
X114956669Y-160084277D02*
X114956932Y-159671932D01*
X114956932Y-159671932D02*
X114957279Y-159294355D01*
X114957279Y-159294355D02*
X114957718Y-158950031D01*
X114957718Y-158950031D02*
X114958258Y-158637449D01*
X114958258Y-158637449D02*
X114958908Y-158355094D01*
X114958908Y-158355094D02*
X114959678Y-158101453D01*
X114959678Y-158101453D02*
X114960575Y-157875014D01*
X114960575Y-157875014D02*
X114961609Y-157674263D01*
X114961609Y-157674263D02*
X114962789Y-157497686D01*
X114962789Y-157497686D02*
X114964124Y-157343772D01*
X114964124Y-157343772D02*
X114965623Y-157211006D01*
X114965623Y-157211006D02*
X114967295Y-157097875D01*
X114967295Y-157097875D02*
X114969149Y-157002866D01*
X114969149Y-157002866D02*
X114971193Y-156924466D01*
X114971193Y-156924466D02*
X114973437Y-156861161D01*
X114973437Y-156861161D02*
X114975890Y-156811439D01*
X114975890Y-156811439D02*
X114978561Y-156773786D01*
X114978561Y-156773786D02*
X114981458Y-156746689D01*
X114981458Y-156746689D02*
X114984591Y-156728635D01*
X114984591Y-156728635D02*
X114987969Y-156718111D01*
X114987969Y-156718111D02*
X114988236Y-156717576D01*
X114988236Y-156717576D02*
X115030832Y-156658133D01*
X115030832Y-156658133D02*
X115088933Y-156624949D01*
X115088933Y-156624949D02*
X115173386Y-156612622D01*
X115173386Y-156612622D02*
X115199920Y-156612166D01*
X115199920Y-156612166D02*
X115271263Y-156618092D01*
X115271263Y-156618092D02*
X115271263Y-156618092D01*
G36*
X115271263Y-156618092D02*
G01*
X115322773Y-156641410D01*
X115360061Y-156674038D01*
X115421933Y-156735910D01*
X115421933Y-167448832D01*
X115363725Y-167513972D01*
X115292541Y-167565883D01*
X115204377Y-167591397D01*
X115116380Y-167586480D01*
X115091482Y-167578005D01*
X115047082Y-167547979D01*
X115002238Y-167502229D01*
X115001523Y-167501325D01*
X114956267Y-167443790D01*
X114956267Y-162111594D01*
X114956287Y-161545048D01*
X114956355Y-161019322D01*
X114956479Y-160532903D01*
X114956669Y-160084277D01*
X114956932Y-159671932D01*
X114957279Y-159294355D01*
X114957718Y-158950031D01*
X114958258Y-158637449D01*
X114958908Y-158355094D01*
X114959678Y-158101453D01*
X114960575Y-157875014D01*
X114961609Y-157674263D01*
X114962789Y-157497686D01*
X114964124Y-157343772D01*
X114965623Y-157211006D01*
X114967295Y-157097875D01*
X114969149Y-157002866D01*
X114971193Y-156924466D01*
X114973437Y-156861161D01*
X114975890Y-156811439D01*
X114978561Y-156773786D01*
X114981458Y-156746689D01*
X114984591Y-156728635D01*
X114987969Y-156718111D01*
X114988236Y-156717576D01*
X115030832Y-156658133D01*
X115088933Y-156624949D01*
X115173386Y-156612622D01*
X115199920Y-156612166D01*
X115271263Y-156618092D01*
G37*
X115271263Y-156618092D02*
X115322773Y-156641410D01*
X115360061Y-156674038D01*
X115421933Y-156735910D01*
X115421933Y-167448832D01*
X115363725Y-167513972D01*
X115292541Y-167565883D01*
X115204377Y-167591397D01*
X115116380Y-167586480D01*
X115091482Y-167578005D01*
X115047082Y-167547979D01*
X115002238Y-167502229D01*
X115001523Y-167501325D01*
X114956267Y-167443790D01*
X114956267Y-162111594D01*
X114956287Y-161545048D01*
X114956355Y-161019322D01*
X114956479Y-160532903D01*
X114956669Y-160084277D01*
X114956932Y-159671932D01*
X114957279Y-159294355D01*
X114957718Y-158950031D01*
X114958258Y-158637449D01*
X114958908Y-158355094D01*
X114959678Y-158101453D01*
X114960575Y-157875014D01*
X114961609Y-157674263D01*
X114962789Y-157497686D01*
X114964124Y-157343772D01*
X114965623Y-157211006D01*
X114967295Y-157097875D01*
X114969149Y-157002866D01*
X114971193Y-156924466D01*
X114973437Y-156861161D01*
X114975890Y-156811439D01*
X114978561Y-156773786D01*
X114981458Y-156746689D01*
X114984591Y-156728635D01*
X114987969Y-156718111D01*
X114988236Y-156717576D01*
X115030832Y-156658133D01*
X115088933Y-156624949D01*
X115173386Y-156612622D01*
X115199920Y-156612166D01*
X115271263Y-156618092D01*
X89853939Y-156618683D02*
X89905366Y-156644319D01*
X89905366Y-156644319D02*
X89949967Y-156684133D01*
X89949967Y-156684133D02*
X90021933Y-156756100D01*
X90021933Y-156756100D02*
X90021933Y-162091220D01*
X90021933Y-162091220D02*
X90021888Y-162682616D01*
X90021888Y-162682616D02*
X90021750Y-163232886D01*
X90021750Y-163232886D02*
X90021511Y-163743238D01*
X90021511Y-163743238D02*
X90021168Y-164214878D01*
X90021168Y-164214878D02*
X90020715Y-164649014D01*
X90020715Y-164649014D02*
X90020144Y-165046853D01*
X90020144Y-165046853D02*
X90019452Y-165409603D01*
X90019452Y-165409603D02*
X90018632Y-165738471D01*
X90018632Y-165738471D02*
X90017679Y-166034665D01*
X90017679Y-166034665D02*
X90016587Y-166299390D01*
X90016587Y-166299390D02*
X90015350Y-166533856D01*
X90015350Y-166533856D02*
X90013962Y-166739269D01*
X90013962Y-166739269D02*
X90012419Y-166916836D01*
X90012419Y-166916836D02*
X90010714Y-167067765D01*
X90010714Y-167067765D02*
X90008842Y-167193264D01*
X90008842Y-167193264D02*
X90006796Y-167294538D01*
X90006796Y-167294538D02*
X90004572Y-167372797D01*
X90004572Y-167372797D02*
X90002164Y-167429246D01*
X90002164Y-167429246D02*
X89999566Y-167465094D01*
X89999566Y-167465094D02*
X89996771Y-167481547D01*
X89996771Y-167481547D02*
X89996646Y-167481841D01*
X89996646Y-167481841D02*
X89948710Y-167540563D01*
X89948710Y-167540563D02*
X89875372Y-167580164D01*
X89875372Y-167580164D02*
X89790418Y-167597541D01*
X89790418Y-167597541D02*
X89707631Y-167589591D01*
X89707631Y-167589591D02*
X89648702Y-167560154D01*
X89648702Y-167560154D02*
X89604526Y-167514154D01*
X89604526Y-167514154D02*
X89579911Y-167477349D01*
X89579911Y-167477349D02*
X89577218Y-167459310D01*
X89577218Y-167459310D02*
X89574710Y-167415461D01*
X89574710Y-167415461D02*
X89572383Y-167344859D01*
X89572383Y-167344859D02*
X89570231Y-167246564D01*
X89570231Y-167246564D02*
X89568251Y-167119635D01*
X89568251Y-167119635D02*
X89566440Y-166963130D01*
X89566440Y-166963130D02*
X89564791Y-166776108D01*
X89564791Y-166776108D02*
X89563303Y-166557629D01*
X89563303Y-166557629D02*
X89561970Y-166306749D01*
X89561970Y-166306749D02*
X89560788Y-166022530D01*
X89560788Y-166022530D02*
X89559753Y-165704028D01*
X89559753Y-165704028D02*
X89558862Y-165350303D01*
X89558862Y-165350303D02*
X89558109Y-164960414D01*
X89558109Y-164960414D02*
X89557491Y-164533420D01*
X89557491Y-164533420D02*
X89557004Y-164068379D01*
X89557004Y-164068379D02*
X89556643Y-163564350D01*
X89556643Y-163564350D02*
X89556404Y-163020391D01*
X89556404Y-163020391D02*
X89556284Y-162435562D01*
X89556284Y-162435562D02*
X89556267Y-162093608D01*
X89556267Y-162093608D02*
X89556267Y-156756100D01*
X89556267Y-156756100D02*
X89628233Y-156684133D01*
X89628233Y-156684133D02*
X89683497Y-156636919D01*
X89683497Y-156636919D02*
X89736043Y-156616041D01*
X89736043Y-156616041D02*
X89789100Y-156612166D01*
X89789100Y-156612166D02*
X89853939Y-156618683D01*
X89853939Y-156618683D02*
X89853939Y-156618683D01*
G36*
X89853939Y-156618683D02*
G01*
X89905366Y-156644319D01*
X89949967Y-156684133D01*
X90021933Y-156756100D01*
X90021933Y-162091220D01*
X90021888Y-162682616D01*
X90021750Y-163232886D01*
X90021511Y-163743238D01*
X90021168Y-164214878D01*
X90020715Y-164649014D01*
X90020144Y-165046853D01*
X90019452Y-165409603D01*
X90018632Y-165738471D01*
X90017679Y-166034665D01*
X90016587Y-166299390D01*
X90015350Y-166533856D01*
X90013962Y-166739269D01*
X90012419Y-166916836D01*
X90010714Y-167067765D01*
X90008842Y-167193264D01*
X90006796Y-167294538D01*
X90004572Y-167372797D01*
X90002164Y-167429246D01*
X89999566Y-167465094D01*
X89996771Y-167481547D01*
X89996646Y-167481841D01*
X89948710Y-167540563D01*
X89875372Y-167580164D01*
X89790418Y-167597541D01*
X89707631Y-167589591D01*
X89648702Y-167560154D01*
X89604526Y-167514154D01*
X89579911Y-167477349D01*
X89577218Y-167459310D01*
X89574710Y-167415461D01*
X89572383Y-167344859D01*
X89570231Y-167246564D01*
X89568251Y-167119635D01*
X89566440Y-166963130D01*
X89564791Y-166776108D01*
X89563303Y-166557629D01*
X89561970Y-166306749D01*
X89560788Y-166022530D01*
X89559753Y-165704028D01*
X89558862Y-165350303D01*
X89558109Y-164960414D01*
X89557491Y-164533420D01*
X89557004Y-164068379D01*
X89556643Y-163564350D01*
X89556404Y-163020391D01*
X89556284Y-162435562D01*
X89556267Y-162093608D01*
X89556267Y-156756100D01*
X89628233Y-156684133D01*
X89683497Y-156636919D01*
X89736043Y-156616041D01*
X89789100Y-156612166D01*
X89853939Y-156618683D01*
G37*
X89853939Y-156618683D02*
X89905366Y-156644319D01*
X89949967Y-156684133D01*
X90021933Y-156756100D01*
X90021933Y-162091220D01*
X90021888Y-162682616D01*
X90021750Y-163232886D01*
X90021511Y-163743238D01*
X90021168Y-164214878D01*
X90020715Y-164649014D01*
X90020144Y-165046853D01*
X90019452Y-165409603D01*
X90018632Y-165738471D01*
X90017679Y-166034665D01*
X90016587Y-166299390D01*
X90015350Y-166533856D01*
X90013962Y-166739269D01*
X90012419Y-166916836D01*
X90010714Y-167067765D01*
X90008842Y-167193264D01*
X90006796Y-167294538D01*
X90004572Y-167372797D01*
X90002164Y-167429246D01*
X89999566Y-167465094D01*
X89996771Y-167481547D01*
X89996646Y-167481841D01*
X89948710Y-167540563D01*
X89875372Y-167580164D01*
X89790418Y-167597541D01*
X89707631Y-167589591D01*
X89648702Y-167560154D01*
X89604526Y-167514154D01*
X89579911Y-167477349D01*
X89577218Y-167459310D01*
X89574710Y-167415461D01*
X89572383Y-167344859D01*
X89570231Y-167246564D01*
X89568251Y-167119635D01*
X89566440Y-166963130D01*
X89564791Y-166776108D01*
X89563303Y-166557629D01*
X89561970Y-166306749D01*
X89560788Y-166022530D01*
X89559753Y-165704028D01*
X89558862Y-165350303D01*
X89558109Y-164960414D01*
X89557491Y-164533420D01*
X89557004Y-164068379D01*
X89556643Y-163564350D01*
X89556404Y-163020391D01*
X89556284Y-162435562D01*
X89556267Y-162093608D01*
X89556267Y-156756100D01*
X89628233Y-156684133D01*
X89683497Y-156636919D01*
X89736043Y-156616041D01*
X89789100Y-156612166D01*
X89853939Y-156618683D01*
X102553939Y-146331683D02*
X102605366Y-146357319D01*
X102605366Y-146357319D02*
X102649967Y-146397133D01*
X102649967Y-146397133D02*
X102721933Y-146469100D01*
X102721933Y-146469100D02*
X102721933Y-157775050D01*
X102721933Y-157775050D02*
X102721966Y-158701097D01*
X102721966Y-158701097D02*
X102722066Y-159585217D01*
X102722066Y-159585217D02*
X102722233Y-160427817D01*
X102722233Y-160427817D02*
X102722469Y-161229306D01*
X102722469Y-161229306D02*
X102722774Y-161990089D01*
X102722774Y-161990089D02*
X102723149Y-162710574D01*
X102723149Y-162710574D02*
X102723594Y-163391168D01*
X102723594Y-163391168D02*
X102724111Y-164032277D01*
X102724111Y-164032277D02*
X102724700Y-164634309D01*
X102724700Y-164634309D02*
X102725363Y-165197671D01*
X102725363Y-165197671D02*
X102726099Y-165722770D01*
X102726099Y-165722770D02*
X102726910Y-166210012D01*
X102726910Y-166210012D02*
X102727797Y-166659805D01*
X102727797Y-166659805D02*
X102728760Y-167072556D01*
X102728760Y-167072556D02*
X102729800Y-167448672D01*
X102729800Y-167448672D02*
X102730918Y-167788560D01*
X102730918Y-167788560D02*
X102732115Y-168092626D01*
X102732115Y-168092626D02*
X102733391Y-168361278D01*
X102733391Y-168361278D02*
X102734748Y-168594923D01*
X102734748Y-168594923D02*
X102736185Y-168793968D01*
X102736185Y-168793968D02*
X102737705Y-168958819D01*
X102737705Y-168958819D02*
X102739307Y-169089885D01*
X102739307Y-169089885D02*
X102740993Y-169187571D01*
X102740993Y-169187571D02*
X102742764Y-169252285D01*
X102742764Y-169252285D02*
X102744560Y-169283922D01*
X102744560Y-169283922D02*
X102798772Y-169585835D01*
X102798772Y-169585835D02*
X102890799Y-169872840D01*
X102890799Y-169872840D02*
X103017912Y-170142206D01*
X103017912Y-170142206D02*
X103177384Y-170391207D01*
X103177384Y-170391207D02*
X103366487Y-170617115D01*
X103366487Y-170617115D02*
X103582492Y-170817200D01*
X103582492Y-170817200D02*
X103822672Y-170988736D01*
X103822672Y-170988736D02*
X104084297Y-171128993D01*
X104084297Y-171128993D02*
X104364641Y-171235245D01*
X104364641Y-171235245D02*
X104660975Y-171304762D01*
X104660975Y-171304762D02*
X104782178Y-171321539D01*
X104782178Y-171321539D02*
X104838801Y-171325327D01*
X104838801Y-171325327D02*
X104937521Y-171328774D01*
X104937521Y-171328774D02*
X105078104Y-171331877D01*
X105078104Y-171331877D02*
X105260315Y-171334636D01*
X105260315Y-171334636D02*
X105483919Y-171337048D01*
X105483919Y-171337048D02*
X105748681Y-171339112D01*
X105748681Y-171339112D02*
X106054367Y-171340826D01*
X106054367Y-171340826D02*
X106400742Y-171342188D01*
X106400742Y-171342188D02*
X106787572Y-171343197D01*
X106787572Y-171343197D02*
X107214621Y-171343850D01*
X107214621Y-171343850D02*
X107681655Y-171344147D01*
X107681655Y-171344147D02*
X107843098Y-171344166D01*
X107843098Y-171344166D02*
X110701099Y-171344166D01*
X110701099Y-171344166D02*
X110770224Y-171405930D01*
X110770224Y-171405930D02*
X110812317Y-171448953D01*
X110812317Y-171448953D02*
X110832787Y-171491354D01*
X110832787Y-171491354D02*
X110839100Y-171551612D01*
X110839100Y-171551612D02*
X110839350Y-171577000D01*
X110839350Y-171577000D02*
X110835927Y-171646619D01*
X110835927Y-171646619D02*
X110820679Y-171692610D01*
X110820679Y-171692610D02*
X110786138Y-171733455D01*
X110786138Y-171733455D02*
X110770224Y-171748069D01*
X110770224Y-171748069D02*
X110701099Y-171809833D01*
X110701099Y-171809833D02*
X107743391Y-171809748D01*
X107743391Y-171809748D02*
X107319765Y-171809735D01*
X107319765Y-171809735D02*
X106936223Y-171809677D01*
X106936223Y-171809677D02*
X106590513Y-171809506D01*
X106590513Y-171809506D02*
X106280387Y-171809156D01*
X106280387Y-171809156D02*
X106003594Y-171808558D01*
X106003594Y-171808558D02*
X105757884Y-171807644D01*
X105757884Y-171807644D02*
X105541008Y-171806348D01*
X105541008Y-171806348D02*
X105350714Y-171804602D01*
X105350714Y-171804602D02*
X105184753Y-171802338D01*
X105184753Y-171802338D02*
X105040875Y-171799490D01*
X105040875Y-171799490D02*
X104916831Y-171795988D01*
X104916831Y-171795988D02*
X104810369Y-171791767D01*
X104810369Y-171791767D02*
X104719239Y-171786758D01*
X104719239Y-171786758D02*
X104641193Y-171780893D01*
X104641193Y-171780893D02*
X104573979Y-171774107D01*
X104573979Y-171774107D02*
X104515348Y-171766330D01*
X104515348Y-171766330D02*
X104463050Y-171757495D01*
X104463050Y-171757495D02*
X104414834Y-171747535D01*
X104414834Y-171747535D02*
X104368451Y-171736383D01*
X104368451Y-171736383D02*
X104321651Y-171723970D01*
X104321651Y-171723970D02*
X104272182Y-171710230D01*
X104272182Y-171710230D02*
X104253683Y-171705056D01*
X104253683Y-171705056D02*
X103961219Y-171602273D01*
X103961219Y-171602273D02*
X103677111Y-171461335D01*
X103677111Y-171461335D02*
X103406842Y-171286322D01*
X103406842Y-171286322D02*
X103155895Y-171081316D01*
X103155895Y-171081316D02*
X102929756Y-170850397D01*
X102929756Y-170850397D02*
X102733907Y-170597646D01*
X102733907Y-170597646D02*
X102702880Y-170551048D01*
X102702880Y-170551048D02*
X102643439Y-170457249D01*
X102643439Y-170457249D02*
X102590809Y-170369886D01*
X102590809Y-170369886D02*
X102550432Y-170298287D01*
X102550432Y-170298287D02*
X102527752Y-170251777D01*
X102527752Y-170251777D02*
X102526866Y-170249423D01*
X102526866Y-170249423D02*
X102507224Y-170203551D01*
X102507224Y-170203551D02*
X102491730Y-170181443D01*
X102491730Y-170181443D02*
X102490139Y-170181062D01*
X102490139Y-170181062D02*
X102475759Y-170199195D01*
X102475759Y-170199195D02*
X102449764Y-170245433D01*
X102449764Y-170245433D02*
X102421173Y-170302770D01*
X102421173Y-170302770D02*
X102299927Y-170518826D01*
X102299927Y-170518826D02*
X102140381Y-170738968D01*
X102140381Y-170738968D02*
X101945721Y-170958861D01*
X101945721Y-170958861D02*
X101917989Y-170987216D01*
X101917989Y-170987216D02*
X101674098Y-171209063D01*
X101674098Y-171209063D02*
X101415202Y-171395068D01*
X101415202Y-171395068D02*
X101136524Y-171547874D01*
X101136524Y-171547874D02*
X100833282Y-171670122D01*
X100833282Y-171670122D02*
X100520600Y-171759766D01*
X100520600Y-171759766D02*
X100496633Y-171765004D01*
X100496633Y-171765004D02*
X100469396Y-171769751D01*
X100469396Y-171769751D02*
X100436750Y-171774035D01*
X100436750Y-171774035D02*
X100396556Y-171777887D01*
X100396556Y-171777887D02*
X100346674Y-171781336D01*
X100346674Y-171781336D02*
X100284965Y-171784412D01*
X100284965Y-171784412D02*
X100209290Y-171787145D01*
X100209290Y-171787145D02*
X100117508Y-171789563D01*
X100117508Y-171789563D02*
X100007481Y-171791698D01*
X100007481Y-171791698D02*
X99877070Y-171793579D01*
X99877070Y-171793579D02*
X99724134Y-171795235D01*
X99724134Y-171795235D02*
X99546534Y-171796696D01*
X99546534Y-171796696D02*
X99342132Y-171797991D01*
X99342132Y-171797991D02*
X99108787Y-171799152D01*
X99108787Y-171799152D02*
X98844360Y-171800207D01*
X98844360Y-171800207D02*
X98546713Y-171801185D01*
X98546713Y-171801185D02*
X98213704Y-171802117D01*
X98213704Y-171802117D02*
X97843196Y-171803033D01*
X97843196Y-171803033D02*
X97433048Y-171803962D01*
X97433048Y-171803962D02*
X97320018Y-171804208D01*
X97320018Y-171804208D02*
X94278186Y-171810803D01*
X94278186Y-171810803D02*
X94208518Y-171748554D01*
X94208518Y-171748554D02*
X94166120Y-171705323D01*
X94166120Y-171705323D02*
X94145494Y-171662977D01*
X94145494Y-171662977D02*
X94139112Y-171602985D01*
X94139112Y-171602985D02*
X94138850Y-171577000D01*
X94138850Y-171577000D02*
X94142273Y-171507380D01*
X94142273Y-171507380D02*
X94157521Y-171461389D01*
X94157521Y-171461389D02*
X94192062Y-171420544D01*
X94192062Y-171420544D02*
X94207975Y-171405930D01*
X94207975Y-171405930D02*
X94277101Y-171344166D01*
X94277101Y-171344166D02*
X97135101Y-171344166D01*
X97135101Y-171344166D02*
X97615167Y-171343987D01*
X97615167Y-171343987D02*
X98055324Y-171343450D01*
X98055324Y-171343450D02*
X98455338Y-171342557D01*
X98455338Y-171342557D02*
X98814974Y-171341311D01*
X98814974Y-171341311D02*
X99133999Y-171339712D01*
X99133999Y-171339712D02*
X99412176Y-171337762D01*
X99412176Y-171337762D02*
X99649272Y-171335464D01*
X99649272Y-171335464D02*
X99845051Y-171332818D01*
X99845051Y-171332818D02*
X99999280Y-171329827D01*
X99999280Y-171329827D02*
X100111722Y-171326492D01*
X100111722Y-171326492D02*
X100182144Y-171322816D01*
X100182144Y-171322816D02*
X100196022Y-171321539D01*
X100196022Y-171321539D02*
X100501797Y-171266493D01*
X100501797Y-171266493D02*
X100794725Y-171171757D01*
X100794725Y-171171757D02*
X101071662Y-171038847D01*
X101071662Y-171038847D02*
X101329461Y-170869281D01*
X101329461Y-170869281D02*
X101564975Y-170664575D01*
X101564975Y-170664575D02*
X101570835Y-170658735D01*
X101570835Y-170658735D02*
X101776444Y-170423849D01*
X101776444Y-170423849D02*
X101946954Y-170166596D01*
X101946954Y-170166596D02*
X102080846Y-169890121D01*
X102080846Y-169890121D02*
X102176605Y-169597573D01*
X102176605Y-169597573D02*
X102232713Y-169292096D01*
X102232713Y-169292096D02*
X102233640Y-169283922D01*
X102233640Y-169283922D02*
X102235492Y-169250769D01*
X102235492Y-169250769D02*
X102237260Y-169185039D01*
X102237260Y-169185039D02*
X102238943Y-169086323D01*
X102238943Y-169086323D02*
X102240543Y-168954216D01*
X102240543Y-168954216D02*
X102242060Y-168788310D01*
X102242060Y-168788310D02*
X102243495Y-168588198D01*
X102243495Y-168588198D02*
X102244849Y-168353474D01*
X102244849Y-168353474D02*
X102246123Y-168083729D01*
X102246123Y-168083729D02*
X102247318Y-167778558D01*
X102247318Y-167778558D02*
X102248433Y-167437553D01*
X102248433Y-167437553D02*
X102249471Y-167060307D01*
X102249471Y-167060307D02*
X102250431Y-166646413D01*
X102250431Y-166646413D02*
X102251316Y-166195465D01*
X102251316Y-166195465D02*
X102252124Y-165707054D01*
X102252124Y-165707054D02*
X102252858Y-165180775D01*
X102252858Y-165180775D02*
X102253519Y-164616220D01*
X102253519Y-164616220D02*
X102254106Y-164012982D01*
X102254106Y-164012982D02*
X102254620Y-163370654D01*
X102254620Y-163370654D02*
X102255064Y-162688829D01*
X102255064Y-162688829D02*
X102255436Y-161967100D01*
X102255436Y-161967100D02*
X102255739Y-161205061D01*
X102255739Y-161205061D02*
X102255972Y-160402303D01*
X102255972Y-160402303D02*
X102256138Y-159558421D01*
X102256138Y-159558421D02*
X102256235Y-158673007D01*
X102256235Y-158673007D02*
X102256267Y-157775050D01*
X102256267Y-157775050D02*
X102256267Y-146469100D01*
X102256267Y-146469100D02*
X102328233Y-146397133D01*
X102328233Y-146397133D02*
X102383497Y-146349919D01*
X102383497Y-146349919D02*
X102436043Y-146329041D01*
X102436043Y-146329041D02*
X102489100Y-146325166D01*
X102489100Y-146325166D02*
X102553939Y-146331683D01*
X102553939Y-146331683D02*
X102553939Y-146331683D01*
G36*
X102553939Y-146331683D02*
G01*
X102605366Y-146357319D01*
X102649967Y-146397133D01*
X102721933Y-146469100D01*
X102721933Y-157775050D01*
X102721966Y-158701097D01*
X102722066Y-159585217D01*
X102722233Y-160427817D01*
X102722469Y-161229306D01*
X102722774Y-161990089D01*
X102723149Y-162710574D01*
X102723594Y-163391168D01*
X102724111Y-164032277D01*
X102724700Y-164634309D01*
X102725363Y-165197671D01*
X102726099Y-165722770D01*
X102726910Y-166210012D01*
X102727797Y-166659805D01*
X102728760Y-167072556D01*
X102729800Y-167448672D01*
X102730918Y-167788560D01*
X102732115Y-168092626D01*
X102733391Y-168361278D01*
X102734748Y-168594923D01*
X102736185Y-168793968D01*
X102737705Y-168958819D01*
X102739307Y-169089885D01*
X102740993Y-169187571D01*
X102742764Y-169252285D01*
X102744560Y-169283922D01*
X102798772Y-169585835D01*
X102890799Y-169872840D01*
X103017912Y-170142206D01*
X103177384Y-170391207D01*
X103366487Y-170617115D01*
X103582492Y-170817200D01*
X103822672Y-170988736D01*
X104084297Y-171128993D01*
X104364641Y-171235245D01*
X104660975Y-171304762D01*
X104782178Y-171321539D01*
X104838801Y-171325327D01*
X104937521Y-171328774D01*
X105078104Y-171331877D01*
X105260315Y-171334636D01*
X105483919Y-171337048D01*
X105748681Y-171339112D01*
X106054367Y-171340826D01*
X106400742Y-171342188D01*
X106787572Y-171343197D01*
X107214621Y-171343850D01*
X107681655Y-171344147D01*
X107843098Y-171344166D01*
X110701099Y-171344166D01*
X110770224Y-171405930D01*
X110812317Y-171448953D01*
X110832787Y-171491354D01*
X110839100Y-171551612D01*
X110839350Y-171577000D01*
X110835927Y-171646619D01*
X110820679Y-171692610D01*
X110786138Y-171733455D01*
X110770224Y-171748069D01*
X110701099Y-171809833D01*
X107743391Y-171809748D01*
X107319765Y-171809735D01*
X106936223Y-171809677D01*
X106590513Y-171809506D01*
X106280387Y-171809156D01*
X106003594Y-171808558D01*
X105757884Y-171807644D01*
X105541008Y-171806348D01*
X105350714Y-171804602D01*
X105184753Y-171802338D01*
X105040875Y-171799490D01*
X104916831Y-171795988D01*
X104810369Y-171791767D01*
X104719239Y-171786758D01*
X104641193Y-171780893D01*
X104573979Y-171774107D01*
X104515348Y-171766330D01*
X104463050Y-171757495D01*
X104414834Y-171747535D01*
X104368451Y-171736383D01*
X104321651Y-171723970D01*
X104272182Y-171710230D01*
X104253683Y-171705056D01*
X103961219Y-171602273D01*
X103677111Y-171461335D01*
X103406842Y-171286322D01*
X103155895Y-171081316D01*
X102929756Y-170850397D01*
X102733907Y-170597646D01*
X102702880Y-170551048D01*
X102643439Y-170457249D01*
X102590809Y-170369886D01*
X102550432Y-170298287D01*
X102527752Y-170251777D01*
X102526866Y-170249423D01*
X102507224Y-170203551D01*
X102491730Y-170181443D01*
X102490139Y-170181062D01*
X102475759Y-170199195D01*
X102449764Y-170245433D01*
X102421173Y-170302770D01*
X102299927Y-170518826D01*
X102140381Y-170738968D01*
X101945721Y-170958861D01*
X101917989Y-170987216D01*
X101674098Y-171209063D01*
X101415202Y-171395068D01*
X101136524Y-171547874D01*
X100833282Y-171670122D01*
X100520600Y-171759766D01*
X100496633Y-171765004D01*
X100469396Y-171769751D01*
X100436750Y-171774035D01*
X100396556Y-171777887D01*
X100346674Y-171781336D01*
X100284965Y-171784412D01*
X100209290Y-171787145D01*
X100117508Y-171789563D01*
X100007481Y-171791698D01*
X99877070Y-171793579D01*
X99724134Y-171795235D01*
X99546534Y-171796696D01*
X99342132Y-171797991D01*
X99108787Y-171799152D01*
X98844360Y-171800207D01*
X98546713Y-171801185D01*
X98213704Y-171802117D01*
X97843196Y-171803033D01*
X97433048Y-171803962D01*
X97320018Y-171804208D01*
X94278186Y-171810803D01*
X94208518Y-171748554D01*
X94166120Y-171705323D01*
X94145494Y-171662977D01*
X94139112Y-171602985D01*
X94138850Y-171577000D01*
X94142273Y-171507380D01*
X94157521Y-171461389D01*
X94192062Y-171420544D01*
X94207975Y-171405930D01*
X94277101Y-171344166D01*
X97135101Y-171344166D01*
X97615167Y-171343987D01*
X98055324Y-171343450D01*
X98455338Y-171342557D01*
X98814974Y-171341311D01*
X99133999Y-171339712D01*
X99412176Y-171337762D01*
X99649272Y-171335464D01*
X99845051Y-171332818D01*
X99999280Y-171329827D01*
X100111722Y-171326492D01*
X100182144Y-171322816D01*
X100196022Y-171321539D01*
X100501797Y-171266493D01*
X100794725Y-171171757D01*
X101071662Y-171038847D01*
X101329461Y-170869281D01*
X101564975Y-170664575D01*
X101570835Y-170658735D01*
X101776444Y-170423849D01*
X101946954Y-170166596D01*
X102080846Y-169890121D01*
X102176605Y-169597573D01*
X102232713Y-169292096D01*
X102233640Y-169283922D01*
X102235492Y-169250769D01*
X102237260Y-169185039D01*
X102238943Y-169086323D01*
X102240543Y-168954216D01*
X102242060Y-168788310D01*
X102243495Y-168588198D01*
X102244849Y-168353474D01*
X102246123Y-168083729D01*
X102247318Y-167778558D01*
X102248433Y-167437553D01*
X102249471Y-167060307D01*
X102250431Y-166646413D01*
X102251316Y-166195465D01*
X102252124Y-165707054D01*
X102252858Y-165180775D01*
X102253519Y-164616220D01*
X102254106Y-164012982D01*
X102254620Y-163370654D01*
X102255064Y-162688829D01*
X102255436Y-161967100D01*
X102255739Y-161205061D01*
X102255972Y-160402303D01*
X102256138Y-159558421D01*
X102256235Y-158673007D01*
X102256267Y-157775050D01*
X102256267Y-146469100D01*
X102328233Y-146397133D01*
X102383497Y-146349919D01*
X102436043Y-146329041D01*
X102489100Y-146325166D01*
X102553939Y-146331683D01*
G37*
X102553939Y-146331683D02*
X102605366Y-146357319D01*
X102649967Y-146397133D01*
X102721933Y-146469100D01*
X102721933Y-157775050D01*
X102721966Y-158701097D01*
X102722066Y-159585217D01*
X102722233Y-160427817D01*
X102722469Y-161229306D01*
X102722774Y-161990089D01*
X102723149Y-162710574D01*
X102723594Y-163391168D01*
X102724111Y-164032277D01*
X102724700Y-164634309D01*
X102725363Y-165197671D01*
X102726099Y-165722770D01*
X102726910Y-166210012D01*
X102727797Y-166659805D01*
X102728760Y-167072556D01*
X102729800Y-167448672D01*
X102730918Y-167788560D01*
X102732115Y-168092626D01*
X102733391Y-168361278D01*
X102734748Y-168594923D01*
X102736185Y-168793968D01*
X102737705Y-168958819D01*
X102739307Y-169089885D01*
X102740993Y-169187571D01*
X102742764Y-169252285D01*
X102744560Y-169283922D01*
X102798772Y-169585835D01*
X102890799Y-169872840D01*
X103017912Y-170142206D01*
X103177384Y-170391207D01*
X103366487Y-170617115D01*
X103582492Y-170817200D01*
X103822672Y-170988736D01*
X104084297Y-171128993D01*
X104364641Y-171235245D01*
X104660975Y-171304762D01*
X104782178Y-171321539D01*
X104838801Y-171325327D01*
X104937521Y-171328774D01*
X105078104Y-171331877D01*
X105260315Y-171334636D01*
X105483919Y-171337048D01*
X105748681Y-171339112D01*
X106054367Y-171340826D01*
X106400742Y-171342188D01*
X106787572Y-171343197D01*
X107214621Y-171343850D01*
X107681655Y-171344147D01*
X107843098Y-171344166D01*
X110701099Y-171344166D01*
X110770224Y-171405930D01*
X110812317Y-171448953D01*
X110832787Y-171491354D01*
X110839100Y-171551612D01*
X110839350Y-171577000D01*
X110835927Y-171646619D01*
X110820679Y-171692610D01*
X110786138Y-171733455D01*
X110770224Y-171748069D01*
X110701099Y-171809833D01*
X107743391Y-171809748D01*
X107319765Y-171809735D01*
X106936223Y-171809677D01*
X106590513Y-171809506D01*
X106280387Y-171809156D01*
X106003594Y-171808558D01*
X105757884Y-171807644D01*
X105541008Y-171806348D01*
X105350714Y-171804602D01*
X105184753Y-171802338D01*
X105040875Y-171799490D01*
X104916831Y-171795988D01*
X104810369Y-171791767D01*
X104719239Y-171786758D01*
X104641193Y-171780893D01*
X104573979Y-171774107D01*
X104515348Y-171766330D01*
X104463050Y-171757495D01*
X104414834Y-171747535D01*
X104368451Y-171736383D01*
X104321651Y-171723970D01*
X104272182Y-171710230D01*
X104253683Y-171705056D01*
X103961219Y-171602273D01*
X103677111Y-171461335D01*
X103406842Y-171286322D01*
X103155895Y-171081316D01*
X102929756Y-170850397D01*
X102733907Y-170597646D01*
X102702880Y-170551048D01*
X102643439Y-170457249D01*
X102590809Y-170369886D01*
X102550432Y-170298287D01*
X102527752Y-170251777D01*
X102526866Y-170249423D01*
X102507224Y-170203551D01*
X102491730Y-170181443D01*
X102490139Y-170181062D01*
X102475759Y-170199195D01*
X102449764Y-170245433D01*
X102421173Y-170302770D01*
X102299927Y-170518826D01*
X102140381Y-170738968D01*
X101945721Y-170958861D01*
X101917989Y-170987216D01*
X101674098Y-171209063D01*
X101415202Y-171395068D01*
X101136524Y-171547874D01*
X100833282Y-171670122D01*
X100520600Y-171759766D01*
X100496633Y-171765004D01*
X100469396Y-171769751D01*
X100436750Y-171774035D01*
X100396556Y-171777887D01*
X100346674Y-171781336D01*
X100284965Y-171784412D01*
X100209290Y-171787145D01*
X100117508Y-171789563D01*
X100007481Y-171791698D01*
X99877070Y-171793579D01*
X99724134Y-171795235D01*
X99546534Y-171796696D01*
X99342132Y-171797991D01*
X99108787Y-171799152D01*
X98844360Y-171800207D01*
X98546713Y-171801185D01*
X98213704Y-171802117D01*
X97843196Y-171803033D01*
X97433048Y-171803962D01*
X97320018Y-171804208D01*
X94278186Y-171810803D01*
X94208518Y-171748554D01*
X94166120Y-171705323D01*
X94145494Y-171662977D01*
X94139112Y-171602985D01*
X94138850Y-171577000D01*
X94142273Y-171507380D01*
X94157521Y-171461389D01*
X94192062Y-171420544D01*
X94207975Y-171405930D01*
X94277101Y-171344166D01*
X97135101Y-171344166D01*
X97615167Y-171343987D01*
X98055324Y-171343450D01*
X98455338Y-171342557D01*
X98814974Y-171341311D01*
X99133999Y-171339712D01*
X99412176Y-171337762D01*
X99649272Y-171335464D01*
X99845051Y-171332818D01*
X99999280Y-171329827D01*
X100111722Y-171326492D01*
X100182144Y-171322816D01*
X100196022Y-171321539D01*
X100501797Y-171266493D01*
X100794725Y-171171757D01*
X101071662Y-171038847D01*
X101329461Y-170869281D01*
X101564975Y-170664575D01*
X101570835Y-170658735D01*
X101776444Y-170423849D01*
X101946954Y-170166596D01*
X102080846Y-169890121D01*
X102176605Y-169597573D01*
X102232713Y-169292096D01*
X102233640Y-169283922D01*
X102235492Y-169250769D01*
X102237260Y-169185039D01*
X102238943Y-169086323D01*
X102240543Y-168954216D01*
X102242060Y-168788310D01*
X102243495Y-168588198D01*
X102244849Y-168353474D01*
X102246123Y-168083729D01*
X102247318Y-167778558D01*
X102248433Y-167437553D01*
X102249471Y-167060307D01*
X102250431Y-166646413D01*
X102251316Y-166195465D01*
X102252124Y-165707054D01*
X102252858Y-165180775D01*
X102253519Y-164616220D01*
X102254106Y-164012982D01*
X102254620Y-163370654D01*
X102255064Y-162688829D01*
X102255436Y-161967100D01*
X102255739Y-161205061D01*
X102255972Y-160402303D01*
X102256138Y-159558421D01*
X102256235Y-158673007D01*
X102256267Y-157775050D01*
X102256267Y-146469100D01*
X102328233Y-146397133D01*
X102383497Y-146349919D01*
X102436043Y-146329041D01*
X102489100Y-146325166D01*
X102553939Y-146331683D01*
X99822100Y-72030166D02*
X96498933Y-72030166D01*
X96498933Y-72030166D02*
X96498933Y-71479833D01*
X96498933Y-71479833D02*
X99822100Y-71479833D01*
X99822100Y-71479833D02*
X99822100Y-72030166D01*
X99822100Y-72030166D02*
X99822100Y-72030166D01*
G36*
X99822100Y-72030166D02*
G01*
X96498933Y-72030166D01*
X96498933Y-71479833D01*
X99822100Y-71479833D01*
X99822100Y-72030166D01*
G37*
X99822100Y-72030166D02*
X96498933Y-72030166D01*
X96498933Y-71479833D01*
X99822100Y-71479833D01*
X99822100Y-72030166D01*
X100711100Y-80666166D02*
X98403933Y-80666166D01*
X98403933Y-80666166D02*
X98403933Y-80115833D01*
X98403933Y-80115833D02*
X100711100Y-80115833D01*
X100711100Y-80115833D02*
X100711100Y-80666166D01*
X100711100Y-80666166D02*
X100711100Y-80666166D01*
G36*
X100711100Y-80666166D02*
G01*
X98403933Y-80666166D01*
X98403933Y-80115833D01*
X100711100Y-80115833D01*
X100711100Y-80666166D01*
G37*
X100711100Y-80666166D02*
X98403933Y-80666166D01*
X98403933Y-80115833D01*
X100711100Y-80115833D01*
X100711100Y-80666166D01*
X97917100Y-80666166D02*
X95631100Y-80666166D01*
X95631100Y-80666166D02*
X95631100Y-80115833D01*
X95631100Y-80115833D02*
X97917100Y-80115833D01*
X97917100Y-80115833D02*
X97917100Y-80666166D01*
X97917100Y-80666166D02*
X97917100Y-80666166D01*
G36*
X97917100Y-80666166D02*
G01*
X95631100Y-80666166D01*
X95631100Y-80115833D01*
X97917100Y-80115833D01*
X97917100Y-80666166D01*
G37*
X97917100Y-80666166D02*
X95631100Y-80666166D01*
X95631100Y-80115833D01*
X97917100Y-80115833D01*
X97917100Y-80666166D01*
X99822100Y-73046166D02*
X96498933Y-73046166D01*
X96498933Y-73046166D02*
X96498933Y-72495833D01*
X96498933Y-72495833D02*
X99822100Y-72495833D01*
X99822100Y-72495833D02*
X99822100Y-73046166D01*
X99822100Y-73046166D02*
X99822100Y-73046166D01*
G36*
X99822100Y-73046166D02*
G01*
X96498933Y-73046166D01*
X96498933Y-72495833D01*
X99822100Y-72495833D01*
X99822100Y-73046166D01*
G37*
X99822100Y-73046166D02*
X96498933Y-73046166D01*
X96498933Y-72495833D01*
X99822100Y-72495833D01*
X99822100Y-73046166D01*
X89841268Y-137853150D02*
X89921127Y-137887412D01*
X89921127Y-137887412D02*
X89981159Y-137950640D01*
X89981159Y-137950640D02*
X89986662Y-137960578D01*
X89986662Y-137960578D02*
X89991644Y-137972825D01*
X89991644Y-137972825D02*
X89996132Y-137989428D01*
X89996132Y-137989428D02*
X90000151Y-138012431D01*
X90000151Y-138012431D02*
X90003727Y-138043881D01*
X90003727Y-138043881D02*
X90006887Y-138085823D01*
X90006887Y-138085823D02*
X90009655Y-138140305D01*
X90009655Y-138140305D02*
X90012059Y-138209370D01*
X90012059Y-138209370D02*
X90014123Y-138295066D01*
X90014123Y-138295066D02*
X90015873Y-138399438D01*
X90015873Y-138399438D02*
X90017337Y-138524533D01*
X90017337Y-138524533D02*
X90018538Y-138672395D01*
X90018538Y-138672395D02*
X90019505Y-138845072D01*
X90019505Y-138845072D02*
X90020261Y-139044608D01*
X90020261Y-139044608D02*
X90020833Y-139273050D01*
X90020833Y-139273050D02*
X90021248Y-139532443D01*
X90021248Y-139532443D02*
X90021531Y-139824834D01*
X90021531Y-139824834D02*
X90021707Y-140152268D01*
X90021707Y-140152268D02*
X90021803Y-140516792D01*
X90021803Y-140516792D02*
X90021845Y-140920451D01*
X90021845Y-140920451D02*
X90021854Y-141165791D01*
X90021854Y-141165791D02*
X90021933Y-144314333D01*
X90021933Y-144314333D02*
X90181285Y-144314333D01*
X90181285Y-144314333D02*
X90366326Y-144320642D01*
X90366326Y-144320642D02*
X90582888Y-144338708D01*
X90582888Y-144338708D02*
X90822222Y-144367232D01*
X90822222Y-144367232D02*
X91075580Y-144404921D01*
X91075580Y-144404921D02*
X91334212Y-144450478D01*
X91334212Y-144450478D02*
X91589367Y-144502608D01*
X91589367Y-144502608D02*
X91821100Y-144557172D01*
X91821100Y-144557172D02*
X92372428Y-144718308D01*
X92372428Y-144718308D02*
X92910171Y-144918690D01*
X92910171Y-144918690D02*
X93432194Y-145156812D01*
X93432194Y-145156812D02*
X93936363Y-145431163D01*
X93936363Y-145431163D02*
X94420544Y-145740237D01*
X94420544Y-145740237D02*
X94882602Y-146082524D01*
X94882602Y-146082524D02*
X95320403Y-146456516D01*
X95320403Y-146456516D02*
X95731813Y-146860705D01*
X95731813Y-146860705D02*
X96114697Y-147293583D01*
X96114697Y-147293583D02*
X96466921Y-147753641D01*
X96466921Y-147753641D02*
X96584207Y-147923250D01*
X96584207Y-147923250D02*
X96892568Y-148419201D01*
X96892568Y-148419201D02*
X97163150Y-148934043D01*
X97163150Y-148934043D02*
X97395700Y-149467071D01*
X97395700Y-149467071D02*
X97589963Y-150017579D01*
X97589963Y-150017579D02*
X97745685Y-150584862D01*
X97745685Y-150584862D02*
X97862613Y-151168215D01*
X97862613Y-151168215D02*
X97929487Y-151659166D01*
X97929487Y-151659166D02*
X97942992Y-151819034D01*
X97942992Y-151819034D02*
X97953065Y-152010486D01*
X97953065Y-152010486D02*
X97959633Y-152222905D01*
X97959633Y-152222905D02*
X97962628Y-152445674D01*
X97962628Y-152445674D02*
X97961979Y-152668178D01*
X97961979Y-152668178D02*
X97957615Y-152879800D01*
X97957615Y-152879800D02*
X97949467Y-153069924D01*
X97949467Y-153069924D02*
X97939729Y-153204333D01*
X97939729Y-153204333D02*
X97865282Y-153789749D01*
X97865282Y-153789749D02*
X97750231Y-154365593D01*
X97750231Y-154365593D02*
X97595175Y-154929746D01*
X97595175Y-154929746D02*
X97400715Y-155480094D01*
X97400715Y-155480094D02*
X97167450Y-156014517D01*
X97167450Y-156014517D02*
X97110168Y-156131374D01*
X97110168Y-156131374D02*
X97030677Y-156289254D01*
X97030677Y-156289254D02*
X96966404Y-156413284D01*
X96966404Y-156413284D02*
X96914164Y-156507741D01*
X96914164Y-156507741D02*
X96870772Y-156576898D01*
X96870772Y-156576898D02*
X96833044Y-156625032D01*
X96833044Y-156625032D02*
X96797796Y-156656418D01*
X96797796Y-156656418D02*
X96761843Y-156675330D01*
X96761843Y-156675330D02*
X96722000Y-156686044D01*
X96722000Y-156686044D02*
X96693708Y-156690477D01*
X96693708Y-156690477D02*
X96596676Y-156684195D01*
X96596676Y-156684195D02*
X96512882Y-156643019D01*
X96512882Y-156643019D02*
X96450428Y-156574075D01*
X96450428Y-156574075D02*
X96417414Y-156484491D01*
X96417414Y-156484491D02*
X96414267Y-156444654D01*
X96414267Y-156444654D02*
X96423667Y-156413429D01*
X96423667Y-156413429D02*
X96449846Y-156351349D01*
X96449846Y-156351349D02*
X96489766Y-156264968D01*
X96489766Y-156264968D02*
X96540392Y-156160840D01*
X96540392Y-156160840D02*
X96598687Y-156045519D01*
X96598687Y-156045519D02*
X96603328Y-156036516D01*
X96603328Y-156036516D02*
X96828403Y-155567590D01*
X96828403Y-155567590D02*
X97016872Y-155101539D01*
X97016872Y-155101539D02*
X97171663Y-154629301D01*
X97171663Y-154629301D02*
X97295705Y-154141813D01*
X97295705Y-154141813D02*
X97391923Y-153630012D01*
X97391923Y-153630012D02*
X97402097Y-153564166D01*
X97402097Y-153564166D02*
X97426670Y-153366409D01*
X97426670Y-153366409D02*
X97446252Y-153137593D01*
X97446252Y-153137593D02*
X97460518Y-152888732D01*
X97460518Y-152888732D02*
X97469143Y-152630843D01*
X97469143Y-152630843D02*
X97471802Y-152374941D01*
X97471802Y-152374941D02*
X97468170Y-152132042D01*
X97468170Y-152132042D02*
X97457923Y-151913161D01*
X97457923Y-151913161D02*
X97452799Y-151845288D01*
X97452799Y-151845288D02*
X97384139Y-151280368D01*
X97384139Y-151280368D02*
X97274860Y-150725654D01*
X97274860Y-150725654D02*
X97125843Y-150183002D01*
X97125843Y-150183002D02*
X96937971Y-149654267D01*
X96937971Y-149654267D02*
X96712125Y-149141305D01*
X96712125Y-149141305D02*
X96449189Y-148645971D01*
X96449189Y-148645971D02*
X96150043Y-148170120D01*
X96150043Y-148170120D02*
X95815570Y-147715608D01*
X95815570Y-147715608D02*
X95446652Y-147284290D01*
X95446652Y-147284290D02*
X95130397Y-146960166D01*
X95130397Y-146960166D02*
X94702049Y-146574379D01*
X94702049Y-146574379D02*
X94252866Y-146225423D01*
X94252866Y-146225423D02*
X93783095Y-145913419D01*
X93783095Y-145913419D02*
X93292981Y-145638486D01*
X93292981Y-145638486D02*
X92782767Y-145400743D01*
X92782767Y-145400743D02*
X92252700Y-145200310D01*
X92252700Y-145200310D02*
X91703024Y-145037306D01*
X91703024Y-145037306D02*
X91133984Y-144911852D01*
X91133984Y-144911852D02*
X90826267Y-144860867D01*
X90826267Y-144860867D02*
X90728727Y-144847119D01*
X90728727Y-144847119D02*
X90638832Y-144836204D01*
X90638832Y-144836204D02*
X90549813Y-144827800D01*
X90549813Y-144827800D02*
X90454899Y-144821588D01*
X90454899Y-144821588D02*
X90347319Y-144817244D01*
X90347319Y-144817244D02*
X90220304Y-144814448D01*
X90220304Y-144814448D02*
X90067084Y-144812878D01*
X90067084Y-144812878D02*
X89880888Y-144812213D01*
X89880888Y-144812213D02*
X89799683Y-144812131D01*
X89799683Y-144812131D02*
X89586589Y-144812419D01*
X89586589Y-144812419D02*
X89408122Y-144813909D01*
X89408122Y-144813909D02*
X89256579Y-144817156D01*
X89256579Y-144817156D02*
X89124259Y-144822717D01*
X89124259Y-144822717D02*
X89003460Y-144831146D01*
X89003460Y-144831146D02*
X88886480Y-144843000D01*
X88886480Y-144843000D02*
X88765617Y-144858834D01*
X88765617Y-144858834D02*
X88633170Y-144879204D01*
X88633170Y-144879204D02*
X88481436Y-144904667D01*
X88481436Y-144904667D02*
X88455600Y-144909121D01*
X88455600Y-144909121D02*
X87914031Y-145024049D01*
X87914031Y-145024049D02*
X87380553Y-145179671D01*
X87380553Y-145179671D02*
X86858042Y-145374669D01*
X86858042Y-145374669D02*
X86349374Y-145607727D01*
X86349374Y-145607727D02*
X85857426Y-145877527D01*
X85857426Y-145877527D02*
X85385072Y-146182753D01*
X85385072Y-146182753D02*
X84937330Y-146520347D01*
X84937330Y-146520347D02*
X84512596Y-146892543D01*
X84512596Y-146892543D02*
X84117871Y-147293693D01*
X84117871Y-147293693D02*
X83754387Y-147721701D01*
X83754387Y-147721701D02*
X83423377Y-148174474D01*
X83423377Y-148174474D02*
X83126072Y-148649915D01*
X83126072Y-148649915D02*
X82863707Y-149145929D01*
X82863707Y-149145929D02*
X82637513Y-149660422D01*
X82637513Y-149660422D02*
X82448722Y-150191299D01*
X82448722Y-150191299D02*
X82298568Y-150736463D01*
X82298568Y-150736463D02*
X82212196Y-151152632D01*
X82212196Y-151152632D02*
X82151393Y-151576820D01*
X82151393Y-151576820D02*
X82115286Y-152024665D01*
X82115286Y-152024665D02*
X82103876Y-152485436D01*
X82103876Y-152485436D02*
X82117163Y-152948404D01*
X82117163Y-152948404D02*
X82155148Y-153402842D01*
X82155148Y-153402842D02*
X82211954Y-153804422D01*
X82211954Y-153804422D02*
X82305620Y-154262753D01*
X82305620Y-154262753D02*
X82427830Y-154710921D01*
X82427830Y-154710921D02*
X82581105Y-155156412D01*
X82581105Y-155156412D02*
X82767971Y-155606712D01*
X82767971Y-155606712D02*
X82945256Y-155979254D01*
X82945256Y-155979254D02*
X83007829Y-156105510D01*
X83007829Y-156105510D02*
X83063418Y-156220537D01*
X83063418Y-156220537D02*
X83109317Y-156318501D01*
X83109317Y-156318501D02*
X83142821Y-156393568D01*
X83142821Y-156393568D02*
X83161226Y-156439903D01*
X83161226Y-156439903D02*
X83163933Y-156450892D01*
X83163933Y-156450892D02*
X83144487Y-156542816D01*
X83144487Y-156542816D02*
X83091308Y-156619116D01*
X83091308Y-156619116D02*
X83012138Y-156672656D01*
X83012138Y-156672656D02*
X82914719Y-156696300D01*
X82914719Y-156696300D02*
X82897124Y-156696833D01*
X82897124Y-156696833D02*
X82840496Y-156689780D01*
X82840496Y-156689780D02*
X82791649Y-156662974D01*
X82791649Y-156662974D02*
X82742462Y-156616678D01*
X82742462Y-156616678D02*
X82704495Y-156566422D01*
X82704495Y-156566422D02*
X82653187Y-156483398D01*
X82653187Y-156483398D02*
X82591683Y-156373829D01*
X82591683Y-156373829D02*
X82523129Y-156243940D01*
X82523129Y-156243940D02*
X82450670Y-156099954D01*
X82450670Y-156099954D02*
X82377450Y-155948094D01*
X82377450Y-155948094D02*
X82306616Y-155794584D01*
X82306616Y-155794584D02*
X82241312Y-155645647D01*
X82241312Y-155645647D02*
X82194641Y-155532666D01*
X82194641Y-155532666D02*
X81996494Y-154980461D01*
X81996494Y-154980461D02*
X81839065Y-154419699D01*
X81839065Y-154419699D02*
X81722222Y-153852505D01*
X81722222Y-153852505D02*
X81645828Y-153281002D01*
X81645828Y-153281002D02*
X81609749Y-152707313D01*
X81609749Y-152707313D02*
X81613851Y-152133562D01*
X81613851Y-152133562D02*
X81657999Y-151561872D01*
X81657999Y-151561872D02*
X81742058Y-150994366D01*
X81742058Y-150994366D02*
X81865894Y-150433168D01*
X81865894Y-150433168D02*
X82029373Y-149880402D01*
X82029373Y-149880402D02*
X82232359Y-149338190D01*
X82232359Y-149338190D02*
X82474719Y-148808656D01*
X82474719Y-148808656D02*
X82640734Y-148494750D01*
X82640734Y-148494750D02*
X82732935Y-148337039D01*
X82732935Y-148337039D02*
X82845382Y-148157215D01*
X82845382Y-148157215D02*
X82971115Y-147965593D01*
X82971115Y-147965593D02*
X83103170Y-147772492D01*
X83103170Y-147772492D02*
X83234587Y-147588228D01*
X83234587Y-147588228D02*
X83358403Y-147423119D01*
X83358403Y-147423119D02*
X83397740Y-147372916D01*
X83397740Y-147372916D02*
X83516352Y-147230817D01*
X83516352Y-147230817D02*
X83660699Y-147069558D01*
X83660699Y-147069558D02*
X83823476Y-146896442D01*
X83823476Y-146896442D02*
X83997376Y-146718775D01*
X83997376Y-146718775D02*
X84175096Y-146543863D01*
X84175096Y-146543863D02*
X84349330Y-146379011D01*
X84349330Y-146379011D02*
X84512772Y-146231524D01*
X84512772Y-146231524D02*
X84658117Y-146108707D01*
X84658117Y-146108707D02*
X84677350Y-146093306D01*
X84677350Y-146093306D02*
X85156407Y-145739178D01*
X85156407Y-145739178D02*
X85653963Y-145422801D01*
X85653963Y-145422801D02*
X86169042Y-145144617D01*
X86169042Y-145144617D02*
X86700664Y-144905073D01*
X86700664Y-144905073D02*
X87247853Y-144704612D01*
X87247853Y-144704612D02*
X87809632Y-144543679D01*
X87809632Y-144543679D02*
X88328600Y-144432697D01*
X88328600Y-144432697D02*
X88520029Y-144400841D01*
X88520029Y-144400841D02*
X88719881Y-144372355D01*
X88719881Y-144372355D02*
X88918036Y-144348361D01*
X88918036Y-144348361D02*
X89104375Y-144329983D01*
X89104375Y-144329983D02*
X89268779Y-144318346D01*
X89268779Y-144318346D02*
X89392225Y-144314559D01*
X89392225Y-144314559D02*
X89556267Y-144314333D01*
X89556267Y-144314333D02*
X89556267Y-141152771D01*
X89556267Y-141152771D02*
X89556273Y-140725494D01*
X89556273Y-140725494D02*
X89556311Y-140338517D01*
X89556311Y-140338517D02*
X89556408Y-139989804D01*
X89556408Y-139989804D02*
X89556589Y-139677321D01*
X89556589Y-139677321D02*
X89556884Y-139399034D01*
X89556884Y-139399034D02*
X89557317Y-139152909D01*
X89557317Y-139152909D02*
X89557917Y-138936910D01*
X89557917Y-138936910D02*
X89558710Y-138749005D01*
X89558710Y-138749005D02*
X89559723Y-138587157D01*
X89559723Y-138587157D02*
X89560984Y-138449333D01*
X89560984Y-138449333D02*
X89562519Y-138333499D01*
X89562519Y-138333499D02*
X89564355Y-138237620D01*
X89564355Y-138237620D02*
X89566520Y-138159662D01*
X89566520Y-138159662D02*
X89569039Y-138097591D01*
X89569039Y-138097591D02*
X89571941Y-138049371D01*
X89571941Y-138049371D02*
X89575253Y-138012969D01*
X89575253Y-138012969D02*
X89579000Y-137986350D01*
X89579000Y-137986350D02*
X89583211Y-137967480D01*
X89583211Y-137967480D02*
X89587912Y-137954324D01*
X89587912Y-137954324D02*
X89593130Y-137944849D01*
X89593130Y-137944849D02*
X89598892Y-137937019D01*
X89598892Y-137937019D02*
X89598931Y-137936970D01*
X89598931Y-137936970D02*
X89669084Y-137877532D01*
X89669084Y-137877532D02*
X89753558Y-137849724D01*
X89753558Y-137849724D02*
X89841268Y-137853150D01*
X89841268Y-137853150D02*
X89841268Y-137853150D01*
G36*
X89841268Y-137853150D02*
G01*
X89921127Y-137887412D01*
X89981159Y-137950640D01*
X89986662Y-137960578D01*
X89991644Y-137972825D01*
X89996132Y-137989428D01*
X90000151Y-138012431D01*
X90003727Y-138043881D01*
X90006887Y-138085823D01*
X90009655Y-138140305D01*
X90012059Y-138209370D01*
X90014123Y-138295066D01*
X90015873Y-138399438D01*
X90017337Y-138524533D01*
X90018538Y-138672395D01*
X90019505Y-138845072D01*
X90020261Y-139044608D01*
X90020833Y-139273050D01*
X90021248Y-139532443D01*
X90021531Y-139824834D01*
X90021707Y-140152268D01*
X90021803Y-140516792D01*
X90021845Y-140920451D01*
X90021854Y-141165791D01*
X90021933Y-144314333D01*
X90181285Y-144314333D01*
X90366326Y-144320642D01*
X90582888Y-144338708D01*
X90822222Y-144367232D01*
X91075580Y-144404921D01*
X91334212Y-144450478D01*
X91589367Y-144502608D01*
X91821100Y-144557172D01*
X92372428Y-144718308D01*
X92910171Y-144918690D01*
X93432194Y-145156812D01*
X93936363Y-145431163D01*
X94420544Y-145740237D01*
X94882602Y-146082524D01*
X95320403Y-146456516D01*
X95731813Y-146860705D01*
X96114697Y-147293583D01*
X96466921Y-147753641D01*
X96584207Y-147923250D01*
X96892568Y-148419201D01*
X97163150Y-148934043D01*
X97395700Y-149467071D01*
X97589963Y-150017579D01*
X97745685Y-150584862D01*
X97862613Y-151168215D01*
X97929487Y-151659166D01*
X97942992Y-151819034D01*
X97953065Y-152010486D01*
X97959633Y-152222905D01*
X97962628Y-152445674D01*
X97961979Y-152668178D01*
X97957615Y-152879800D01*
X97949467Y-153069924D01*
X97939729Y-153204333D01*
X97865282Y-153789749D01*
X97750231Y-154365593D01*
X97595175Y-154929746D01*
X97400715Y-155480094D01*
X97167450Y-156014517D01*
X97110168Y-156131374D01*
X97030677Y-156289254D01*
X96966404Y-156413284D01*
X96914164Y-156507741D01*
X96870772Y-156576898D01*
X96833044Y-156625032D01*
X96797796Y-156656418D01*
X96761843Y-156675330D01*
X96722000Y-156686044D01*
X96693708Y-156690477D01*
X96596676Y-156684195D01*
X96512882Y-156643019D01*
X96450428Y-156574075D01*
X96417414Y-156484491D01*
X96414267Y-156444654D01*
X96423667Y-156413429D01*
X96449846Y-156351349D01*
X96489766Y-156264968D01*
X96540392Y-156160840D01*
X96598687Y-156045519D01*
X96603328Y-156036516D01*
X96828403Y-155567590D01*
X97016872Y-155101539D01*
X97171663Y-154629301D01*
X97295705Y-154141813D01*
X97391923Y-153630012D01*
X97402097Y-153564166D01*
X97426670Y-153366409D01*
X97446252Y-153137593D01*
X97460518Y-152888732D01*
X97469143Y-152630843D01*
X97471802Y-152374941D01*
X97468170Y-152132042D01*
X97457923Y-151913161D01*
X97452799Y-151845288D01*
X97384139Y-151280368D01*
X97274860Y-150725654D01*
X97125843Y-150183002D01*
X96937971Y-149654267D01*
X96712125Y-149141305D01*
X96449189Y-148645971D01*
X96150043Y-148170120D01*
X95815570Y-147715608D01*
X95446652Y-147284290D01*
X95130397Y-146960166D01*
X94702049Y-146574379D01*
X94252866Y-146225423D01*
X93783095Y-145913419D01*
X93292981Y-145638486D01*
X92782767Y-145400743D01*
X92252700Y-145200310D01*
X91703024Y-145037306D01*
X91133984Y-144911852D01*
X90826267Y-144860867D01*
X90728727Y-144847119D01*
X90638832Y-144836204D01*
X90549813Y-144827800D01*
X90454899Y-144821588D01*
X90347319Y-144817244D01*
X90220304Y-144814448D01*
X90067084Y-144812878D01*
X89880888Y-144812213D01*
X89799683Y-144812131D01*
X89586589Y-144812419D01*
X89408122Y-144813909D01*
X89256579Y-144817156D01*
X89124259Y-144822717D01*
X89003460Y-144831146D01*
X88886480Y-144843000D01*
X88765617Y-144858834D01*
X88633170Y-144879204D01*
X88481436Y-144904667D01*
X88455600Y-144909121D01*
X87914031Y-145024049D01*
X87380553Y-145179671D01*
X86858042Y-145374669D01*
X86349374Y-145607727D01*
X85857426Y-145877527D01*
X85385072Y-146182753D01*
X84937330Y-146520347D01*
X84512596Y-146892543D01*
X84117871Y-147293693D01*
X83754387Y-147721701D01*
X83423377Y-148174474D01*
X83126072Y-148649915D01*
X82863707Y-149145929D01*
X82637513Y-149660422D01*
X82448722Y-150191299D01*
X82298568Y-150736463D01*
X82212196Y-151152632D01*
X82151393Y-151576820D01*
X82115286Y-152024665D01*
X82103876Y-152485436D01*
X82117163Y-152948404D01*
X82155148Y-153402842D01*
X82211954Y-153804422D01*
X82305620Y-154262753D01*
X82427830Y-154710921D01*
X82581105Y-155156412D01*
X82767971Y-155606712D01*
X82945256Y-155979254D01*
X83007829Y-156105510D01*
X83063418Y-156220537D01*
X83109317Y-156318501D01*
X83142821Y-156393568D01*
X83161226Y-156439903D01*
X83163933Y-156450892D01*
X83144487Y-156542816D01*
X83091308Y-156619116D01*
X83012138Y-156672656D01*
X82914719Y-156696300D01*
X82897124Y-156696833D01*
X82840496Y-156689780D01*
X82791649Y-156662974D01*
X82742462Y-156616678D01*
X82704495Y-156566422D01*
X82653187Y-156483398D01*
X82591683Y-156373829D01*
X82523129Y-156243940D01*
X82450670Y-156099954D01*
X82377450Y-155948094D01*
X82306616Y-155794584D01*
X82241312Y-155645647D01*
X82194641Y-155532666D01*
X81996494Y-154980461D01*
X81839065Y-154419699D01*
X81722222Y-153852505D01*
X81645828Y-153281002D01*
X81609749Y-152707313D01*
X81613851Y-152133562D01*
X81657999Y-151561872D01*
X81742058Y-150994366D01*
X81865894Y-150433168D01*
X82029373Y-149880402D01*
X82232359Y-149338190D01*
X82474719Y-148808656D01*
X82640734Y-148494750D01*
X82732935Y-148337039D01*
X82845382Y-148157215D01*
X82971115Y-147965593D01*
X83103170Y-147772492D01*
X83234587Y-147588228D01*
X83358403Y-147423119D01*
X83397740Y-147372916D01*
X83516352Y-147230817D01*
X83660699Y-147069558D01*
X83823476Y-146896442D01*
X83997376Y-146718775D01*
X84175096Y-146543863D01*
X84349330Y-146379011D01*
X84512772Y-146231524D01*
X84658117Y-146108707D01*
X84677350Y-146093306D01*
X85156407Y-145739178D01*
X85653963Y-145422801D01*
X86169042Y-145144617D01*
X86700664Y-144905073D01*
X87247853Y-144704612D01*
X87809632Y-144543679D01*
X88328600Y-144432697D01*
X88520029Y-144400841D01*
X88719881Y-144372355D01*
X88918036Y-144348361D01*
X89104375Y-144329983D01*
X89268779Y-144318346D01*
X89392225Y-144314559D01*
X89556267Y-144314333D01*
X89556267Y-141152771D01*
X89556273Y-140725494D01*
X89556311Y-140338517D01*
X89556408Y-139989804D01*
X89556589Y-139677321D01*
X89556884Y-139399034D01*
X89557317Y-139152909D01*
X89557917Y-138936910D01*
X89558710Y-138749005D01*
X89559723Y-138587157D01*
X89560984Y-138449333D01*
X89562519Y-138333499D01*
X89564355Y-138237620D01*
X89566520Y-138159662D01*
X89569039Y-138097591D01*
X89571941Y-138049371D01*
X89575253Y-138012969D01*
X89579000Y-137986350D01*
X89583211Y-137967480D01*
X89587912Y-137954324D01*
X89593130Y-137944849D01*
X89598892Y-137937019D01*
X89598931Y-137936970D01*
X89669084Y-137877532D01*
X89753558Y-137849724D01*
X89841268Y-137853150D01*
G37*
X89841268Y-137853150D02*
X89921127Y-137887412D01*
X89981159Y-137950640D01*
X89986662Y-137960578D01*
X89991644Y-137972825D01*
X89996132Y-137989428D01*
X90000151Y-138012431D01*
X90003727Y-138043881D01*
X90006887Y-138085823D01*
X90009655Y-138140305D01*
X90012059Y-138209370D01*
X90014123Y-138295066D01*
X90015873Y-138399438D01*
X90017337Y-138524533D01*
X90018538Y-138672395D01*
X90019505Y-138845072D01*
X90020261Y-139044608D01*
X90020833Y-139273050D01*
X90021248Y-139532443D01*
X90021531Y-139824834D01*
X90021707Y-140152268D01*
X90021803Y-140516792D01*
X90021845Y-140920451D01*
X90021854Y-141165791D01*
X90021933Y-144314333D01*
X90181285Y-144314333D01*
X90366326Y-144320642D01*
X90582888Y-144338708D01*
X90822222Y-144367232D01*
X91075580Y-144404921D01*
X91334212Y-144450478D01*
X91589367Y-144502608D01*
X91821100Y-144557172D01*
X92372428Y-144718308D01*
X92910171Y-144918690D01*
X93432194Y-145156812D01*
X93936363Y-145431163D01*
X94420544Y-145740237D01*
X94882602Y-146082524D01*
X95320403Y-146456516D01*
X95731813Y-146860705D01*
X96114697Y-147293583D01*
X96466921Y-147753641D01*
X96584207Y-147923250D01*
X96892568Y-148419201D01*
X97163150Y-148934043D01*
X97395700Y-149467071D01*
X97589963Y-150017579D01*
X97745685Y-150584862D01*
X97862613Y-151168215D01*
X97929487Y-151659166D01*
X97942992Y-151819034D01*
X97953065Y-152010486D01*
X97959633Y-152222905D01*
X97962628Y-152445674D01*
X97961979Y-152668178D01*
X97957615Y-152879800D01*
X97949467Y-153069924D01*
X97939729Y-153204333D01*
X97865282Y-153789749D01*
X97750231Y-154365593D01*
X97595175Y-154929746D01*
X97400715Y-155480094D01*
X97167450Y-156014517D01*
X97110168Y-156131374D01*
X97030677Y-156289254D01*
X96966404Y-156413284D01*
X96914164Y-156507741D01*
X96870772Y-156576898D01*
X96833044Y-156625032D01*
X96797796Y-156656418D01*
X96761843Y-156675330D01*
X96722000Y-156686044D01*
X96693708Y-156690477D01*
X96596676Y-156684195D01*
X96512882Y-156643019D01*
X96450428Y-156574075D01*
X96417414Y-156484491D01*
X96414267Y-156444654D01*
X96423667Y-156413429D01*
X96449846Y-156351349D01*
X96489766Y-156264968D01*
X96540392Y-156160840D01*
X96598687Y-156045519D01*
X96603328Y-156036516D01*
X96828403Y-155567590D01*
X97016872Y-155101539D01*
X97171663Y-154629301D01*
X97295705Y-154141813D01*
X97391923Y-153630012D01*
X97402097Y-153564166D01*
X97426670Y-153366409D01*
X97446252Y-153137593D01*
X97460518Y-152888732D01*
X97469143Y-152630843D01*
X97471802Y-152374941D01*
X97468170Y-152132042D01*
X97457923Y-151913161D01*
X97452799Y-151845288D01*
X97384139Y-151280368D01*
X97274860Y-150725654D01*
X97125843Y-150183002D01*
X96937971Y-149654267D01*
X96712125Y-149141305D01*
X96449189Y-148645971D01*
X96150043Y-148170120D01*
X95815570Y-147715608D01*
X95446652Y-147284290D01*
X95130397Y-146960166D01*
X94702049Y-146574379D01*
X94252866Y-146225423D01*
X93783095Y-145913419D01*
X93292981Y-145638486D01*
X92782767Y-145400743D01*
X92252700Y-145200310D01*
X91703024Y-145037306D01*
X91133984Y-144911852D01*
X90826267Y-144860867D01*
X90728727Y-144847119D01*
X90638832Y-144836204D01*
X90549813Y-144827800D01*
X90454899Y-144821588D01*
X90347319Y-144817244D01*
X90220304Y-144814448D01*
X90067084Y-144812878D01*
X89880888Y-144812213D01*
X89799683Y-144812131D01*
X89586589Y-144812419D01*
X89408122Y-144813909D01*
X89256579Y-144817156D01*
X89124259Y-144822717D01*
X89003460Y-144831146D01*
X88886480Y-144843000D01*
X88765617Y-144858834D01*
X88633170Y-144879204D01*
X88481436Y-144904667D01*
X88455600Y-144909121D01*
X87914031Y-145024049D01*
X87380553Y-145179671D01*
X86858042Y-145374669D01*
X86349374Y-145607727D01*
X85857426Y-145877527D01*
X85385072Y-146182753D01*
X84937330Y-146520347D01*
X84512596Y-146892543D01*
X84117871Y-147293693D01*
X83754387Y-147721701D01*
X83423377Y-148174474D01*
X83126072Y-148649915D01*
X82863707Y-149145929D01*
X82637513Y-149660422D01*
X82448722Y-150191299D01*
X82298568Y-150736463D01*
X82212196Y-151152632D01*
X82151393Y-151576820D01*
X82115286Y-152024665D01*
X82103876Y-152485436D01*
X82117163Y-152948404D01*
X82155148Y-153402842D01*
X82211954Y-153804422D01*
X82305620Y-154262753D01*
X82427830Y-154710921D01*
X82581105Y-155156412D01*
X82767971Y-155606712D01*
X82945256Y-155979254D01*
X83007829Y-156105510D01*
X83063418Y-156220537D01*
X83109317Y-156318501D01*
X83142821Y-156393568D01*
X83161226Y-156439903D01*
X83163933Y-156450892D01*
X83144487Y-156542816D01*
X83091308Y-156619116D01*
X83012138Y-156672656D01*
X82914719Y-156696300D01*
X82897124Y-156696833D01*
X82840496Y-156689780D01*
X82791649Y-156662974D01*
X82742462Y-156616678D01*
X82704495Y-156566422D01*
X82653187Y-156483398D01*
X82591683Y-156373829D01*
X82523129Y-156243940D01*
X82450670Y-156099954D01*
X82377450Y-155948094D01*
X82306616Y-155794584D01*
X82241312Y-155645647D01*
X82194641Y-155532666D01*
X81996494Y-154980461D01*
X81839065Y-154419699D01*
X81722222Y-153852505D01*
X81645828Y-153281002D01*
X81609749Y-152707313D01*
X81613851Y-152133562D01*
X81657999Y-151561872D01*
X81742058Y-150994366D01*
X81865894Y-150433168D01*
X82029373Y-149880402D01*
X82232359Y-149338190D01*
X82474719Y-148808656D01*
X82640734Y-148494750D01*
X82732935Y-148337039D01*
X82845382Y-148157215D01*
X82971115Y-147965593D01*
X83103170Y-147772492D01*
X83234587Y-147588228D01*
X83358403Y-147423119D01*
X83397740Y-147372916D01*
X83516352Y-147230817D01*
X83660699Y-147069558D01*
X83823476Y-146896442D01*
X83997376Y-146718775D01*
X84175096Y-146543863D01*
X84349330Y-146379011D01*
X84512772Y-146231524D01*
X84658117Y-146108707D01*
X84677350Y-146093306D01*
X85156407Y-145739178D01*
X85653963Y-145422801D01*
X86169042Y-145144617D01*
X86700664Y-144905073D01*
X87247853Y-144704612D01*
X87809632Y-144543679D01*
X88328600Y-144432697D01*
X88520029Y-144400841D01*
X88719881Y-144372355D01*
X88918036Y-144348361D01*
X89104375Y-144329983D01*
X89268779Y-144318346D01*
X89392225Y-144314559D01*
X89556267Y-144314333D01*
X89556267Y-141152771D01*
X89556273Y-140725494D01*
X89556311Y-140338517D01*
X89556408Y-139989804D01*
X89556589Y-139677321D01*
X89556884Y-139399034D01*
X89557317Y-139152909D01*
X89557917Y-138936910D01*
X89558710Y-138749005D01*
X89559723Y-138587157D01*
X89560984Y-138449333D01*
X89562519Y-138333499D01*
X89564355Y-138237620D01*
X89566520Y-138159662D01*
X89569039Y-138097591D01*
X89571941Y-138049371D01*
X89575253Y-138012969D01*
X89579000Y-137986350D01*
X89583211Y-137967480D01*
X89587912Y-137954324D01*
X89593130Y-137944849D01*
X89598892Y-137937019D01*
X89598931Y-137936970D01*
X89669084Y-137877532D01*
X89753558Y-137849724D01*
X89841268Y-137853150D01*
X115258719Y-137851339D02*
X115304710Y-137866587D01*
X115304710Y-137866587D02*
X115345555Y-137901128D01*
X115345555Y-137901128D02*
X115360169Y-137917042D01*
X115360169Y-137917042D02*
X115421933Y-137986167D01*
X115421933Y-137986167D02*
X115421933Y-144314333D01*
X115421933Y-144314333D02*
X115581285Y-144314333D01*
X115581285Y-144314333D02*
X115706772Y-144318298D01*
X115706772Y-144318298D02*
X115863413Y-144329430D01*
X115863413Y-144329430D02*
X116040850Y-144346585D01*
X116040850Y-144346585D02*
X116228728Y-144368620D01*
X116228728Y-144368620D02*
X116416691Y-144394389D01*
X116416691Y-144394389D02*
X116594383Y-144422750D01*
X116594383Y-144422750D02*
X116646283Y-144431984D01*
X116646283Y-144431984D02*
X117227063Y-144559287D01*
X117227063Y-144559287D02*
X117791315Y-144725556D01*
X117791315Y-144725556D02*
X118338790Y-144930676D01*
X118338790Y-144930676D02*
X118869236Y-145174533D01*
X118869236Y-145174533D02*
X119382406Y-145457016D01*
X119382406Y-145457016D02*
X119878049Y-145778009D01*
X119878049Y-145778009D02*
X120300850Y-146093306D01*
X120300850Y-146093306D02*
X120442949Y-146211918D01*
X120442949Y-146211918D02*
X120604208Y-146356265D01*
X120604208Y-146356265D02*
X120777324Y-146519042D01*
X120777324Y-146519042D02*
X120954991Y-146692943D01*
X120954991Y-146692943D02*
X121129903Y-146870663D01*
X121129903Y-146870663D02*
X121294755Y-147044896D01*
X121294755Y-147044896D02*
X121442242Y-147208338D01*
X121442242Y-147208338D02*
X121565059Y-147353684D01*
X121565059Y-147353684D02*
X121580460Y-147372916D01*
X121580460Y-147372916D02*
X121700080Y-147529111D01*
X121700080Y-147529111D02*
X121829682Y-147707987D01*
X121829682Y-147707987D02*
X121962302Y-147899228D01*
X121962302Y-147899228D02*
X122090979Y-148092516D01*
X122090979Y-148092516D02*
X122208752Y-148277534D01*
X122208752Y-148277534D02*
X122308657Y-148443965D01*
X122308657Y-148443965D02*
X122337466Y-148494750D01*
X122337466Y-148494750D02*
X122603480Y-149015521D01*
X122603480Y-149015521D02*
X122830763Y-149551934D01*
X122830763Y-149551934D02*
X123018883Y-150101680D01*
X123018883Y-150101680D02*
X123167408Y-150662453D01*
X123167408Y-150662453D02*
X123275906Y-151231946D01*
X123275906Y-151231946D02*
X123343947Y-151807852D01*
X123343947Y-151807852D02*
X123371099Y-152387864D01*
X123371099Y-152387864D02*
X123356929Y-152969675D01*
X123356929Y-152969675D02*
X123301006Y-153550978D01*
X123301006Y-153550978D02*
X123293646Y-153605087D01*
X123293646Y-153605087D02*
X123204930Y-154127524D01*
X123204930Y-154127524D02*
X123086229Y-154630982D01*
X123086229Y-154630982D02*
X122935107Y-155123250D01*
X122935107Y-155123250D02*
X122749126Y-155612115D01*
X122749126Y-155612115D02*
X122525848Y-156105365D01*
X122525848Y-156105365D02*
X122485241Y-156187737D01*
X122485241Y-156187737D02*
X122402885Y-156348415D01*
X122402885Y-156348415D02*
X122333034Y-156473469D01*
X122333034Y-156473469D02*
X122272694Y-156566670D01*
X122272694Y-156566670D02*
X122218872Y-156631786D01*
X122218872Y-156631786D02*
X122168575Y-156672589D01*
X122168575Y-156672589D02*
X122118809Y-156692849D01*
X122118809Y-156692849D02*
X122081076Y-156696833D01*
X122081076Y-156696833D02*
X121980706Y-156678792D01*
X121980706Y-156678792D02*
X121897836Y-156629340D01*
X121897836Y-156629340D02*
X121840007Y-156555487D01*
X121840007Y-156555487D02*
X121814757Y-156464241D01*
X121814757Y-156464241D02*
X121814244Y-156448804D01*
X121814244Y-156448804D02*
X121823515Y-156418907D01*
X121823515Y-156418907D02*
X121849357Y-156357914D01*
X121849357Y-156357914D02*
X121888789Y-156272277D01*
X121888789Y-156272277D02*
X121938833Y-156168451D01*
X121938833Y-156168451D02*
X121996508Y-156052887D01*
X121996508Y-156052887D02*
X122002716Y-156040666D01*
X122002716Y-156040666D02*
X122146370Y-155749811D01*
X122146370Y-155749811D02*
X122268741Y-155481872D01*
X122268741Y-155481872D02*
X122374007Y-155225944D01*
X122374007Y-155225944D02*
X122466348Y-154971125D01*
X122466348Y-154971125D02*
X122549941Y-154706510D01*
X122549941Y-154706510D02*
X122628966Y-154421195D01*
X122628966Y-154421195D02*
X122640688Y-154375922D01*
X122640688Y-154375922D02*
X122730934Y-153986252D01*
X122730934Y-153986252D02*
X122797591Y-153607310D01*
X122797591Y-153607310D02*
X122842259Y-153226110D01*
X122842259Y-153226110D02*
X122866539Y-152829670D01*
X122866539Y-152829670D02*
X122872356Y-152495250D01*
X122872356Y-152495250D02*
X122867979Y-152164925D01*
X122867979Y-152164925D02*
X122853686Y-151863573D01*
X122853686Y-151863573D02*
X122828196Y-151578721D01*
X122828196Y-151578721D02*
X122790233Y-151297900D01*
X122790233Y-151297900D02*
X122738518Y-151008638D01*
X122738518Y-151008638D02*
X122702063Y-150833666D01*
X122702063Y-150833666D02*
X122563164Y-150293539D01*
X122563164Y-150293539D02*
X122385872Y-149768801D01*
X122385872Y-149768801D02*
X122171838Y-149261103D01*
X122171838Y-149261103D02*
X121922711Y-148772093D01*
X121922711Y-148772093D02*
X121640141Y-148303422D01*
X121640141Y-148303422D02*
X121325778Y-147856739D01*
X121325778Y-147856739D02*
X120981270Y-147433694D01*
X120981270Y-147433694D02*
X120608268Y-147035936D01*
X120608268Y-147035936D02*
X120208421Y-146665115D01*
X120208421Y-146665115D02*
X119783379Y-146322881D01*
X119783379Y-146322881D02*
X119334791Y-146010883D01*
X119334791Y-146010883D02*
X118864307Y-145730770D01*
X118864307Y-145730770D02*
X118373577Y-145484194D01*
X118373577Y-145484194D02*
X117864249Y-145272802D01*
X117864249Y-145272802D02*
X117337974Y-145098245D01*
X117337974Y-145098245D02*
X116840100Y-144971570D01*
X116840100Y-144971570D02*
X116638658Y-144929032D01*
X116638658Y-144929032D02*
X116458209Y-144894575D01*
X116458209Y-144894575D02*
X116290463Y-144867402D01*
X116290463Y-144867402D02*
X116127126Y-144846711D01*
X116127126Y-144846711D02*
X115959907Y-144831704D01*
X115959907Y-144831704D02*
X115780514Y-144821581D01*
X115780514Y-144821581D02*
X115580654Y-144815542D01*
X115580654Y-144815542D02*
X115352036Y-144812789D01*
X115352036Y-144812789D02*
X115189100Y-144812380D01*
X115189100Y-144812380D02*
X114972350Y-144812855D01*
X114972350Y-144812855D02*
X114790143Y-144814623D01*
X114790143Y-144814623D02*
X114634692Y-144818283D01*
X114634692Y-144818283D02*
X114498212Y-144824435D01*
X114498212Y-144824435D02*
X114372918Y-144833679D01*
X114372918Y-144833679D02*
X114251023Y-144846615D01*
X114251023Y-144846615D02*
X114124743Y-144863842D01*
X114124743Y-144863842D02*
X113986291Y-144885961D01*
X113986291Y-144885961D02*
X113827882Y-144913569D01*
X113827882Y-144913569D02*
X113792100Y-144919986D01*
X113792100Y-144919986D02*
X113258362Y-145037311D01*
X113258362Y-145037311D02*
X112732273Y-145195186D01*
X112732273Y-145195186D02*
X112216773Y-145392092D01*
X112216773Y-145392092D02*
X111714799Y-145626511D01*
X111714799Y-145626511D02*
X111229289Y-145896921D01*
X111229289Y-145896921D02*
X110763181Y-146201804D01*
X110763181Y-146201804D02*
X110319413Y-146539639D01*
X110319413Y-146539639D02*
X109900923Y-146908909D01*
X109900923Y-146908909D02*
X109847473Y-146960166D01*
X109847473Y-146960166D02*
X109451485Y-147372604D01*
X109451485Y-147372604D02*
X109089383Y-147809489D01*
X109089383Y-147809489D02*
X108762032Y-148269003D01*
X108762032Y-148269003D02*
X108470294Y-148749330D01*
X108470294Y-148749330D02*
X108215034Y-149248653D01*
X108215034Y-149248653D02*
X107997114Y-149765156D01*
X107997114Y-149765156D02*
X107817399Y-150297022D01*
X107817399Y-150297022D02*
X107676752Y-150842435D01*
X107676752Y-150842435D02*
X107576036Y-151399577D01*
X107576036Y-151399577D02*
X107525400Y-151845288D01*
X107525400Y-151845288D02*
X107516621Y-151988427D01*
X107516621Y-151988427D02*
X107511325Y-152161139D01*
X107511325Y-152161139D02*
X107509336Y-152354466D01*
X107509336Y-152354466D02*
X107510474Y-152559448D01*
X107510474Y-152559448D02*
X107514564Y-152767124D01*
X107514564Y-152767124D02*
X107521426Y-152968535D01*
X107521426Y-152968535D02*
X107530884Y-153154721D01*
X107530884Y-153154721D02*
X107542759Y-153316723D01*
X107542759Y-153316723D02*
X107556874Y-153445579D01*
X107556874Y-153445579D02*
X107557177Y-153447750D01*
X107557177Y-153447750D02*
X107642521Y-153956994D01*
X107642521Y-153956994D02*
X107752862Y-154439013D01*
X107752862Y-154439013D02*
X107890984Y-154902617D01*
X107890984Y-154902617D02*
X108059669Y-155356615D01*
X108059669Y-155356615D02*
X108261700Y-155809818D01*
X108261700Y-155809818D02*
X108374872Y-156036516D01*
X108374872Y-156036516D02*
X108433624Y-156152417D01*
X108433624Y-156152417D02*
X108484936Y-156257622D01*
X108484936Y-156257622D02*
X108525774Y-156345577D01*
X108525774Y-156345577D02*
X108553099Y-156409726D01*
X108553099Y-156409726D02*
X108563877Y-156443516D01*
X108563877Y-156443516D02*
X108563933Y-156444654D01*
X108563933Y-156444654D02*
X108545042Y-156539145D01*
X108545042Y-156539145D02*
X108494139Y-156616122D01*
X108494139Y-156616122D02*
X108419880Y-156669832D01*
X108419880Y-156669832D02*
X108330919Y-156694520D01*
X108330919Y-156694520D02*
X108235912Y-156684433D01*
X108235912Y-156684433D02*
X108214683Y-156676823D01*
X108214683Y-156676823D02*
X108180414Y-156658337D01*
X108180414Y-156658337D02*
X108147353Y-156628581D01*
X108147353Y-156628581D02*
X108111072Y-156581476D01*
X108111072Y-156581476D02*
X108067145Y-156510941D01*
X108067145Y-156510941D02*
X108011144Y-156410897D01*
X108011144Y-156410897D02*
X107982943Y-156358587D01*
X107982943Y-156358587D02*
X107723506Y-155829743D01*
X107723506Y-155829743D02*
X107503796Y-155287612D01*
X107503796Y-155287612D02*
X107324041Y-154734136D01*
X107324041Y-154734136D02*
X107184468Y-154171257D01*
X107184468Y-154171257D02*
X107085304Y-153600914D01*
X107085304Y-153600914D02*
X107026776Y-153025050D01*
X107026776Y-153025050D02*
X107009113Y-152445605D01*
X107009113Y-152445605D02*
X107032541Y-151864521D01*
X107032541Y-151864521D02*
X107097288Y-151283739D01*
X107097288Y-151283739D02*
X107203582Y-150705200D01*
X107203582Y-150705200D02*
X107282477Y-150378583D01*
X107282477Y-150378583D02*
X107448528Y-149828797D01*
X107448528Y-149828797D02*
X107652562Y-149295359D01*
X107652562Y-149295359D02*
X107892916Y-148779916D01*
X107892916Y-148779916D02*
X108167927Y-148284115D01*
X108167927Y-148284115D02*
X108475932Y-147809604D01*
X108475932Y-147809604D02*
X108815270Y-147358030D01*
X108815270Y-147358030D02*
X109184276Y-146931041D01*
X109184276Y-146931041D02*
X109581289Y-146530284D01*
X109581289Y-146530284D02*
X110004645Y-146157407D01*
X110004645Y-146157407D02*
X110452682Y-145814058D01*
X110452682Y-145814058D02*
X110923736Y-145501883D01*
X110923736Y-145501883D02*
X111416146Y-145222530D01*
X111416146Y-145222530D02*
X111928249Y-144977647D01*
X111928249Y-144977647D02*
X112458381Y-144768882D01*
X112458381Y-144768882D02*
X113004880Y-144597881D01*
X113004880Y-144597881D02*
X113157100Y-144557876D01*
X113157100Y-144557876D02*
X113406677Y-144499424D01*
X113406677Y-144499424D02*
X113666571Y-144446733D01*
X113666571Y-144446733D02*
X113928169Y-144401081D01*
X113928169Y-144401081D02*
X114182856Y-144363748D01*
X114182856Y-144363748D02*
X114422019Y-144336013D01*
X114422019Y-144336013D02*
X114637044Y-144319155D01*
X114637044Y-144319155D02*
X114796915Y-144314333D01*
X114796915Y-144314333D02*
X114956267Y-144314333D01*
X114956267Y-144314333D02*
X114956267Y-137986167D01*
X114956267Y-137986167D02*
X115018030Y-137917042D01*
X115018030Y-137917042D02*
X115061053Y-137874949D01*
X115061053Y-137874949D02*
X115103454Y-137854479D01*
X115103454Y-137854479D02*
X115163712Y-137848166D01*
X115163712Y-137848166D02*
X115189100Y-137847916D01*
X115189100Y-137847916D02*
X115258719Y-137851339D01*
X115258719Y-137851339D02*
X115258719Y-137851339D01*
G36*
X115258719Y-137851339D02*
G01*
X115304710Y-137866587D01*
X115345555Y-137901128D01*
X115360169Y-137917042D01*
X115421933Y-137986167D01*
X115421933Y-144314333D01*
X115581285Y-144314333D01*
X115706772Y-144318298D01*
X115863413Y-144329430D01*
X116040850Y-144346585D01*
X116228728Y-144368620D01*
X116416691Y-144394389D01*
X116594383Y-144422750D01*
X116646283Y-144431984D01*
X117227063Y-144559287D01*
X117791315Y-144725556D01*
X118338790Y-144930676D01*
X118869236Y-145174533D01*
X119382406Y-145457016D01*
X119878049Y-145778009D01*
X120300850Y-146093306D01*
X120442949Y-146211918D01*
X120604208Y-146356265D01*
X120777324Y-146519042D01*
X120954991Y-146692943D01*
X121129903Y-146870663D01*
X121294755Y-147044896D01*
X121442242Y-147208338D01*
X121565059Y-147353684D01*
X121580460Y-147372916D01*
X121700080Y-147529111D01*
X121829682Y-147707987D01*
X121962302Y-147899228D01*
X122090979Y-148092516D01*
X122208752Y-148277534D01*
X122308657Y-148443965D01*
X122337466Y-148494750D01*
X122603480Y-149015521D01*
X122830763Y-149551934D01*
X123018883Y-150101680D01*
X123167408Y-150662453D01*
X123275906Y-151231946D01*
X123343947Y-151807852D01*
X123371099Y-152387864D01*
X123356929Y-152969675D01*
X123301006Y-153550978D01*
X123293646Y-153605087D01*
X123204930Y-154127524D01*
X123086229Y-154630982D01*
X122935107Y-155123250D01*
X122749126Y-155612115D01*
X122525848Y-156105365D01*
X122485241Y-156187737D01*
X122402885Y-156348415D01*
X122333034Y-156473469D01*
X122272694Y-156566670D01*
X122218872Y-156631786D01*
X122168575Y-156672589D01*
X122118809Y-156692849D01*
X122081076Y-156696833D01*
X121980706Y-156678792D01*
X121897836Y-156629340D01*
X121840007Y-156555487D01*
X121814757Y-156464241D01*
X121814244Y-156448804D01*
X121823515Y-156418907D01*
X121849357Y-156357914D01*
X121888789Y-156272277D01*
X121938833Y-156168451D01*
X121996508Y-156052887D01*
X122002716Y-156040666D01*
X122146370Y-155749811D01*
X122268741Y-155481872D01*
X122374007Y-155225944D01*
X122466348Y-154971125D01*
X122549941Y-154706510D01*
X122628966Y-154421195D01*
X122640688Y-154375922D01*
X122730934Y-153986252D01*
X122797591Y-153607310D01*
X122842259Y-153226110D01*
X122866539Y-152829670D01*
X122872356Y-152495250D01*
X122867979Y-152164925D01*
X122853686Y-151863573D01*
X122828196Y-151578721D01*
X122790233Y-151297900D01*
X122738518Y-151008638D01*
X122702063Y-150833666D01*
X122563164Y-150293539D01*
X122385872Y-149768801D01*
X122171838Y-149261103D01*
X121922711Y-148772093D01*
X121640141Y-148303422D01*
X121325778Y-147856739D01*
X120981270Y-147433694D01*
X120608268Y-147035936D01*
X120208421Y-146665115D01*
X119783379Y-146322881D01*
X119334791Y-146010883D01*
X118864307Y-145730770D01*
X118373577Y-145484194D01*
X117864249Y-145272802D01*
X117337974Y-145098245D01*
X116840100Y-144971570D01*
X116638658Y-144929032D01*
X116458209Y-144894575D01*
X116290463Y-144867402D01*
X116127126Y-144846711D01*
X115959907Y-144831704D01*
X115780514Y-144821581D01*
X115580654Y-144815542D01*
X115352036Y-144812789D01*
X115189100Y-144812380D01*
X114972350Y-144812855D01*
X114790143Y-144814623D01*
X114634692Y-144818283D01*
X114498212Y-144824435D01*
X114372918Y-144833679D01*
X114251023Y-144846615D01*
X114124743Y-144863842D01*
X113986291Y-144885961D01*
X113827882Y-144913569D01*
X113792100Y-144919986D01*
X113258362Y-145037311D01*
X112732273Y-145195186D01*
X112216773Y-145392092D01*
X111714799Y-145626511D01*
X111229289Y-145896921D01*
X110763181Y-146201804D01*
X110319413Y-146539639D01*
X109900923Y-146908909D01*
X109847473Y-146960166D01*
X109451485Y-147372604D01*
X109089383Y-147809489D01*
X108762032Y-148269003D01*
X108470294Y-148749330D01*
X108215034Y-149248653D01*
X107997114Y-149765156D01*
X107817399Y-150297022D01*
X107676752Y-150842435D01*
X107576036Y-151399577D01*
X107525400Y-151845288D01*
X107516621Y-151988427D01*
X107511325Y-152161139D01*
X107509336Y-152354466D01*
X107510474Y-152559448D01*
X107514564Y-152767124D01*
X107521426Y-152968535D01*
X107530884Y-153154721D01*
X107542759Y-153316723D01*
X107556874Y-153445579D01*
X107557177Y-153447750D01*
X107642521Y-153956994D01*
X107752862Y-154439013D01*
X107890984Y-154902617D01*
X108059669Y-155356615D01*
X108261700Y-155809818D01*
X108374872Y-156036516D01*
X108433624Y-156152417D01*
X108484936Y-156257622D01*
X108525774Y-156345577D01*
X108553099Y-156409726D01*
X108563877Y-156443516D01*
X108563933Y-156444654D01*
X108545042Y-156539145D01*
X108494139Y-156616122D01*
X108419880Y-156669832D01*
X108330919Y-156694520D01*
X108235912Y-156684433D01*
X108214683Y-156676823D01*
X108180414Y-156658337D01*
X108147353Y-156628581D01*
X108111072Y-156581476D01*
X108067145Y-156510941D01*
X108011144Y-156410897D01*
X107982943Y-156358587D01*
X107723506Y-155829743D01*
X107503796Y-155287612D01*
X107324041Y-154734136D01*
X107184468Y-154171257D01*
X107085304Y-153600914D01*
X107026776Y-153025050D01*
X107009113Y-152445605D01*
X107032541Y-151864521D01*
X107097288Y-151283739D01*
X107203582Y-150705200D01*
X107282477Y-150378583D01*
X107448528Y-149828797D01*
X107652562Y-149295359D01*
X107892916Y-148779916D01*
X108167927Y-148284115D01*
X108475932Y-147809604D01*
X108815270Y-147358030D01*
X109184276Y-146931041D01*
X109581289Y-146530284D01*
X110004645Y-146157407D01*
X110452682Y-145814058D01*
X110923736Y-145501883D01*
X111416146Y-145222530D01*
X111928249Y-144977647D01*
X112458381Y-144768882D01*
X113004880Y-144597881D01*
X113157100Y-144557876D01*
X113406677Y-144499424D01*
X113666571Y-144446733D01*
X113928169Y-144401081D01*
X114182856Y-144363748D01*
X114422019Y-144336013D01*
X114637044Y-144319155D01*
X114796915Y-144314333D01*
X114956267Y-144314333D01*
X114956267Y-137986167D01*
X115018030Y-137917042D01*
X115061053Y-137874949D01*
X115103454Y-137854479D01*
X115163712Y-137848166D01*
X115189100Y-137847916D01*
X115258719Y-137851339D01*
G37*
X115258719Y-137851339D02*
X115304710Y-137866587D01*
X115345555Y-137901128D01*
X115360169Y-137917042D01*
X115421933Y-137986167D01*
X115421933Y-144314333D01*
X115581285Y-144314333D01*
X115706772Y-144318298D01*
X115863413Y-144329430D01*
X116040850Y-144346585D01*
X116228728Y-144368620D01*
X116416691Y-144394389D01*
X116594383Y-144422750D01*
X116646283Y-144431984D01*
X117227063Y-144559287D01*
X117791315Y-144725556D01*
X118338790Y-144930676D01*
X118869236Y-145174533D01*
X119382406Y-145457016D01*
X119878049Y-145778009D01*
X120300850Y-146093306D01*
X120442949Y-146211918D01*
X120604208Y-146356265D01*
X120777324Y-146519042D01*
X120954991Y-146692943D01*
X121129903Y-146870663D01*
X121294755Y-147044896D01*
X121442242Y-147208338D01*
X121565059Y-147353684D01*
X121580460Y-147372916D01*
X121700080Y-147529111D01*
X121829682Y-147707987D01*
X121962302Y-147899228D01*
X122090979Y-148092516D01*
X122208752Y-148277534D01*
X122308657Y-148443965D01*
X122337466Y-148494750D01*
X122603480Y-149015521D01*
X122830763Y-149551934D01*
X123018883Y-150101680D01*
X123167408Y-150662453D01*
X123275906Y-151231946D01*
X123343947Y-151807852D01*
X123371099Y-152387864D01*
X123356929Y-152969675D01*
X123301006Y-153550978D01*
X123293646Y-153605087D01*
X123204930Y-154127524D01*
X123086229Y-154630982D01*
X122935107Y-155123250D01*
X122749126Y-155612115D01*
X122525848Y-156105365D01*
X122485241Y-156187737D01*
X122402885Y-156348415D01*
X122333034Y-156473469D01*
X122272694Y-156566670D01*
X122218872Y-156631786D01*
X122168575Y-156672589D01*
X122118809Y-156692849D01*
X122081076Y-156696833D01*
X121980706Y-156678792D01*
X121897836Y-156629340D01*
X121840007Y-156555487D01*
X121814757Y-156464241D01*
X121814244Y-156448804D01*
X121823515Y-156418907D01*
X121849357Y-156357914D01*
X121888789Y-156272277D01*
X121938833Y-156168451D01*
X121996508Y-156052887D01*
X122002716Y-156040666D01*
X122146370Y-155749811D01*
X122268741Y-155481872D01*
X122374007Y-155225944D01*
X122466348Y-154971125D01*
X122549941Y-154706510D01*
X122628966Y-154421195D01*
X122640688Y-154375922D01*
X122730934Y-153986252D01*
X122797591Y-153607310D01*
X122842259Y-153226110D01*
X122866539Y-152829670D01*
X122872356Y-152495250D01*
X122867979Y-152164925D01*
X122853686Y-151863573D01*
X122828196Y-151578721D01*
X122790233Y-151297900D01*
X122738518Y-151008638D01*
X122702063Y-150833666D01*
X122563164Y-150293539D01*
X122385872Y-149768801D01*
X122171838Y-149261103D01*
X121922711Y-148772093D01*
X121640141Y-148303422D01*
X121325778Y-147856739D01*
X120981270Y-147433694D01*
X120608268Y-147035936D01*
X120208421Y-146665115D01*
X119783379Y-146322881D01*
X119334791Y-146010883D01*
X118864307Y-145730770D01*
X118373577Y-145484194D01*
X117864249Y-145272802D01*
X117337974Y-145098245D01*
X116840100Y-144971570D01*
X116638658Y-144929032D01*
X116458209Y-144894575D01*
X116290463Y-144867402D01*
X116127126Y-144846711D01*
X115959907Y-144831704D01*
X115780514Y-144821581D01*
X115580654Y-144815542D01*
X115352036Y-144812789D01*
X115189100Y-144812380D01*
X114972350Y-144812855D01*
X114790143Y-144814623D01*
X114634692Y-144818283D01*
X114498212Y-144824435D01*
X114372918Y-144833679D01*
X114251023Y-144846615D01*
X114124743Y-144863842D01*
X113986291Y-144885961D01*
X113827882Y-144913569D01*
X113792100Y-144919986D01*
X113258362Y-145037311D01*
X112732273Y-145195186D01*
X112216773Y-145392092D01*
X111714799Y-145626511D01*
X111229289Y-145896921D01*
X110763181Y-146201804D01*
X110319413Y-146539639D01*
X109900923Y-146908909D01*
X109847473Y-146960166D01*
X109451485Y-147372604D01*
X109089383Y-147809489D01*
X108762032Y-148269003D01*
X108470294Y-148749330D01*
X108215034Y-149248653D01*
X107997114Y-149765156D01*
X107817399Y-150297022D01*
X107676752Y-150842435D01*
X107576036Y-151399577D01*
X107525400Y-151845288D01*
X107516621Y-151988427D01*
X107511325Y-152161139D01*
X107509336Y-152354466D01*
X107510474Y-152559448D01*
X107514564Y-152767124D01*
X107521426Y-152968535D01*
X107530884Y-153154721D01*
X107542759Y-153316723D01*
X107556874Y-153445579D01*
X107557177Y-153447750D01*
X107642521Y-153956994D01*
X107752862Y-154439013D01*
X107890984Y-154902617D01*
X108059669Y-155356615D01*
X108261700Y-155809818D01*
X108374872Y-156036516D01*
X108433624Y-156152417D01*
X108484936Y-156257622D01*
X108525774Y-156345577D01*
X108553099Y-156409726D01*
X108563877Y-156443516D01*
X108563933Y-156444654D01*
X108545042Y-156539145D01*
X108494139Y-156616122D01*
X108419880Y-156669832D01*
X108330919Y-156694520D01*
X108235912Y-156684433D01*
X108214683Y-156676823D01*
X108180414Y-156658337D01*
X108147353Y-156628581D01*
X108111072Y-156581476D01*
X108067145Y-156510941D01*
X108011144Y-156410897D01*
X107982943Y-156358587D01*
X107723506Y-155829743D01*
X107503796Y-155287612D01*
X107324041Y-154734136D01*
X107184468Y-154171257D01*
X107085304Y-153600914D01*
X107026776Y-153025050D01*
X107009113Y-152445605D01*
X107032541Y-151864521D01*
X107097288Y-151283739D01*
X107203582Y-150705200D01*
X107282477Y-150378583D01*
X107448528Y-149828797D01*
X107652562Y-149295359D01*
X107892916Y-148779916D01*
X108167927Y-148284115D01*
X108475932Y-147809604D01*
X108815270Y-147358030D01*
X109184276Y-146931041D01*
X109581289Y-146530284D01*
X110004645Y-146157407D01*
X110452682Y-145814058D01*
X110923736Y-145501883D01*
X111416146Y-145222530D01*
X111928249Y-144977647D01*
X112458381Y-144768882D01*
X113004880Y-144597881D01*
X113157100Y-144557876D01*
X113406677Y-144499424D01*
X113666571Y-144446733D01*
X113928169Y-144401081D01*
X114182856Y-144363748D01*
X114422019Y-144336013D01*
X114637044Y-144319155D01*
X114796915Y-144314333D01*
X114956267Y-144314333D01*
X114956267Y-137986167D01*
X115018030Y-137917042D01*
X115061053Y-137874949D01*
X115103454Y-137854479D01*
X115163712Y-137848166D01*
X115189100Y-137847916D01*
X115258719Y-137851339D01*
%TD*%
M02*
