M48
; DRILL file {KiCad (5.1.8-0-10_14)} date Saturday, October 30, 2021 at 03:56:06 PM
; FORMAT={-:-/ absolute / metric / decimal}
; #@! TF.CreationDate,2021-10-30T15:56:06+01:00
; #@! TF.GenerationSoftware,Kicad,Pcbnew,(5.1.8-0-10_14)
FMAT,2
METRIC
T1C3.200
T2C6.350
T3C7.500
T4C8.331
%
G90
G05
T2
X89.575Y-76.475
X102.275Y-143.15
T3
X89.575Y-57.425
X89.575Y-95.525
X89.575Y-152.675
X89.575Y-171.725
X114.975Y-76.475
X114.975Y-95.525
X114.975Y-114.575
X114.975Y-152.675
X114.975Y-171.725
T4
X89.575Y-38.375
X89.575Y-114.575
X89.575Y-133.625
X114.975Y-38.375
X114.975Y-57.425
X114.975Y-133.625
T1
G00X88.15Y-18.75
M15
G01X90.95Y-18.75
M16
G05
G00X88.15Y-187.75
M15
G01X90.95Y-187.75
M16
G05
G00X113.55Y-18.75
M15
G01X116.35Y-18.75
M16
G05
G00X113.55Y-187.75
M15
G01X116.35Y-187.75
M16
G05
T0
M30
