M48
; DRILL file {KiCad (6.0.0-0)} date Monday, 07 March 2022 at 15:07:44
; FORMAT={-:-/ absolute / metric / decimal}
; #@! TF.CreationDate,2022-03-07T15:07:44+00:00
; #@! TF.GenerationSoftware,Kicad,Pcbnew,(6.0.0-0)
; #@! TF.FileFunction,MixedPlating,1,2
FMAT,2
METRIC
; #@! TA.AperFunction,NonPlated,NPTH,ComponentDrill
T1C3.200
; #@! TA.AperFunction,NonPlated,NPTH,ComponentDrill
T2C6.350
; #@! TA.AperFunction,NonPlated,NPTH,ComponentDrill
T3C7.500
; #@! TA.AperFunction,NonPlated,NPTH,ComponentDrill
T4C8.300
%
G90
G05
T2
X89.789Y-76.324
X102.489Y-143.024
T3
X89.789Y-57.274
X89.789Y-95.374
X89.789Y-152.524
X89.789Y-171.574
X115.189Y-76.324
X115.189Y-95.374
X115.189Y-114.424
X115.189Y-152.524
X115.189Y-171.574
T4
X89.789Y-38.224
X89.789Y-114.424
X89.789Y-133.474
X115.189Y-38.224
X115.189Y-57.274
X115.189Y-133.474
T1
G00X88.389Y-18.624
M15
G01X91.189Y-18.624
M16
G05
G00X88.389Y-187.624
M15
G01X91.189Y-187.624
M16
G05
G00X113.789Y-18.624
M15
G01X116.589Y-18.624
M16
G05
G00X113.789Y-187.624
M15
G01X116.589Y-187.624
M16
G05
T0
M30
