<?xml version="1.0" encoding="UTF-8" standalone="no"?><!DOCTYPE svg PUBLIC "-//W3C//DTD SVG 1.1//EN" "http://www.w3.org/Graphics/SVG/1.1/DTD/svg11.dtd"><svg width="191px" height="662px" version="1.1" xmlns="http://www.w3.org/2000/svg" xmlns:xlink="http://www.w3.org/1999/xlink" xml:space="preserve" xmlns:serif="http://www.serif.com/" style="fill-rule:evenodd;clip-rule:evenodd;stroke-linejoin:round;stroke-miterlimit:1.5;"><path id="Panel" d="M188.976,0c1.037,0 1.89,0.853 1.89,1.89l0,657.638c0,1.036 -0.853,1.889 -1.89,1.889l-187.086,0c-1.037,0 -1.89,-0.853 -1.89,-1.889l0,-657.638c0,-1.037 0.853,-1.89 1.89,-1.89l187.086,0" style="fill:#c0c0c0;"/><g id="Drill"><circle cx="47.433" cy="85.417" r="15.685"/><circle cx="47.433" cy="157.417" r="14.173"/><circle cx="47.433" cy="229.417" r="12"/><circle cx="47.433" cy="301.417" r="14.173"/><circle cx="143.433" cy="301.417" r="14.173"/><circle cx="143.433" cy="373.417" r="14.173"/><circle cx="47.433" cy="517.417" r="14.173"/><circle cx="143.433" cy="517.417" r="14.173"/><circle cx="47.433" cy="589.417" r="14.173"/><circle cx="143.433" cy="589.417" r="14.173"/><circle cx="143.433" cy="650.124" r="7.559"/><circle cx="47.433" cy="650.124" r="7.559"/><circle cx="47.433" cy="11.339" r="7.559"/><circle cx="143.433" cy="11.384" r="7.559"/><circle cx="143.433" cy="229.417" r="14.173"/><circle cx="143.433" cy="85.417" r="15.685"/><circle cx="143.433" cy="157.372" r="15.685"/><circle cx="47.433" cy="373.417" r="15.685"/><circle cx="47.433" cy="445.372" r="15.685"/><circle cx="143.433" cy="445.417" r="15.685"/><circle cx="95.433" cy="481.44" r="12"/></g><g id="Graphics"><path id="Footer-Line" serif:id="Footer Line" d="M-0,633.6l190.867,0" style="fill:none;stroke:#000;stroke-width:4px;"/><path id="Header-Line" serif:id="Header Line" d="M-0,48l190.867,0" style="fill:none;stroke:#000;stroke-width:4px;"/><path d="M169.414,532.26c2.633,-4.561 4.019,-9.734 4.019,-15c0,-16.557 -13.442,-30 -30,-30c-16.557,-0 -30,13.443 -30,30c0,5.266 1.386,10.439 4.019,15" style="fill:none;stroke:#000;stroke-width:1.78px;stroke-linecap:round;"/><path d="M143.433,462.816l0,24.384" style="fill:none;stroke:#000;stroke-width:1.73px;stroke-linecap:round;"/><path d="M73.414,532.259c2.633,-4.561 4.019,-9.734 4.019,-15c0,-16.558 -13.442,-30 -30,-30c-16.557,-0 -30,13.442 -30,30c0,5.266 1.386,10.439 4.019,15" style="fill:none;stroke:#000;stroke-width:1.78px;stroke-linecap:round;"/><path d="M47.433,462.839l0,24.42" style="fill:none;stroke:#000;stroke-width:1.73px;stroke-linecap:round;"/><path d="M143.433,533.724l0,39.752" style="fill:none;stroke:#000;stroke-width:1.73px;stroke-linecap:round;"/><path d="M47.433,533.755l0,39.752" style="fill:none;stroke:#000;stroke-width:1.73px;stroke-linecap:round;"/><path d="M-0,129.6l85.83,-0c5.304,0 9.603,4.3 9.603,9.603l0,52.817c0,5.291 4.29,9.58 9.581,9.58l85.852,-0" style="fill:none;stroke:#000;stroke-width:2px;"/><path d="M64.739,589.417l21.09,0c5.304,0 9.604,-4.3 9.604,-9.604l0,-84.94" style="fill:none;stroke:#000;stroke-width:1.73px;stroke-linecap:round;"/><path d="M126.127,589.417l-21.09,0c-5.304,0 -9.604,-4.3 -9.604,-9.604l0,-84.94" style="fill:none;stroke:#000;stroke-width:1.73px;stroke-linecap:round;"/><path d="M73.835,212.18l10.497,0" style="fill:none;stroke:#000;stroke-width:2px;stroke-linecap:square;"/><path d="M73.835,215.98l10.497,-0" style="fill:none;stroke:#000;stroke-width:2px;stroke-linecap:square;"/><path d="M70.528,244.8l6.614,0" style="fill:none;stroke:#000;stroke-width:2px;stroke-linecap:square;"/><path d="M81.025,244.8l6.614,-0" style="fill:none;stroke:#000;stroke-width:2px;stroke-linecap:square;"/></g><g id="Text"><text x="160.361px" y="547.077px" style="font-family:'ArialMT', 'Arial', sans-serif;font-size:16px;">+</text><text x="64.361px" y="547.076px" style="font-family:'ArialMT', 'Arial', sans-serif;font-size:16px;">+</text><text x="119.165px" y="545.585px" style="font-family:'ArialMT', 'Arial', sans-serif;font-size:16px;">-</text><text x="23.165px" y="545.583px" style="font-family:'ArialMT', 'Arial', sans-serif;font-size:16px;">-</text><text x="14.128px" y="37.014px" style="font-family:'Futura-Medium', 'Futura', sans-serif;font-weight:500;font-size:16px;">DU<tspan x="37.05px 48.902px " y="37.014px 37.014px ">AL</tspan> DIGIT<tspan x="102.527px 114.378px " y="37.014px 37.014px ">AL</tspan> DEL<tspan x="154.839px 165.636px " y="37.014px 37.014px ">AY</tspan></text><text x="63.193px" y="653.998px" style="font-family:'Futura-Medium', 'Futura', sans-serif;font-weight:500;font-size:10.667px;">R<tspan x="69.496px 77.376px " y="653.998px 653.998px ">UM</tspan>BLESAN</text><text x="18.533px" y="122.293px" style="font-family:'Futura-Medium', 'Futura', sans-serif;font-weight:500;font-size:13.333px;">OUT MIX</text><text x="124.361px" y="122.146px" style="font-family:'Futura-Medium', 'Futura', sans-serif;font-weight:500;font-size:13.333px;">OUT 1</text><text x="123.384px" y="194.149px" style="font-family:'Futura-Medium', 'Futura', sans-serif;font-weight:500;font-size:13.333px;">OUT 2</text><text x="13.338px" y="194.371px" style="font-family:'Futura-Medium', 'Futura', sans-serif;font-weight:500;font-size:13.333px;">FEEDB<tspan x="52.609px 62.016px 71.639px " y="194.371px 194.371px 194.371px ">ACK</tspan></text><text x="120.249px" y="265.768px" style="font-family:'Futura-Medium', 'Futura', sans-serif;font-weight:500;font-size:13.333px;">LEVEL 1</text><text x="119.273px" y="337.853px" style="font-family:'Futura-Medium', 'Futura', sans-serif;font-weight:500;font-size:13.333px;">LEVEL 2</text><text x="21.863px" y="626.462px" style="font-family:'Futura-Medium', 'Futura', sans-serif;font-weight:500;font-size:13.333px;">DEL<tspan x="45.555px 54.552px 62.554px " y="626.462px 626.462px 626.462px ">AY </tspan>1</text><text x="116.887px" y="626.462px" style="font-family:'Futura-Medium', 'Futura', sans-serif;font-weight:500;font-size:13.333px;">DEL<tspan x="140.578px 149.576px 157.577px " y="626.462px 626.462px 626.462px ">AY </tspan>2</text><text x="110.158px" y="409.768px" style="font-family:'Futura-Medium', 'Futura', sans-serif;font-weight:500;font-size:13.333px;">LEVEL DR<tspan x="167.457px " y="409.768px ">Y</tspan></text><text x="29.764px" y="338.182px" style="font-family:'Futura-Medium', 'Futura', sans-serif;font-weight:500;font-size:13.333px;">G<tspan x="40.539px 50.415px " y="338.182px 338.182px ">AI</tspan>N</text><text x="39.839px" y="410.182px" style="font-family:'Futura-Medium', 'Futura', sans-serif;font-weight:500;font-size:13.333px;">IN</text><text x="79.873px" y="461.996px" style="font-family:'Futura-Medium', 'Futura', sans-serif;font-weight:500;font-size:13.333px;">JOIN</text></g></svg>